<?xml version="1.0" encoding="UTF-8" standalone="no"?>
<!DOCTYPE svg PUBLIC "-//W3C//DTD SVG 1.1//EN"
"http://www.w3.org/Graphics/SVG/1.1/DTD/svg11.dtd">


<!-- Page 1 -->
<svg x="0" y="0" width="1466" height="825" viewBox="0 0 1466 825" version="1.1" xmlns="http://www.w3.org/2000/svg" xmlns:xlink="http://www.w3.org/1999/xlink"
style="display: block;margin-left: auto;margin-right: auto;">
<defs>
<clipPath id="c_1"><path d="M0,0H1466V825H0Z"/></clipPath>
<clipPath id="c0_1"><path d="M0,825V0H1466.6V825Z"/></clipPath>
<clipPath id="c1_1"><path d="M30.7,387V25.2H409.9V387Z"/></clipPath>

<style type="text/css"><![CDATA[
text { white-space: pre; }
path, image { pointer-events: none; }

.s1_1{
font-size: 13.77px;
font-family: LiberationSansNarrow_13;
fill: #595959;
}
.s2_1{
font-size: 15.11px;
font-family: LiberationSansNarrow-Bold_z;
fill: #595959;
}
.s3_1{
font-size: 13.77px;
font-family: Carlito_18;
fill: #595959;
}

.g0_1{
fill: #FFF;
}
.g1_1{
fill: none;
stroke: #D9D9D9;
stroke-width: 1.1;
stroke-linejoin: bevel;
}
.g2_1{
fill: none;
stroke: #BFBFBF;
stroke-width: 1.1;
stroke-linejoin: bevel;
}
.g3_1{
fill: none;
stroke: #C00000;
stroke-width: 2.2;
stroke-linecap: round;
stroke-linejoin: bevel;
}
.g4_1{
fill: #C00000;
}
.g5_1{
fill: none;
stroke: #FFF;
stroke-width: 1.1;
stroke-linejoin: bevel;
}
.g6_1{
fill: none;
stroke: #5EA616;
stroke-width: 2.2;
stroke-linecap: round;
stroke-linejoin: bevel;
}
.g7_1{
fill: #5EA616;
}
.g8_1{
fill: none;
stroke: #2E75B6;
stroke-width: 2.2;
stroke-linecap: round;
stroke-linejoin: bevel;
}
.g9_1{
fill: #2E75B6;
}

]]></style>

</defs>
<path d="M0,0
L0,825
L1466,825
L1466,0 Z " 
fill="#FFFFFF" stroke="none"/>
<g clip-path="url(#c_1)">
<g clip-path="url(#c0_1)">
<path fill-rule="evenodd" d="M0,0H1466.6V825H0V0Z" class="g0_1"/>
<path fill-rule="evenodd" d="M0,0H1466.7V825H0V0Z" class="g0_1"/>
</g>
<path fill-rule="evenodd" d="M31.2,25.8H409.5V386.7H31.2V25.8Z" class="g0_1"/>
<path d="M109.5,275H378.4M109.5,228.4H378.4M109.5,182H378.4M109.5,135.4H378.4M109.5,89H378.4M109.5,42.4H378.4m-201.6,0v279m67.1,-279v279m67.3,-279v279m67.2,-279v279" class="g1_1"/>
<path d="M109.5,321.4V42.4m0,279H378.4" class="g2_1"/>
<path d="M109.6,42.5L118,66.6l8.4,25.3l16.8,51.3l8.4,24.6l8.4,22.9l4.2,10.5l4.2,9.9l4.2,9.2l4.2,8.2M109.6,42.5L118,66.6l8.4,25.3l16.8,51.3l8.4,24.6l8.4,22.9l4.2,10.5l4.2,9.9l4.2,9.2l4.2,8.2l4.1,7.2l4.2,6.5l8.3,11.1l8.5,9l8.5,7.3l8.5,6l8.5,5.3l16.6,9.9M109.6,42.5L118,66.6l8.4,25.3l16.8,51.3l8.4,24.6l8.4,22.9l4.2,10.5l4.2,9.9l4.2,9.2l4.2,8.2l4.1,7.2l4.2,6.5l8.3,11.1l8.5,9l8.5,7.3l8.5,6l8.5,5.3l16.6,9.9l8.4,4.8l8.4,3.9l16.8,5.9l16.8,4.1l16.8,3.6M109.6,42.5L118,66.6l8.4,25.3l16.8,51.3l8.4,24.6l8.4,22.9l4.2,10.5l4.2,9.9l4.2,9.2l4.2,8.2l4.1,7.2l4.2,6.5l8.3,11.1l8.5,9l8.5,7.3l8.5,6l8.5,5.3l16.6,9.9l8.4,4.8l8.4,3.9l16.8,5.9l16.8,4.1l16.8,3.6l16.8,3l16.8,1.8l33.6,2.9" class="g3_1"/>
<path fill-rule="evenodd" d="M114.9,42.4c0,2.9,-2.4,5.3,-5.3,5.3c-3,0,-5.4,-2.4,-5.4,-5.3c0,-3,2.4,-5.4,5.4,-5.4c2.9,0,5.3,2.4,5.3,5.4Z" class="g4_1"/>
<path d="M114.9,42.4c0,2.9,-2.4,5.3,-5.3,5.3c-3,0,-5.4,-2.4,-5.4,-5.3c0,-3,2.4,-5.4,5.4,-5.4c2.9,0,5.3,2.4,5.3,5.4Z" class="g5_1"/>
<path fill-rule="evenodd" d="M182.2,228.3c0,3,-2.4,5.3,-5.3,5.3c-3,0,-5.4,-2.3,-5.4,-5.3c0,-2.9,2.4,-5.3,5.4,-5.3c2.9,0,5.3,2.4,5.3,5.3Z" class="g4_1"/>
<path d="M182.2,228.3c0,3,-2.4,5.3,-5.3,5.3c-3,0,-5.4,-2.3,-5.4,-5.3c0,-2.9,2.4,-5.3,5.4,-5.3c2.9,0,5.3,2.4,5.3,5.3Z" class="g5_1"/>
<path fill-rule="evenodd" d="M249.3,290.7c0,2.9,-2.4,5.3,-5.3,5.3c-3,0,-5.3,-2.4,-5.3,-5.3c0,-3,2.3,-5.3,5.3,-5.3c2.9,0,5.3,2.3,5.3,5.3Z" class="g4_1"/>
<path d="M249.3,290.7c0,2.9,-2.4,5.3,-5.3,5.3c-3,0,-5.3,-2.4,-5.3,-5.3c0,-3,2.3,-5.3,5.3,-5.3c2.9,0,5.3,2.3,5.3,5.3Z" class="g5_1"/>
<path fill-rule="evenodd" d="M316.6,313c0,3,-2.4,5.4,-5.3,5.4c-3,0,-5.3,-2.4,-5.3,-5.4c0,-2.9,2.3,-5.3,5.3,-5.3c2.9,0,5.3,2.4,5.3,5.3Z" class="g4_1"/>
<path d="M316.6,313c0,3,-2.4,5.4,-5.3,5.4c-3,0,-5.3,-2.4,-5.3,-5.4c0,-2.9,2.3,-5.3,5.3,-5.3c2.9,0,5.3,2.4,5.3,5.3Z" class="g5_1"/>
<path fill-rule="evenodd" d="M383.7,320.7c0,3,-2.4,5.4,-5.3,5.4c-2.9,0,-5.3,-2.4,-5.3,-5.4c0,-2.9,2.4,-5.3,5.3,-5.3c2.9,0,5.3,2.4,5.3,5.3Z" class="g4_1"/>
<path d="M383.7,320.7c0,3,-2.4,5.4,-5.3,5.4c-2.9,0,-5.3,-2.4,-5.3,-5.4c0,-2.9,2.4,-5.3,5.3,-5.3c2.9,0,5.3,2.4,5.3,5.3Z" class="g5_1"/>
<path d="M109.6,317.3l67.2,2.1m-67.2,-2.1l67.2,2.1l67.2,1.2M109.6,317.3l67.2,2.1l67.2,1.2l67.2,.5M109.6,317.3l67.2,2.1l67.2,1.2l67.2,.5l67.2,.3" class="g6_1"/>
<path fill-rule="evenodd" d="M114.9,317.3c0,2.9,-2.4,5.3,-5.3,5.3c-3,0,-5.4,-2.4,-5.4,-5.3c0,-3,2.4,-5.4,5.4,-5.4c2.9,0,5.3,2.4,5.3,5.4Z" class="g7_1"/>
<path d="M114.9,317.3c0,2.9,-2.4,5.3,-5.3,5.3c-3,0,-5.4,-2.4,-5.4,-5.3c0,-3,2.4,-5.4,5.4,-5.4c2.9,0,5.3,2.4,5.3,5.4Z" class="g5_1"/>
<path fill-rule="evenodd" d="M182.2,319.3c0,2.9,-2.4,5.3,-5.3,5.3c-3,0,-5.4,-2.4,-5.4,-5.3c0,-2.9,2.4,-5.3,5.4,-5.3c2.9,0,5.3,2.4,5.3,5.3Z" class="g7_1"/>
<path d="M182.2,319.3c0,2.9,-2.4,5.3,-5.3,5.3c-3,0,-5.4,-2.4,-5.4,-5.3c0,-2.9,2.4,-5.3,5.4,-5.3c2.9,0,5.3,2.4,5.3,5.3Z" class="g5_1"/>
<path fill-rule="evenodd" d="M249.3,320.4c0,2.9,-2.4,5.3,-5.3,5.3c-3,0,-5.3,-2.4,-5.3,-5.3c0,-3,2.3,-5.3,5.3,-5.3c2.9,0,5.3,2.3,5.3,5.3Z" class="g7_1"/>
<path d="M249.3,320.4c0,2.9,-2.4,5.3,-5.3,5.3c-3,0,-5.3,-2.4,-5.3,-5.3c0,-3,2.3,-5.3,5.3,-5.3c2.9,0,5.3,2.3,5.3,5.3Z" class="g5_1"/>
<path fill-rule="evenodd" d="M316.6,320.9c0,3,-2.4,5.3,-5.3,5.3c-3,0,-5.3,-2.3,-5.3,-5.3c0,-2.9,2.3,-5.3,5.3,-5.3c2.9,0,5.3,2.4,5.3,5.3Z" class="g7_1"/>
<path d="M316.6,320.9c0,3,-2.4,5.3,-5.3,5.3c-3,0,-5.3,-2.3,-5.3,-5.3c0,-2.9,2.3,-5.3,5.3,-5.3c2.9,0,5.3,2.4,5.3,5.3Z" class="g5_1"/>
<path fill-rule="evenodd" d="M383.7,321.3c0,2.9,-2.4,5.3,-5.3,5.3c-2.9,0,-5.3,-2.4,-5.3,-5.3c0,-2.9,2.4,-5.3,5.3,-5.3c2.9,0,5.3,2.4,5.3,5.3Z" class="g7_1"/>
<path d="M383.7,321.3c0,2.9,-2.4,5.3,-5.3,5.3c-2.9,0,-5.3,-2.4,-5.3,-5.3c0,-2.9,2.4,-5.3,5.3,-5.3c2.9,0,5.3,2.4,5.3,5.3Z" class="g5_1"/>
<path d="M109.6,304.7l33.6,4.4l33.6,4m-67.2,-8.4l33.6,4.4l33.6,4l33.6,2.7l33.6,1.9m-134.4,-13l33.6,4.4l33.6,4l33.6,2.7l33.6,1.9l67.2,2.4M109.6,304.7l33.6,4.4l33.6,4l33.6,2.7l33.6,1.9l67.2,2.4l67.2,1.1" class="g8_1"/>
<path fill-rule="evenodd" d="M114.9,304.6c0,2.9,-2.4,5.3,-5.3,5.3c-3,0,-5.4,-2.4,-5.4,-5.3c0,-2.9,2.4,-5.3,5.4,-5.3c2.9,0,5.3,2.4,5.3,5.3Z" class="g9_1"/>
<path d="M114.9,304.6c0,2.9,-2.4,5.3,-5.3,5.3c-3,0,-5.4,-2.4,-5.4,-5.3c0,-2.9,2.4,-5.3,5.4,-5.3c2.9,0,5.3,2.4,5.3,5.3Z" class="g5_1"/>
<path fill-rule="evenodd" d="M182.2,313c0,3,-2.4,5.4,-5.3,5.4c-3,0,-5.4,-2.4,-5.4,-5.4c0,-2.9,2.4,-5.3,5.4,-5.3c2.9,0,5.3,2.4,5.3,5.3Z" class="g9_1"/>
<path d="M182.2,313c0,3,-2.4,5.4,-5.3,5.4c-3,0,-5.4,-2.4,-5.4,-5.4c0,-2.9,2.4,-5.3,5.4,-5.3c2.9,0,5.3,2.4,5.3,5.3Z" class="g5_1"/>
<path fill-rule="evenodd" d="M249.3,317.6c0,3,-2.4,5.3,-5.3,5.3c-3,0,-5.3,-2.3,-5.3,-5.3c0,-2.9,2.3,-5.3,5.3,-5.3c2.9,0,5.3,2.4,5.3,5.3Z" class="g9_1"/>
<path d="M249.3,317.6c0,3,-2.4,5.3,-5.3,5.3c-3,0,-5.3,-2.3,-5.3,-5.3c0,-2.9,2.3,-5.3,5.3,-5.3c2.9,0,5.3,2.4,5.3,5.3Z" class="g5_1"/>
<path fill-rule="evenodd" d="M316.6,320c0,2.9,-2.4,5.3,-5.3,5.3c-3,0,-5.3,-2.4,-5.3,-5.3c0,-2.9,2.3,-5.3,5.3,-5.3c2.9,0,5.3,2.4,5.3,5.3Z" class="g9_1"/>
<path d="M316.6,320c0,2.9,-2.4,5.3,-5.3,5.3c-3,0,-5.3,-2.4,-5.3,-5.3c0,-2.9,2.3,-5.3,5.3,-5.3c2.9,0,5.3,2.4,5.3,5.3Z" class="g5_1"/>
<path fill-rule="evenodd" d="M383.7,321.1c0,3,-2.4,5.3,-5.3,5.3c-2.9,0,-5.3,-2.3,-5.3,-5.3c0,-2.9,2.4,-5.3,5.3,-5.3c2.9,0,5.3,2.4,5.3,5.3Z" class="g9_1"/>
<path d="M383.7,321.1c0,3,-2.4,5.3,-5.3,5.3c-2.9,0,-5.3,-2.3,-5.3,-5.3c0,-2.9,2.4,-5.3,5.3,-5.3c2.9,0,5.3,2.4,5.3,5.3Z" class="g5_1"/>
<g clip-path="url(#c1_1)">
<text x="91.4" y="325.9" class="s1_1">0 </text>
<text x="78.7" y="279.4" class="s1_1">500 </text>
<text x="72.4" y="232.8" dx="0,0,0,.1" class="s1_1">1000 </text>
<text x="72.4" y="186.4" dx="0,0,0,.1" class="s1_1">1500 </text>
<text x="72.4" y="139.9" dx="0,0,0,.1" class="s1_1">2000 </text>
<text x="72.4" y="93.3" dx="0,0,0,.1" class="s1_1">2500 </text>
<text x="72.4" y="46.9" dx="0,0,0,.1" class="s1_1">3000 </text>
<text x="106.5" y="342.5" class="s1_1">10 </text>
<text x="170.5" y="342.5" class="s1_1">100 </text>
<text x="231.5" y="342.5" dx="0,0,-.1,.1,0" class="s1_1">1 000 </text>
<text x="295.5" y="342.5" dx="0,0,.1,-.1,0,0" class="s1_1">10 000 </text>
<text x="359.5" y="342.5" dx="0,0,.1,0,-.1,0,0" class="s1_1">100 000 </text>
<text transform="matrix(0,-1,1,0,53.9,264.5)" dx="0,.1,.1,.1,0,.1,.1,.1,.1,0,.2,.1,0,.2,.1,-.1,.1,.1,0" class="s2_1">Время обучения, сут </text>
<text x="164.7" y="364.4" dx="0,.1,0,.1,0,.1,0,0,.2,0,.1,.1,.1,.1,.1,0,0,0,.1,.1,.2,0,0,.1" class="s2_1">Частота набора, слов/сут </text>
</g>
<path d="M244.3,82.1h29.4" class="g3_1"/>
<path fill-rule="evenodd" d="M262.7,82.1c0,2.1,-1.8,3.8,-3.9,3.8c-2.1,0,-3.9,-1.7,-3.9,-3.8c0,-2.2,1.8,-3.9,3.9,-3.9c2.1,0,3.9,1.7,3.9,3.9Z" class="g4_1"/>
<path d="M262.7,82.1c0,2.1,-1.8,3.8,-3.9,3.8c-2.1,0,-3.9,-1.7,-3.9,-3.8c0,-2.2,1.8,-3.9,3.9,-3.9c2.1,0,3.9,1.7,3.9,3.9Z" class="g5_1"/>
<text clip-path="url(#c1_1)" x="276.7" y="86" class="s3_1">1 </text>
<path d="M244.3,140.6h29.4" class="g6_1"/>
<path fill-rule="evenodd" d="M262.7,140.4c0,2.1,-1.8,3.8,-3.9,3.8c-2.1,0,-3.9,-1.7,-3.9,-3.8c0,-2.2,1.8,-3.9,3.9,-3.9c2.1,0,3.9,1.7,3.9,3.9Z" class="g7_1"/>
<path d="M262.7,140.4c0,2.1,-1.8,3.8,-3.9,3.8c-2.1,0,-3.9,-1.7,-3.9,-3.8c0,-2.2,1.8,-3.9,3.9,-3.9c2.1,0,3.9,1.7,3.9,3.9Z" class="g5_1"/>
<text clip-path="url(#c1_1)" x="276.7" y="144.4" dx="0,0,.1,0,0,0,-.1,.1,.1,-.1,-.1,.1,-.1" class="s3_1">Тобуч165, сут </text>
<path d="M244.3,198.9h29.4" class="g8_1"/>
<path fill-rule="evenodd" d="M262.7,198.7c0,2.1,-1.8,3.8,-3.9,3.8c-2.1,0,-3.9,-1.7,-3.9,-3.8c0,-2.1,1.8,-3.9,3.9,-3.9c2.1,0,3.9,1.8,3.9,3.9Z" class="g9_1"/>
<path d="M262.7,198.7c0,2.1,-1.8,3.8,-3.9,3.8c-2.1,0,-3.9,-1.7,-3.9,-3.8c0,-2.1,1.8,-3.9,3.9,-3.9c2.1,0,3.9,1.8,3.9,3.9Z" class="g5_1"/>
<text clip-path="url(#c1_1)" x="276.7" y="202.7" dx="0,0,.1,0,0,0,-.1,.1,.1,-.1,-.1,.1,-.1" class="s3_1">Тобуч104, сут </text>
<path d="M31.2,25.8H409.5V386.7H31.2V25.8Z" class="g1_1"/>
<g clip-path="url(#c1_1)">
<image preserveAspectRatio="none" x="277" y="108" width="82" height="62" xlink:href="1/img/1.png"/>
<image preserveAspectRatio="none" x="275" y="69" width="78" height="24" xlink:href="1/img/2.png"/>
<image preserveAspectRatio="none" x="277" y="182" width="99" height="30" xlink:href="1/img/3.png"/>
</g>

</g>

<!-- Any embedded fonts defined here -->
<style type="text/css" ><![CDATA[

@font-face {
	font-family: Carlito_18;
	src: url("fonts/Carlito_18.woff") format("woff");
}

@font-face {
	font-family: LiberationSansNarrow-Bold_z;
	src: url("fonts/LiberationSansNarrow-Bold_z.woff") format("woff");
}

@font-face {
	font-family: LiberationSansNarrow_13;
	src: url("fonts/LiberationSansNarrow_13.woff") format("woff");
}

]]></style>

</svg>
