<?xml version="1.0" encoding="UTF-8" standalone="no"?>
<svg
   version="1.0"
   width="338.89001mm"
   height="190.57001mm"
   id="svg996"
   sodipodi:docname="32.svg"
   inkscape:version="1.2.1 (9c6d41e410, 2022-07-14)"
   xmlns:inkscape="http://www.inkscape.org/namespaces/inkscape"
   xmlns:sodipodi="http://sodipodi.sourceforge.net/DTD/sodipodi-0.dtd"
   xmlns="http://www.w3.org/2000/svg"
   xmlns:svg="http://www.w3.org/2000/svg">
  <sodipodi:namedview
     id="namedview998"
     pagecolor="#505050"
     bordercolor="#eeeeee"
     borderopacity="1"
     inkscape:showpageshadow="0"
     inkscape:pageopacity="0"
     inkscape:pagecheckerboard="0"
     inkscape:deskcolor="#505050"
     inkscape:document-units="mm"
     showgrid="false"
     inkscape:zoom="1.132917"
     inkscape:cx="640.82365"
     inkscape:cy="289.51812"
     inkscape:window-width="1800"
     inkscape:window-height="1108"
     inkscape:window-x="-12"
     inkscape:window-y="-12"
     inkscape:window-maximized="1"
     inkscape:current-layer="svg996" />
  <defs
     id="defs782">
    <pattern
       id="EMFhbasepattern"
       patternUnits="userSpaceOnUse"
       width="6"
       height="6"
       x="0"
       y="0" />
  </defs>
  <path
     style="display:inline;fill:#5b9bd5;fill-opacity:1;fill-rule:evenodd;stroke:none"
     d="M 0.1601025,0.1601025 M 36.58342,188.16046 c 0,-6.84438 5.603588,-12.44797 12.447969,-12.44797 H 1232.1488 c 6.8444,0 12.408,5.60359 12.408,12.44797 V 532.661 c 0,6.84439 -5.5636,12.40795 -12.408,12.40795 H 49.031389 c -6.844381,0 -12.447969,-5.56356 -12.447969,-12.40795 z"
     id="path786" />
  <path
     style="fill:#ffffff;fill-rule:evenodd;fill-opacity:1;stroke:none;"
     d="  M 58.99777,206.76237   C 58.99777,202.96994 62.079743,199.88797 65.872171,199.88797   L 97.922689,199.88797   C 101.71512,199.88797 104.78708,202.96994 104.78708,206.76237   L 104.78708,238.81289   C 104.78708,242.60531 101.71512,245.67728 97.922689,245.67728   L 65.872171,245.67728   C 62.079743,245.67728 58.99777,242.60531 58.99777,238.81289   z "
     id="path788" />
  <path
     style="fill:#ffffff;fill-rule:evenodd;fill-opacity:1;stroke:none;"
     d="  M 161.94367,206.76237   C 161.94367,202.96994 165.02565,199.88797 168.81808,199.88797   L 200.86859,199.88797   C 204.66102,199.88797 207.73299,202.96994 207.73299,206.76237   L 207.73299,238.81289   C 207.73299,242.60531 204.66102,245.67728 200.86859,245.67728   L 168.81808,245.67728   C 165.02565,245.67728 161.94367,242.60531 161.94367,238.81289   z "
     id="path790" />
  <path
     style="fill:#ffffff;fill-rule:evenodd;fill-opacity:1;stroke:none;"
     d="  M 213.33658,206.76237   C 213.33658,202.96994 216.41855,199.88797 220.21098,199.88797   L 252.5817,199.88797   C 256.37413,199.88797 259.44609,202.96994 259.44609,206.76237   L 259.44609,238.81289   C 259.44609,242.60531 256.37413,245.67728 252.5817,245.67728   L 220.21098,245.67728   C 216.41855,245.67728 213.33658,242.60531 213.33658,238.81289   z "
     id="path792" />
  <path
     style="fill:#ffffff;fill-rule:evenodd;fill-opacity:1;stroke:none;"
     d="  M 265.04968,206.76237   C 265.04968,202.96994 268.13166,199.88797 271.92408,199.88797   L 303.9746,199.88797   C 307.76703,199.88797 310.839,202.96994 310.839,206.76237   L 310.839,238.81289   C 310.839,242.60531 307.76703,245.67728 303.9746,245.67728   L 271.92408,245.67728   C 268.13166,245.67728 265.04968,242.60531 265.04968,238.81289   z "
     id="path794" />
  <path
     style="fill:#ffffff;fill-rule:evenodd;fill-opacity:1;stroke:none;"
     d="  M 316.44258,206.76237   C 316.44258,202.96994 319.52456,199.88797 323.31698,199.88797   L 355.52761,199.88797   C 359.32003,199.88797 362.392,202.96994 362.392,206.76237   L 362.392,238.81289   C 362.392,242.60531 359.32003,245.67728 355.52761,245.67728   L 323.31698,245.67728   C 319.52456,245.67728 316.44258,242.60531 316.44258,238.81289   z "
     id="path796" />
  <path
     style="fill:#ffffff;fill-rule:evenodd;fill-opacity:1;stroke:none;"
     d="  M 393.45188,206.77237   C 393.45188,202.96994 396.53386,199.88797 400.33629,199.88797   L 432.69701,199.88797   C 436.49944,199.88797 439.5614,202.96994 439.5614,206.77237   L 439.5614,238.81289   C 439.5614,242.61532 436.49944,245.67728 432.69701,245.67728   L 400.33629,245.67728   C 396.53386,245.67728 393.45188,242.61532 393.45188,238.81289   z "
     id="path798" />
  <path
     style="fill:#ffffff;fill-rule:evenodd;fill-opacity:1;stroke:none;"
     d="  M 445.16499,206.77237   C 445.16499,202.96994 448.24696,199.88797 452.0494,199.88797   L 484.08991,199.88797   C 487.89234,199.88797 490.9543,202.96994 490.9543,206.77237   L 490.9543,238.81289   C 490.9543,242.61532 487.89234,245.67728 484.08991,245.67728   L 452.0494,245.67728   C 448.24696,245.67728 445.16499,242.61532 445.16499,238.81289   z "
     id="path800" />
  <path
     style="fill:#ffffff;fill-rule:evenodd;fill-opacity:1;stroke:none;"
     d="  M 496.55789,206.73235   C 496.55789,202.96994 499.63986,199.88797 503.40227,199.88797   L 535.34272,199.88797   C 539.12514,199.88797 542.1871,202.96994 542.1871,206.73235   L 542.1871,238.8329   C 542.1871,242.61532 539.12514,245.67728 535.34272,245.67728   L 503.40227,245.67728   C 499.63986,245.67728 496.55789,242.61532 496.55789,238.8329   z "
     id="path802" />
  <path
     style="fill:#ffffff;fill-rule:evenodd;fill-opacity:1;stroke:none;"
     d="  M 548.1109,206.77237   C 548.1109,202.96994 551.19287,199.88797 554.9953,199.88797   L 587.03581,199.88797   C 590.83825,199.88797 593.90021,202.96994 593.90021,206.77237   L 593.90021,238.81289   C 593.90021,242.61532 590.83825,245.67728 587.03581,245.67728   L 554.9953,245.67728   C 551.19287,245.67728 548.1109,242.61532 548.1109,238.81289   z "
     id="path804" />
  <path
     style="fill:#ffffff;fill-rule:evenodd;fill-opacity:1;stroke:none;"
     d="  M 625.4404,206.77237   C 625.4404,202.96994 628.52237,199.88797 632.32481,199.88797   L 664.36532,199.88797   C 668.16775,199.88797 671.22971,202.96994 671.22971,206.77237   L 671.22971,238.81289   C 671.22971,242.61532 668.16775,245.67728 664.36532,245.67728   L 632.32481,245.67728   C 628.52237,245.67728 625.4404,242.61532 625.4404,238.81289   z "
     id="path806" />
  <path
     style="fill:#ffffff;fill-rule:evenodd;fill-opacity:1;stroke:none;"
     d="  M 677.15351,206.73235   C 677.15351,202.96994 680.23548,199.88797 683.99789,199.88797   L 715.93834,199.88797   C 719.74077,199.88797 722.78272,202.96994 722.78272,206.73235   L 722.78272,238.8329   C 722.78272,242.63533 719.74077,245.67728 715.93834,245.67728   L 683.99789,245.67728   C 680.23548,245.67728 677.15351,242.63533 677.15351,238.8329   z "
     id="path808" />
  <path
     style="fill:#ffffff;fill-rule:evenodd;fill-opacity:1;stroke:none;"
     d="  M 728.54641,206.73235   C 728.54641,202.96994 731.62838,199.88797 735.39079,199.88797   L 767.33124,199.88797   C 771.13367,199.88797 774.17562,202.96994 774.17562,206.73235   L 774.17562,238.8329   C 774.17562,242.63533 771.13367,245.67728 767.33124,245.67728   L 735.39079,245.67728   C 731.62838,245.67728 728.54641,242.63533 728.54641,238.8329   z "
     id="path810" />
  <path
     style="fill:#ffffff;fill-rule:evenodd;fill-opacity:1;stroke:none;"
     d="  M 780.09941,206.77237   C 780.09941,202.96994 783.18138,199.88797 786.98382,199.88797   L 819.04434,199.88797   C 822.84678,199.88797 825.88873,202.96994 825.88873,206.77237   L 825.88873,238.8329   C 825.88873,242.63533 822.84678,245.67728 819.04434,245.67728   L 786.98382,245.67728   C 783.18138,245.67728 780.09941,242.63533 780.09941,238.8329   z "
     id="path812" />
  <path
     style="fill:#ffffff;fill-rule:evenodd;fill-opacity:1;stroke:none;"
     d="  M 844.46062,206.77237   C 844.46062,202.96994 847.54259,199.88797 851.34502,199.88797   L 883.40555,199.88797   C 887.20798,199.88797 890.24993,202.96994 890.24993,206.77237   L 890.24993,238.8329   C 890.24993,242.63533 887.20798,245.67728 883.40555,245.67728   L 851.34502,245.67728   C 847.54259,245.67728 844.46062,242.63533 844.46062,238.8329   z "
     id="path814" />
  <path
     style="fill:#ffffff;fill-rule:evenodd;fill-opacity:1;stroke:none;"
     d="  M 896.17372,206.73235   C 896.17372,202.96994 899.25569,199.88797 903.0181,199.88797   L 934.95855,199.88797   C 938.76099,199.88797 941.80293,202.96994 941.80293,206.73235   L 941.80293,238.8329   C 941.80293,242.63533 938.76099,245.67728 934.95855,245.67728   L 903.0181,245.67728   C 899.25569,245.67728 896.17372,242.63533 896.17372,238.8329   z "
     id="path816" />
  <path
     style="fill:#ffffff;fill-rule:evenodd;fill-opacity:1;stroke:none;"
     d="  M 947.56662,206.73235   C 947.56662,202.96994 950.6486,199.88797 954.411,199.88797   L 986.35145,199.88797   C 990.15389,199.88797 993.19583,202.96994 993.19583,206.73235   L 993.19583,238.8329   C 993.19583,242.63533 990.15389,245.67728 986.35145,245.67728   L 954.411,245.67728   C 950.6486,245.67728 947.56662,242.63533 947.56662,238.8329   z "
     id="path818" />
  <path
     style="fill:#ffffff;fill-rule:evenodd;fill-opacity:1;stroke:none;"
     d="  M 58.99777,279.76911   C 58.99777,275.97668 62.079743,272.8947 65.872171,272.8947   L 97.922689,272.8947   C 101.71512,272.8947 104.78708,275.97668 104.78708,279.76911   L 104.78708,311.81962   C 104.78708,315.61205 101.71512,318.68402 97.922689,318.68402   L 65.872171,318.68402   C 62.079743,318.68402 58.99777,315.61205 58.99777,311.81962   z "
     id="path820" />
  <path
     style="fill:#ffffff;fill-rule:evenodd;fill-opacity:1;stroke:none;"
     d="  M 110.39067,279.76911   C 110.39067,275.97668 113.47264,272.8947 117.26507,272.8947   L 149.47569,272.8947   C 153.26812,272.8947 156.34009,275.97668 156.34009,279.76911   L 156.34009,311.81962   C 156.34009,315.61205 153.26812,318.68402 149.47569,318.68402   L 117.26507,318.68402   C 113.47264,318.68402 110.39067,315.61205 110.39067,311.81962   z "
     id="path822" />
  <path
     style="fill:#ffffff;fill-rule:evenodd;fill-opacity:1;stroke:none;"
     d="  M 161.94367,279.76911   C 161.94367,275.97668 165.02565,272.8947 168.81808,272.8947   L 200.86859,272.8947   C 204.66102,272.8947 207.73299,275.97668 207.73299,279.76911   L 207.73299,311.81962   C 207.73299,315.61205 204.66102,318.68402 200.86859,318.68402   L 168.81808,318.68402   C 165.02565,318.68402 161.94367,315.61205 161.94367,311.81962   z "
     id="path824" />
  <path
     style="fill:#ffffff;fill-rule:evenodd;fill-opacity:1;stroke:none;"
     d="  M 213.33658,279.76911   C 213.33658,275.97668 216.41855,272.8947 220.21098,272.8947   L 252.5817,272.8947   C 256.37413,272.8947 259.44609,275.97668 259.44609,279.76911   L 259.44609,311.81962   C 259.44609,315.61205 256.37413,318.68402 252.5817,318.68402   L 220.21098,318.68402   C 216.41855,318.68402 213.33658,315.61205 213.33658,311.81962   z "
     id="path826" />
  <path
     style="fill:#ffffff;fill-rule:evenodd;fill-opacity:1;stroke:none;"
     d="  M 265.04968,279.76911   C 265.04968,275.97668 268.13166,272.8947 271.92408,272.8947   L 303.9746,272.8947   C 307.76703,272.8947 310.839,275.97668 310.839,279.76911   L 310.839,311.81962   C 310.839,315.61205 307.76703,318.68402 303.9746,318.68402   L 271.92408,318.68402   C 268.13166,318.68402 265.04968,315.61205 265.04968,311.81962   z "
     id="path828" />
  <path
     style="fill:#ffffff;fill-rule:evenodd;fill-opacity:1;stroke:none;"
     d="  M 316.44258,279.76911   C 316.44258,275.97668 319.52456,272.8947 323.31698,272.8947   L 355.52761,272.8947   C 359.32003,272.8947 362.392,275.97668 362.392,279.76911   L 362.392,311.81962   C 362.392,315.61205 359.32003,318.68402 355.52761,318.68402   L 323.31698,318.68402   C 319.52456,318.68402 316.44258,315.61205 316.44258,311.81962   z "
     id="path830" />
  <path
     style="fill:#ffffff;fill-rule:evenodd;fill-opacity:1;stroke:none;"
     d="  M 367.99559,279.77911   C 367.99559,275.97668 371.07756,272.8947 374.87999,272.8947   L 406.92051,272.8947   C 410.72294,272.8947 413.7849,275.97668 413.7849,279.77911   L 413.7849,311.81962   C 413.7849,315.62206 410.72294,318.68402 406.92051,318.68402   L 374.87999,318.68402   C 371.07756,318.68402 367.99559,315.62206 367.99559,311.81962   z "
     id="path832" />
  <path
     style="fill:#ffffff;fill-rule:evenodd;fill-opacity:1;stroke:none;"
     d="  M 419.38849,279.77911   C 419.38849,275.97668 422.47046,272.8947 426.2729,272.8947   L 458.63361,272.8947   C 462.43605,272.8947 465.49801,275.97668 465.49801,279.77911   L 465.49801,311.81962   C 465.49801,315.62206 462.43605,318.68402 458.63361,318.68402   L 426.2729,318.68402   C 422.47046,318.68402 419.38849,315.62206 419.38849,311.81962   z "
     id="path834" />
  <path
     style="fill:#ffffff;fill-rule:evenodd;fill-opacity:1;stroke:none;"
     d="  M 471.10159,279.73909   C 471.10159,275.97668 474.18357,272.8947 477.94598,272.8947   L 509.88642,272.8947   C 513.66885,272.8947 516.73081,275.97668 516.73081,279.73909   L 516.73081,311.83964   C 516.73081,315.62206 513.66885,318.68402 509.88642,318.68402   L 477.94598,318.68402   C 474.18357,318.68402 471.10159,315.62206 471.10159,311.83964   z "
     id="path836" />
  <path
     style="fill:#ffffff;fill-rule:evenodd;fill-opacity:1;stroke:none;"
     d="  M 522.4945,279.73909   C 522.4945,275.97668 525.57647,272.8947 529.33888,272.8947   L 561.27933,272.8947   C 565.06175,272.8947 568.12371,275.97668 568.12371,279.73909   L 568.12371,311.83964   C 568.12371,315.62206 565.06175,318.68402 561.27933,318.68402   L 529.33888,318.68402   C 525.57647,318.68402 522.4945,315.62206 522.4945,311.83964   z "
     id="path838" />
  <path
     style="fill:#ffffff;fill-rule:evenodd;fill-opacity:1;stroke:none;"
     d="  M 574.0475,279.77911   C 574.0475,275.97668 577.12947,272.8947 580.93191,272.8947   L 612.97242,272.8947   C 616.77485,272.8947 619.83681,275.97668 619.83681,279.77911   L 619.83681,311.81962   C 619.83681,315.62206 616.77485,318.68402 612.97242,318.68402   L 580.93191,318.68402   C 577.12947,318.68402 574.0475,315.62206 574.0475,311.81962   z "
     id="path840" />
  <path
     style="fill:#ffffff;fill-rule:evenodd;fill-opacity:1;stroke:none;"
     d="  M 625.4404,279.77911   C 625.4404,275.97668 628.52237,272.8947 632.32481,272.8947   L 664.36532,272.8947   C 668.16775,272.8947 671.22971,275.97668 671.22971,279.77911   L 671.22971,311.81962   C 671.22971,315.62206 668.16775,318.68402 664.36532,318.68402   L 632.32481,318.68402   C 628.52237,318.68402 625.4404,315.62206 625.4404,311.81962   z "
     id="path842" />
  <path
     style="fill:#ffffff;fill-rule:evenodd;fill-opacity:1;stroke:none;"
     d="  M 677.15351,279.73909   C 677.15351,275.97668 680.23548,272.8947 683.99789,272.8947   L 715.93834,272.8947   C 719.74077,272.8947 722.78272,275.97668 722.78272,279.73909   L 722.78272,311.83964   C 722.78272,315.64207 719.74077,318.68402 715.93834,318.68402   L 683.99789,318.68402   C 680.23548,318.68402 677.15351,315.64207 677.15351,311.83964   z "
     id="path844" />
  <path
     style="fill:#ffffff;fill-rule:evenodd;fill-opacity:1;stroke:none;"
     d="  M 728.54641,279.77911   C 728.54641,275.97668 731.62838,272.8947 735.43082,272.8947   L 819.04434,272.8947   C 822.84678,272.8947 825.88873,275.97668 825.88873,279.77911   L 825.88873,311.83964   C 825.88873,315.64207 822.84678,318.68402 819.04434,318.68402   L 735.43082,318.68402   C 731.62838,318.68402 728.54641,315.64207 728.54641,311.83964   z "
     id="path846" />
  <path
     style="fill:#ffffff;fill-rule:evenodd;fill-opacity:1;stroke:none;"
     d="  M 844.46062,279.77911   C 844.46062,275.97668 847.54259,272.8947 851.34502,272.8947   L 883.40555,272.8947   C 887.20798,272.8947 890.24993,275.97668 890.24993,279.77911   L 890.24993,311.83964   C 890.24993,315.64207 887.20798,318.68402 883.40555,318.68402   L 851.34502,318.68402   C 847.54259,318.68402 844.46062,315.64207 844.46062,311.83964   z "
     id="path848" />
  <path
     style="fill:#ffffff;fill-rule:evenodd;fill-opacity:1;stroke:none;"
     d="  M 896.17372,279.73909   C 896.17372,275.97668 899.25569,272.8947 903.0181,272.8947   L 934.95855,272.8947   C 938.76099,272.8947 941.80293,275.97668 941.80293,279.73909   L 941.80293,311.83964   C 941.80293,315.64207 938.76099,318.68402 934.95855,318.68402   L 903.0181,318.68402   C 899.25569,318.68402 896.17372,315.64207 896.17372,311.83964   z "
     id="path850" />
  <path
     style="fill:#ffffff;fill-rule:evenodd;fill-opacity:1;stroke:none;"
     d="  M 947.56662,279.73909   C 947.56662,275.97668 950.6486,272.8947 954.411,272.8947   L 986.35145,272.8947   C 990.15389,272.8947 993.19583,275.97668 993.19583,279.73909   L 993.19583,311.83964   C 993.19583,315.64207 990.15389,318.68402 986.35145,318.68402   L 954.411,318.68402   C 950.6486,318.68402 947.56662,315.64207 947.56662,311.83964   z "
     id="path852" />
  <path
     style="fill:#ffffff;fill-rule:evenodd;fill-opacity:1;stroke:none;"
     d="  M 1012.0879,279.77911   C 1012.0879,275.97668 1015.1699,272.8947 1018.9723,272.8947   L 1051.0329,272.8947   C 1054.8353,272.8947 1057.8772,275.97668 1057.8772,279.77911   L 1057.8772,311.83964   C 1057.8772,315.64207 1054.8353,318.68402 1051.0329,318.68402   L 1018.9723,318.68402   C 1015.1699,318.68402 1012.0879,315.64207 1012.0879,311.83964   z "
     id="path854" />
  <path
     style="fill:#ffffff;fill-rule:evenodd;fill-opacity:1;stroke:none;"
     d="  M 1063.4808,279.77911   C 1063.4808,275.97668 1066.5628,272.8947 1070.3652,272.8947   L 1102.4258,272.8947   C 1106.2282,272.8947 1109.2701,275.97668 1109.2701,279.77911   L 1109.2701,311.83964   C 1109.2701,315.64207 1106.2282,318.68402 1102.4258,318.68402   L 1070.3652,318.68402   C 1066.5628,318.68402 1063.4808,315.64207 1063.4808,311.83964   z "
     id="path856" />
  <path
     style="fill:#ffffff;fill-rule:evenodd;fill-opacity:1;stroke:none;"
     d="  M 1115.1939,279.73909   C 1115.1939,275.97668 1118.2759,272.8947 1122.0383,272.8947   L 1153.9788,272.8947   C 1157.7812,272.8947 1160.8231,275.97668 1160.8231,279.73909   L 1160.8231,311.83964   C 1160.8231,315.64207 1157.7812,318.68402 1153.9788,318.68402   L 1122.0383,318.68402   C 1118.2759,318.68402 1115.1939,315.64207 1115.1939,311.83964   z "
     id="path858" />
  <path
     style="fill:#ffffff;fill-rule:evenodd;fill-opacity:1;stroke:none;"
     d="  M 1166.4267,279.77911   C 1166.4267,275.97668 1169.5087,272.8947 1173.3111,272.8947   L 1205.3717,272.8947   C 1209.1741,272.8947 1212.216,275.97668 1212.216,279.77911   L 1212.216,311.83964   C 1212.216,315.64207 1209.1741,318.68402 1205.3717,318.68402   L 1173.3111,318.68402   C 1169.5087,318.68402 1166.4267,315.64207 1166.4267,311.83964   z "
     id="path860" />
  <path
     style="fill:#ffffff;fill-rule:evenodd;fill-opacity:1;stroke:none;"
     d="  M 58.99777,331.48221   C 58.99777,327.68978 62.079743,324.60781 65.872171,324.60781   L 122.73858,324.60781   C 126.531,324.60781 129.60297,327.68978 129.60297,331.48221   L 129.60297,363.53273   C 129.60297,367.32516 126.531,370.39712 122.73858,370.39712   L 65.872171,370.39712   C 62.079743,370.39712 58.99777,367.32516 58.99777,363.53273   z "
     id="path862" />
  <path
     style="fill:#ffffff;fill-rule:evenodd;fill-opacity:1;stroke:none;"
     d="  M 134.88635,331.48221   C 134.88635,327.68978 137.96833,324.60781 141.76075,324.60781   L 173.97137,324.60781   C 177.7638,324.60781 180.83577,327.68978 180.83577,331.48221   L 180.83577,363.53273   C 180.83577,367.32516 177.7638,370.39712 173.97137,370.39712   L 141.76075,370.39712   C 137.96833,370.39712 134.88635,367.32516 134.88635,363.53273   z "
     id="path864" />
  <path
     style="fill:#ffffff;fill-rule:evenodd;fill-opacity:1;stroke:none;"
     d="  M 186.43936,331.48221   C 186.43936,327.68978 189.52133,324.60781 193.31376,324.60781   L 225.36428,324.60781   C 229.1567,324.60781 232.22867,327.68978 232.22867,331.48221   L 232.22867,363.53273   C 232.22867,367.32516 229.1567,370.39712 225.36428,370.39712   L 193.31376,370.39712   C 189.52133,370.39712 186.43936,367.32516 186.43936,363.53273   z "
     id="path866" />
  <path
     style="fill:#ffffff;fill-rule:evenodd;fill-opacity:1;stroke:none;"
     d="  M 237.83226,331.48221   C 237.83226,327.68978 240.91423,324.60781 244.70666,324.60781   L 277.07738,324.60781   C 280.86981,324.60781 283.94178,327.68978 283.94178,331.48221   L 283.94178,363.53273   C 283.94178,367.32516 280.86981,370.39712 277.07738,370.39712   L 244.70666,370.39712   C 240.91423,370.39712 237.83226,367.32516 237.83226,363.53273   z "
     id="path868" />
  <path
     style="fill:#ffffff;fill-rule:evenodd;fill-opacity:1;stroke:none;"
     d="  M 289.54536,331.45219   C 289.54536,327.67978 292.61733,324.60781 296.38975,324.60781   L 328.33019,324.60781   C 332.11262,324.60781 335.17458,327.67978 335.17458,331.45219   L 335.17458,363.55274   C 335.17458,367.33516 332.11262,370.39712 328.33019,370.39712   L 296.38975,370.39712   C 292.61733,370.39712 289.54536,367.33516 289.54536,363.55274   z "
     id="path870" />
  <path
     style="fill:#ffffff;fill-rule:evenodd;fill-opacity:1;stroke:none;"
     d="  M 340.93827,331.49222   C 340.93827,327.68978 344.02024,324.60781 347.82267,324.60781   L 380.02329,324.60781   C 383.82572,324.60781 386.88768,327.68978 386.88768,331.49222   L 386.88768,363.53273   C 386.88768,367.33516 383.82572,370.39712 380.02329,370.39712   L 347.82267,370.39712   C 344.02024,370.39712 340.93827,367.33516 340.93827,363.53273   z "
     id="path872" />
  <path
     style="fill:#ffffff;fill-rule:evenodd;fill-opacity:1;stroke:none;"
     d="  M 392.49127,331.49222   C 392.49127,327.68978 395.57324,324.60781 399.37568,324.60781   L 431.41619,324.60781   C 435.21862,324.60781 438.28058,327.68978 438.28058,331.49222   L 438.28058,363.53273   C 438.28058,367.33516 435.21862,370.39712 431.41619,370.39712   L 399.37568,370.39712   C 395.57324,370.39712 392.49127,367.33516 392.49127,363.53273   z "
     id="path874" />
  <path
     style="fill:#ffffff;fill-rule:evenodd;fill-opacity:1;stroke:none;"
     d="  M 443.88417,331.49222   C 443.88417,327.68978 446.96614,324.60781 450.76858,324.60781   L 483.12929,324.60781   C 486.93173,324.60781 489.99369,327.68978 489.99369,331.49222   L 489.99369,363.53273   C 489.99369,367.33516 486.93173,370.39712 483.12929,370.39712   L 450.76858,370.39712   C 446.96614,370.39712 443.88417,367.33516 443.88417,363.53273   z "
     id="path876" />
  <path
     style="fill:#ffffff;fill-rule:evenodd;fill-opacity:1;stroke:none;"
     d="  M 495.59728,331.45219   C 495.59728,327.68978 498.67925,324.60781 502.44166,324.60781   L 534.38211,324.60781   C 538.16453,324.60781 541.22649,327.68978 541.22649,331.45219   L 541.22649,363.55274   C 541.22649,367.33516 538.16453,370.39712 534.38211,370.39712   L 502.44166,370.39712   C 498.67925,370.39712 495.59728,367.33516 495.59728,363.55274   z "
     id="path878" />
  <path
     style="fill:#ffffff;fill-rule:evenodd;fill-opacity:1;stroke:none;"
     d="  M 546.99018,331.45219   C 546.99018,327.68978 550.07215,324.60781 553.83456,324.60781   L 585.77501,324.60781   C 589.55743,324.60781 592.61939,327.68978 592.61939,331.45219   L 592.61939,363.55274   C 592.61939,367.33516 589.55743,370.39712 585.77501,370.39712   L 553.83456,370.39712   C 550.07215,370.39712 546.99018,367.33516 546.99018,363.55274   z "
     id="path880" />
  <path
     style="fill:#ffffff;fill-rule:evenodd;fill-opacity:1;stroke:none;"
     d="  M 598.54318,331.49222   C 598.54318,327.68978 601.62515,324.60781 605.42759,324.60781   L 637.4681,324.60781   C 641.27054,324.60781 644.3325,327.68978 644.3325,331.49222   L 644.3325,363.53273   C 644.3325,367.33516 641.27054,370.39712 637.4681,370.39712   L 605.42759,370.39712   C 601.62515,370.39712 598.54318,367.33516 598.54318,363.53273   z "
     id="path882" />
  <path
     style="fill:#ffffff;fill-rule:evenodd;fill-opacity:1;stroke:none;"
     d="  M 649.93608,331.49222   C 649.93608,327.68978 653.01806,324.60781 656.82049,324.60781   L 688.88101,324.60781   C 692.68345,324.60781 695.7254,327.68978 695.7254,331.49222   L 695.7254,363.55274   C 695.7254,367.35518 692.68345,370.39712 688.88101,370.39712   L 656.82049,370.39712   C 653.01806,370.39712 649.93608,367.35518 649.93608,363.55274   z "
     id="path884" />
  <path
     style="fill:#ffffff;fill-rule:evenodd;fill-opacity:1;stroke:none;"
     d="  M 701.64919,331.45219   C 701.64919,327.68978 704.73116,324.60781 708.49357,324.60781   L 740.43402,324.60781   C 744.23645,324.60781 747.2784,327.68978 747.2784,331.45219   L 747.2784,363.55274   C 747.2784,367.35518 744.23645,370.39712 740.43402,370.39712   L 708.49357,370.39712   C 704.73116,370.39712 701.64919,367.35518 701.64919,363.55274   z "
     id="path886" />
  <path
     style="fill:#ffffff;fill-rule:evenodd;fill-opacity:1;stroke:none;"
     d="  M 753.04209,331.49222   C 753.04209,327.68978 756.12406,324.60781 759.9265,324.60781   L 819.04434,324.60781   C 822.84678,324.60781 825.88873,327.68978 825.88873,331.49222   L 825.88873,363.55274   C 825.88873,367.35518 822.84678,370.39712 819.04434,370.39712   L 759.9265,370.39712   C 756.12406,370.39712 753.04209,367.35518 753.04209,363.55274   z "
     id="path888" />
  <path
     style="fill:#ffffff;fill-rule:evenodd;fill-opacity:1;stroke:none;"
     d="  M 844.46062,331.49222   C 844.46062,327.68978 847.54259,324.60781 851.34502,324.60781   L 883.40555,324.60781   C 887.20798,324.60781 890.24993,327.68978 890.24993,331.49222   L 890.24993,363.55274   C 890.24993,367.35518 887.20798,370.39712 883.40555,370.39712   L 851.34502,370.39712   C 847.54259,370.39712 844.46062,367.35518 844.46062,363.55274   z "
     id="path890" />
  <path
     style="fill:#ffffff;fill-rule:evenodd;fill-opacity:1;stroke:none;"
     d="  M 896.17372,331.45219   C 896.17372,327.68978 899.25569,324.60781 903.0181,324.60781   L 934.95855,324.60781   C 938.76099,324.60781 941.80293,327.68978 941.80293,331.45219   L 941.80293,363.55274   C 941.80293,367.35518 938.76099,370.39712 934.95855,370.39712   L 903.0181,370.39712   C 899.25569,370.39712 896.17372,367.35518 896.17372,363.55274   z "
     id="path892" />
  <path
     style="fill:#ffffff;fill-rule:evenodd;fill-opacity:1;stroke:none;"
     d="  M 947.56662,331.45219   C 947.56662,327.68978 950.6486,324.60781 954.411,324.60781   L 986.35145,324.60781   C 990.15389,324.60781 993.19583,327.68978 993.19583,331.45219   L 993.19583,363.55274   C 993.19583,367.35518 990.15389,370.39712 986.35145,370.39712   L 954.411,370.39712   C 950.6486,370.39712 947.56662,367.35518 947.56662,363.55274   z "
     id="path894" />
  <path
     style="fill:#ffffff;fill-rule:evenodd;fill-opacity:1;stroke:none;"
     d="  M 1012.0879,331.49222   C 1012.0879,327.68978 1015.1699,324.60781 1018.9723,324.60781   L 1051.0329,324.60781   C 1054.8353,324.60781 1057.8772,327.68978 1057.8772,331.49222   L 1057.8772,363.55274   C 1057.8772,367.35518 1054.8353,370.39712 1051.0329,370.39712   L 1018.9723,370.39712   C 1015.1699,370.39712 1012.0879,367.35518 1012.0879,363.55274   z "
     id="path896" />
  <path
     style="fill:#ffffff;fill-rule:evenodd;fill-opacity:1;stroke:none;"
     d="  M 1063.4808,331.49222   C 1063.4808,327.68978 1066.5628,324.60781 1070.3652,324.60781   L 1102.4258,324.60781   C 1106.2282,324.60781 1109.2701,327.68978 1109.2701,331.49222   L 1109.2701,363.55274   C 1109.2701,367.35518 1106.2282,370.39712 1102.4258,370.39712   L 1070.3652,370.39712   C 1066.5628,370.39712 1063.4808,367.35518 1063.4808,363.55274   z "
     id="path898" />
  <path
     style="fill:#ffffff;fill-rule:evenodd;fill-opacity:1;stroke:none;"
     d="  M 1115.1939,331.45219   C 1115.1939,327.68978 1118.2759,324.60781 1122.0383,324.60781   L 1153.9788,324.60781   C 1157.7812,324.60781 1160.8231,327.68978 1160.8231,331.45219   L 1160.8231,363.55274   C 1160.8231,367.35518 1157.7812,370.39712 1153.9788,370.39712   L 1122.0383,370.39712   C 1118.2759,370.39712 1115.1939,367.35518 1115.1939,363.55274   z "
     id="path900" />
  <path
     style="fill:#ffffff;fill-rule:evenodd;fill-opacity:1;stroke:none;"
     d="  M 58.99777,382.87511   C 58.99777,379.08268 62.079743,376.00071 65.872171,376.00071   L 136.50739,376.00071   C 140.29982,376.00071 143.37179,379.08268 143.37179,382.87511   L 143.37179,414.92563   C 143.37179,418.71806 140.29982,421.79003 136.50739,421.79003   L 65.872171,421.79003   C 62.079743,421.79003 58.99777,418.71806 58.99777,414.92563   z "
     id="path902" />
  <path
     style="fill:#ffffff;fill-rule:evenodd;fill-opacity:1;stroke:none;"
     d="  M 149.29558,382.87511   C 149.29558,379.08268 152.37755,376.00071 156.16998,376.00071   L 188.3806,376.00071   C 192.17303,376.00071 195.24499,379.08268 195.24499,382.87511   L 195.24499,414.92563   C 195.24499,418.71806 192.17303,421.79003 188.3806,421.79003   L 156.16998,421.79003   C 152.37755,421.79003 149.29558,418.71806 149.29558,414.92563   z "
     id="path904" />
  <path
     style="fill:#ffffff;fill-rule:evenodd;fill-opacity:1;stroke:none;"
     d="  M 200.84858,382.87511   C 200.84858,379.08268 203.93055,376.00071 207.72298,376.00071   L 239.7735,376.00071   C 243.56593,376.00071 246.6379,379.08268 246.6379,382.87511   L 246.6379,414.92563   C 246.6379,418.71806 243.56593,421.79003 239.7735,421.79003   L 207.72298,421.79003   C 203.93055,421.79003 200.84858,418.71806 200.84858,414.92563   z "
     id="path906" />
  <path
     style="fill:#ffffff;fill-rule:evenodd;fill-opacity:1;stroke:none;"
     d="  M 252.24148,382.87511   C 252.24148,379.08268 255.32346,376.00071 259.11588,376.00071   L 291.48661,376.00071   C 295.27903,376.00071 298.351,379.08268 298.351,382.87511   L 298.351,414.92563   C 298.351,418.71806 295.27903,421.79003 291.48661,421.79003   L 259.11588,421.79003   C 255.32346,421.79003 252.24148,418.71806 252.24148,414.92563   z "
     id="path908" />
  <path
     style="fill:#ffffff;fill-rule:evenodd;fill-opacity:1;stroke:none;"
     d="  M 303.95459,382.84509   C 303.95459,379.07268 307.02656,376.00071 310.79897,376.00071   L 342.73942,376.00071   C 346.52184,376.00071 349.5838,379.07268 349.5838,382.84509   L 349.5838,414.94564   C 349.5838,418.72807 346.52184,421.79003 342.73942,421.79003   L 310.79897,421.79003   C 307.02656,421.79003 303.95459,418.72807 303.95459,414.94564   z "
     id="path910" />
  <path
     style="fill:#ffffff;fill-rule:evenodd;fill-opacity:1;stroke:none;"
     d="  M 355.34749,382.88512   C 355.34749,379.08268 358.42946,376.00071 362.2319,376.00071   L 394.43251,376.00071   C 398.23495,376.00071 401.29691,379.08268 401.29691,382.88512   L 401.29691,414.92563   C 401.29691,418.72807 398.23495,421.79003 394.43251,421.79003   L 362.2319,421.79003   C 358.42946,421.79003 355.34749,418.72807 355.34749,414.92563   z "
     id="path912" />
  <path
     style="fill:#ffffff;fill-rule:evenodd;fill-opacity:1;stroke:none;"
     d="  M 406.90049,382.88512   C 406.90049,379.08268 409.98247,376.00071 413.7849,376.00071   L 445.82541,376.00071   C 449.62785,376.00071 452.68981,379.08268 452.68981,382.88512   L 452.68981,414.92563   C 452.68981,418.72807 449.62785,421.79003 445.82541,421.79003   L 413.7849,421.79003   C 409.98247,421.79003 406.90049,418.72807 406.90049,414.92563   z "
     id="path914" />
  <path
     style="fill:#ffffff;fill-rule:evenodd;fill-opacity:1;stroke:none;"
     d="  M 458.29339,382.88512   C 458.29339,379.08268 461.37537,376.00071 465.1778,376.00071   L 497.37842,376.00071   C 501.18085,376.00071 504.24281,379.08268 504.24281,382.88512   L 504.24281,414.92563   C 504.24281,418.72807 501.18085,421.79003 497.37842,421.79003   L 465.1778,421.79003   C 461.37537,421.79003 458.29339,418.72807 458.29339,414.92563   z "
     id="path916" />
  <path
     style="fill:#ffffff;fill-rule:evenodd;fill-opacity:1;stroke:none;"
     d="  M 510.0065,382.84509   C 510.0065,379.08268 513.08847,376.00071 516.85088,376.00071   L 548.79133,376.00071   C 552.57375,376.00071 555.63571,379.08268 555.63571,382.84509   L 555.63571,414.94564   C 555.63571,418.72807 552.57375,421.79003 548.79133,421.79003   L 516.85088,421.79003   C 513.08847,421.79003 510.0065,418.72807 510.0065,414.94564   z "
     id="path918" />
  <path
     style="fill:#ffffff;fill-rule:evenodd;fill-opacity:1;stroke:none;"
     d="  M 561.3994,382.84509   C 561.3994,379.08268 564.48138,376.00071 568.24378,376.00071   L 600.18423,376.00071   C 603.96665,376.00071 607.02861,379.08268 607.02861,382.84509   L 607.02861,414.94564   C 607.02861,418.72807 603.96665,421.79003 600.18423,421.79003   L 568.24378,421.79003   C 564.48138,421.79003 561.3994,418.72807 561.3994,414.94564   z "
     id="path920" />
  <path
     style="fill:#ffffff;fill-rule:evenodd;fill-opacity:1;stroke:none;"
     d="  M 612.95241,382.88512   C 612.95241,379.08268 616.03438,376.00071 619.83681,376.00071   L 651.87733,376.00071   C 655.67976,376.00071 658.74172,379.08268 658.74172,382.88512   L 658.74172,414.92563   C 658.74172,418.72807 655.67976,421.79003 651.87733,421.79003   L 619.83681,421.79003   C 616.03438,421.79003 612.95241,418.72807 612.95241,414.92563   z "
     id="path922" />
  <path
     style="fill:#ffffff;fill-rule:evenodd;fill-opacity:1;stroke:none;"
     d="  M 664.34531,382.88512   C 664.34531,379.08268 667.42728,376.00071 671.22971,376.00071   L 703.29024,376.00071   C 707.09267,376.00071 710.13462,379.08268 710.13462,382.88512   L 710.13462,414.94564   C 710.13462,418.74808 707.09267,421.79003 703.29024,421.79003   L 671.22971,421.79003   C 667.42728,421.79003 664.34531,418.74808 664.34531,414.94564   z "
     id="path924" />
  <path
     style="fill:#ffffff;fill-rule:evenodd;fill-opacity:1;stroke:none;"
     d="  M 715.89831,382.88512   C 715.89831,379.08268 718.98028,376.00071 722.78272,376.00071   L 819.04434,376.00071   C 822.84678,376.00071 825.88873,379.08268 825.88873,382.88512   L 825.88873,414.94564   C 825.88873,418.74808 822.84678,421.79003 819.04434,421.79003   L 722.78272,421.79003   C 718.98028,421.79003 715.89831,418.74808 715.89831,414.94564   z "
     id="path926" />
  <path
     style="fill:#ffffff;fill-rule:evenodd;fill-opacity:1;stroke:none;"
     d="  M 1012.0879,382.88512   C 1012.0879,379.08268 1015.1699,376.00071 1018.9723,376.00071   L 1051.0329,376.00071   C 1054.8353,376.00071 1057.8772,379.08268 1057.8772,382.88512   L 1057.8772,414.94564   C 1057.8772,418.74808 1054.8353,421.79003 1051.0329,421.79003   L 1018.9723,421.79003   C 1015.1699,421.79003 1012.0879,418.74808 1012.0879,414.94564   z "
     id="path928" />
  <path
     style="fill:#ffffff;fill-rule:evenodd;fill-opacity:1;stroke:none;"
     d="  M 1063.4808,382.88512   C 1063.4808,379.08268 1066.5628,376.00071 1070.3652,376.00071   L 1102.4258,376.00071   C 1106.2282,376.00071 1109.2701,379.08268 1109.2701,382.88512   L 1109.2701,414.94564   C 1109.2701,418.74808 1106.2282,421.79003 1102.4258,421.79003   L 1070.3652,421.79003   C 1066.5628,421.79003 1063.4808,418.74808 1063.4808,414.94564   z "
     id="path930" />
  <path
     style="fill:#ffffff;fill-rule:evenodd;fill-opacity:1;stroke:none;"
     d="  M 1115.1939,382.84509   C 1115.1939,379.08268 1118.2759,376.00071 1122.0383,376.00071   L 1153.9788,376.00071   C 1157.7812,376.00071 1160.8231,379.08268 1160.8231,382.84509   L 1160.8231,414.94564   C 1160.8231,418.74808 1157.7812,421.79003 1153.9788,421.79003   L 1122.0383,421.79003   C 1118.2759,421.79003 1115.1939,418.74808 1115.1939,414.94564   z "
     id="path932" />
  <path
     style="fill:#ffffff;fill-rule:evenodd;fill-opacity:1;stroke:none;"
     d="  M 1166.4267,331.81242   C 1166.4267,328.00999 1169.5087,324.92802 1173.3111,324.92802   L 1205.3717,324.92802   C 1209.1741,324.92802 1212.216,328.00999 1212.216,331.81242   L 1212.216,414.94564   C 1212.216,418.74808 1209.1741,421.79003 1205.3717,421.79003   L 1173.3111,421.79003   C 1169.5087,421.79003 1166.4267,418.74808 1166.4267,414.94564   z "
     id="path934" />
  <path
     style="fill:#ffffff;fill-rule:evenodd;fill-opacity:1;stroke:none;"
     d="  M 58.99777,434.58822   C 58.99777,430.79579 62.079743,427.71382 65.872171,427.71382   L 162.28389,427.71382   C 166.07632,427.71382 169.14829,430.79579 169.14829,434.58822   L 169.14829,466.63874   C 169.14829,470.43117 166.07632,473.50313 162.28389,473.50313   L 65.872171,473.50313   C 62.079743,473.50313 58.99777,470.43117 58.99777,466.63874   z "
     id="path936" />
  <path
     style="fill:#ffffff;fill-rule:evenodd;fill-opacity:1;stroke:none;"
     d="  M 174.91198,434.58822   C 174.91198,430.79579 177.99395,427.71382 181.78638,427.71382   L 213.8369,427.71382   C 217.62932,427.71382 220.70129,430.79579 220.70129,434.58822   L 220.70129,466.63874   C 220.70129,470.43117 217.62932,473.50313 213.8369,473.50313   L 181.78638,473.50313   C 177.99395,473.50313 174.91198,470.43117 174.91198,466.63874   z "
     id="path938" />
  <path
     style="fill:#ffffff;fill-rule:evenodd;fill-opacity:1;stroke:none;"
     d="  M 226.30488,434.58822   C 226.30488,430.79579 229.38685,427.71382 233.17928,427.71382   L 265.55,427.71382   C 269.34243,427.71382 272.4144,430.79579 272.4144,434.58822   L 272.4144,466.63874   C 272.4144,470.43117 269.34243,473.50313 265.55,473.50313   L 233.17928,473.50313   C 229.38685,473.50313 226.30488,470.43117 226.30488,466.63874   z "
     id="path940" />
  <path
     style="fill:#ffffff;fill-rule:evenodd;fill-opacity:1;stroke:none;"
     d="  M 278.01798,434.5582   C 278.01798,430.78578 281.08995,427.71382 284.86237,427.71382   L 316.80281,427.71382   C 320.58524,427.71382 323.6472,430.78578 323.6472,434.5582   L 323.6472,466.65875   C 323.6472,470.44117 320.58524,473.50313 316.80281,473.50313   L 284.86237,473.50313   C 281.08995,473.50313 278.01798,470.44117 278.01798,466.65875   z "
     id="path942" />
  <path
     style="fill:#ffffff;fill-rule:evenodd;fill-opacity:1;stroke:none;"
     d="  M 329.41089,434.59823   C 329.41089,430.79579 332.49286,427.71382 336.29529,427.71382   L 368.49591,427.71382   C 372.29834,427.71382 375.3603,430.79579 375.3603,434.59823   L 375.3603,466.63874   C 375.3603,470.44117 372.29834,473.50313 368.49591,473.50313   L 336.29529,473.50313   C 332.49286,473.50313 329.41089,470.44117 329.41089,466.63874   z "
     id="path944" />
  <path
     style="fill:#ffffff;fill-rule:evenodd;fill-opacity:1;stroke:none;"
     d="  M 380.96389,434.59823   C 380.96389,430.79579 384.04586,427.71382 387.8483,427.71382   L 419.88881,427.71382   C 423.69124,427.71382 426.7532,430.79579 426.7532,434.59823   L 426.7532,466.63874   C 426.7532,470.44117 423.69124,473.50313 419.88881,473.50313   L 387.8483,473.50313   C 384.04586,473.50313 380.96389,470.44117 380.96389,466.63874   z "
     id="path946" />
  <path
     style="fill:#ffffff;fill-rule:evenodd;fill-opacity:1;stroke:none;"
     d="  M 432.35679,434.59823   C 432.35679,430.79579 435.43876,427.71382 439.2412,427.71382   L 471.60191,427.71382   C 475.40435,427.71382 478.46631,430.79579 478.46631,434.59823   L 478.46631,466.63874   C 478.46631,470.44117 475.40435,473.50313 471.60191,473.50313   L 439.2412,473.50313   C 435.43876,473.50313 432.35679,470.44117 432.35679,466.63874   z "
     id="path948" />
  <path
     style="fill:#ffffff;fill-rule:evenodd;fill-opacity:1;stroke:none;"
     d="  M 484.0699,434.5582   C 484.0699,430.79579 487.15187,427.71382 490.91428,427.71382   L 522.85473,427.71382   C 526.63715,427.71382 529.69911,430.79579 529.69911,434.5582   L 529.69911,466.65875   C 529.69911,470.44117 526.63715,473.50313 522.85473,473.50313   L 490.91428,473.50313   C 487.15187,473.50313 484.0699,470.44117 484.0699,466.65875   z "
     id="path950" />
  <path
     style="fill:#ffffff;fill-rule:evenodd;fill-opacity:1;stroke:none;"
     d="  M 535.4628,434.5582   C 535.4628,430.79579 538.54477,427.71382 542.30718,427.71382   L 574.24763,427.71382   C 578.03005,427.71382 581.09201,430.79579 581.09201,434.5582   L 581.09201,466.65875   C 581.09201,470.44117 578.03005,473.50313 574.24763,473.50313   L 542.30718,473.50313   C 538.54477,473.50313 535.4628,470.44117 535.4628,466.65875   z "
     id="path952" />
  <path
     style="fill:#ffffff;fill-rule:evenodd;fill-opacity:1;stroke:none;"
     d="  M 587.0158,434.59823   C 587.0158,430.79579 590.09777,427.71382 593.90021,427.71382   L 625.94072,427.71382   C 629.74316,427.71382 632.80512,430.79579 632.80512,434.59823   L 632.80512,466.63874   C 632.80512,470.44117 629.74316,473.50313 625.94072,473.50313   L 593.90021,473.50313   C 590.09777,473.50313 587.0158,470.44117 587.0158,466.63874   z "
     id="path954" />
  <path
     style="fill:#ffffff;fill-rule:evenodd;fill-opacity:1;stroke:none;"
     d="  M 638.4087,434.59823   C 638.4087,430.79579 641.49068,427.71382 645.29311,427.71382   L 677.33362,427.71382   C 681.13606,427.71382 684.19802,430.79579 684.19802,434.59823   L 684.19802,466.63874   C 684.19802,470.44117 681.13606,473.50313 677.33362,473.50313   L 645.29311,473.50313   C 641.49068,473.50313 638.4087,470.44117 638.4087,466.63874   z "
     id="path956" />
  <path
     style="fill:#ffffff;fill-rule:evenodd;fill-opacity:1;stroke:none;"
     d="  M 689.4814,434.59823   C 689.4814,430.79579 692.56337,427.71382 696.36581,427.71382   L 819.04434,427.71382   C 822.84678,427.71382 825.88873,430.79579 825.88873,434.59823   L 825.88873,466.65875   C 825.88873,470.46118 822.84678,473.50313 819.04434,473.50313   L 696.36581,473.50313   C 692.56337,473.50313 689.4814,470.46118 689.4814,466.65875   z "
     id="path958" />
  <path
     style="fill:#ffffff;fill-rule:evenodd;fill-opacity:1;stroke:none;"
     d="  M 896.17372,434.5582   C 896.17372,430.79579 899.25569,427.71382 903.0181,427.71382   L 934.95855,427.71382   C 938.76099,427.71382 941.80293,430.79579 941.80293,434.5582   L 941.80293,466.65875   C 941.80293,470.46118 938.76099,473.50313 934.95855,473.50313   L 903.0181,473.50313   C 899.25569,473.50313 896.17372,470.46118 896.17372,466.65875   z "
     id="path960" />
  <path
     style="fill:#ffffff;fill-rule:evenodd;fill-opacity:1;stroke:none;"
     d="  M 1012.0879,434.59823   C 1012.0879,430.79579 1015.1699,427.71382 1018.9723,427.71382   L 1051.0329,427.71382   C 1054.8353,427.71382 1057.8772,430.79579 1057.8772,434.59823   L 1057.8772,466.65875   C 1057.8772,470.46118 1054.8353,473.50313 1051.0329,473.50313   L 1018.9723,473.50313   C 1015.1699,473.50313 1012.0879,470.46118 1012.0879,466.65875   z "
     id="path962" />
  <path
     style="fill:#ffffff;fill-rule:evenodd;fill-opacity:1;stroke:none;"
     d="  M 1063.4808,434.59823   C 1063.4808,430.79579 1066.5628,427.71382 1070.3652,427.71382   L 1102.4258,427.71382   C 1106.2282,427.71382 1109.2701,430.79579 1109.2701,434.59823   L 1109.2701,466.65875   C 1109.2701,470.46118 1106.2282,473.50313 1102.4258,473.50313   L 1070.3652,473.50313   C 1066.5628,473.50313 1063.4808,470.46118 1063.4808,466.65875   z "
     id="path964" />
  <path
     style="fill:#ffffff;fill-rule:evenodd;fill-opacity:1;stroke:none;"
     d="  M 1115.1939,434.5582   C 1115.1939,430.79579 1118.2759,427.71382 1122.0383,427.71382   L 1153.9788,427.71382   C 1157.7812,427.71382 1160.8231,430.79579 1160.8231,434.5582   L 1160.8231,466.65875   C 1160.8231,470.46118 1157.7812,473.50313 1153.9788,473.50313   L 1122.0383,473.50313   C 1118.2759,473.50313 1115.1939,470.46118 1115.1939,466.65875   z "
     id="path966" />
  <path
     style="fill:#ffffff;fill-rule:evenodd;fill-opacity:1;stroke:none;"
     d="  M 58.99777,485.99113   C 58.99777,482.18869 62.079743,479.10672 65.882177,479.10672   L 109.77027,479.10672   C 113.57271,479.10672 116.63467,482.18869 116.63467,485.99113   L 116.63467,518.03164   C 116.63467,521.83407 113.57271,524.89603 109.77027,524.89603   L 65.882177,524.89603   C 62.079743,524.89603 58.99777,521.83407 58.99777,518.03164   z "
     id="path968" />
  <path
     style="fill:#ffffff;fill-rule:evenodd;fill-opacity:1;stroke:none;"
     d="  M 844.46062,485.99113   C 844.46062,482.18869 847.54259,479.10672 851.34502,479.10672   L 883.40555,479.10672   C 887.20798,479.10672 890.24993,482.18869 890.24993,485.99113   L 890.24993,518.05165   C 890.24993,521.85409 887.20798,524.89603 883.40555,524.89603   L 851.34502,524.89603   C 847.54259,524.89603 844.46062,521.85409 844.46062,518.05165   z "
     id="path970" />
  <path
     style="fill:#ffffff;fill-rule:evenodd;fill-opacity:1;stroke:none;"
     d="  M 896.17372,485.9511   C 896.17372,482.18869 899.25569,479.10672 903.0181,479.10672   L 934.95855,479.10672   C 938.76099,479.10672 941.80293,482.18869 941.80293,485.9511   L 941.80293,518.05165   C 941.80293,521.85409 938.76099,524.89603 934.95855,524.89603   L 903.0181,524.89603   C 899.25569,524.89603 896.17372,521.85409 896.17372,518.05165   z "
     id="path972" />
  <path
     style="fill:#ffffff;fill-rule:evenodd;fill-opacity:1;stroke:none;"
     d="  M 947.56662,485.9511   C 947.56662,482.18869 950.6486,479.10672 954.411,479.10672   L 986.35145,479.10672   C 990.15389,479.10672 993.19583,482.18869 993.19583,485.9511   L 993.19583,518.05165   C 993.19583,521.85409 990.15389,524.89603 986.35145,524.89603   L 954.411,524.89603   C 950.6486,524.89603 947.56662,521.85409 947.56662,518.05165   z "
     id="path974" />
  <path
     style="fill:#ffffff;fill-rule:evenodd;fill-opacity:1;stroke:none;"
     d="  M 1012.0879,485.99113   C 1012.0879,482.18869 1015.1699,479.10672 1018.9723,479.10672   L 1102.4258,479.10672   C 1106.2282,479.10672 1109.2701,482.18869 1109.2701,485.99113   L 1109.2701,518.05165   C 1109.2701,521.85409 1106.2282,524.89603 1102.4258,524.89603   L 1018.9723,524.89603   C 1015.1699,524.89603 1012.0879,521.85409 1012.0879,518.05165   z "
     id="path976" />
  <path
     style="fill:#ffffff;fill-rule:evenodd;fill-opacity:1;stroke:none;"
     d="  M 1115.1939,485.9511   C 1115.1939,482.18869 1118.2759,479.10672 1122.0383,479.10672   L 1153.9788,479.10672   C 1157.7812,479.10672 1160.8231,482.18869 1160.8231,485.9511   L 1160.8231,518.05165   C 1160.8231,521.85409 1157.7812,524.89603 1153.9788,524.89603   L 1122.0383,524.89603   C 1118.2759,524.89603 1115.1939,521.85409 1115.1939,518.05165   z "
     id="path978" />
  <path
     style="fill:#ffffff;fill-rule:evenodd;fill-opacity:1;stroke:none;"
     d="  M 1166.4267,434.27802   C 1166.4267,430.47559 1169.5087,427.39361 1173.3111,427.39361   L 1205.3717,427.39361   C 1209.1741,427.39361 1212.216,430.47559 1212.216,434.27802   L 1212.216,518.05165   C 1212.216,521.85409 1209.1741,524.89603 1205.3717,524.89603   L 1173.3111,524.89603   C 1169.5087,524.89603 1166.4267,521.85409 1166.4267,518.05165   z "
     id="path980" />
  <path
     style="fill:#ffffff;fill-rule:evenodd;fill-opacity:1;stroke:none;"
     d="  M 122.71856,485.99113   C 122.71856,482.18869 125.80054,479.10672 129.60297,479.10672   L 173.65117,479.10672   C 177.4536,479.10672 180.51556,482.18869 180.51556,485.99113   L 180.51556,518.03164   C 180.51556,521.83407 177.4536,524.89603 173.65117,524.89603   L 129.60297,524.89603   C 125.80054,524.89603 122.71856,521.83407 122.71856,518.03164   z "
     id="path982" />
  <path
     style="fill:#ffffff;fill-rule:evenodd;fill-opacity:1;stroke:none;"
     d="  M 186.27925,485.99113   C 186.27925,482.18869 189.36123,479.10672 193.16366,479.10672   L 237.37196,479.10672   C 241.1744,479.10672 244.23636,482.18869 244.23636,485.99113   L 244.23636,518.03164   C 244.23636,521.83407 241.1744,524.89603 237.37196,524.89603   L 193.16366,524.89603   C 189.36123,524.89603 186.27925,521.83407 186.27925,518.03164   z "
     id="path984" />
  <path
     style="fill:#ffffff;fill-rule:evenodd;fill-opacity:1;stroke:none;"
     d="  M 250.00005,485.99113   C 250.00005,482.18869 253.08202,479.10672 256.88445,479.10672   L 561.41942,479.10672   C 565.22185,479.10672 568.28381,482.18869 568.28381,485.99113   L 568.28381,518.03164   C 568.28381,521.83407 565.22185,524.89603 561.41942,524.89603   L 256.88445,524.89603   C 253.08202,524.89603 250.00005,521.83407 250.00005,518.03164   z "
     id="path986" />
  <path
     style="fill:#ffffff;fill-rule:evenodd;fill-opacity:1;stroke:none;"
     d="  M 573.8874,485.99113   C 573.8874,482.18869 576.96937,479.10672 580.7718,479.10672   L 624.6599,479.10672   C 628.46234,479.10672 631.5243,482.18869 631.5243,485.99113   L 631.5243,518.03164   C 631.5243,521.83407 628.46234,524.89603 624.6599,524.89603   L 580.7718,524.89603   C 576.96937,524.89603 573.8874,521.83407 573.8874,518.03164   z "
     id="path988" />
  <path
     style="fill:#ffffff;fill-rule:evenodd;fill-opacity:1;stroke:none;"
     d="  M 639.04911,485.99113   C 639.04911,482.18869 642.13109,479.10672 645.93352,479.10672   L 689.84163,479.10672   C 693.64406,479.10672 696.68601,482.18869 696.68601,485.99113   L 696.68601,518.05165   C 696.68601,521.85409 693.64406,524.89603 689.84163,524.89603   L 645.93352,524.89603   C 642.13109,524.89603 639.04911,521.85409 639.04911,518.05165   z "
     id="path990" />
  <path
     style="fill:#ffffff;fill-rule:evenodd;fill-opacity:1;stroke:none;"
     d="  M 703.73052,485.99113   C 703.73052,482.18869 706.81249,479.10672 710.61493,479.10672   L 755.00335,479.10672   C 758.80578,479.10672 761.84773,482.18869 761.84773,485.99113   L 761.84773,518.05165   C 761.84773,521.85409 758.80578,524.89603 755.00335,524.89603   L 710.61493,524.89603   C 706.81249,524.89603 703.73052,521.85409 703.73052,518.05165   z "
     id="path992" />
  <path
     style="fill:#ffffff;fill-rule:evenodd;fill-opacity:1;stroke:none;"
     d="  M 768.89224,485.99113   C 768.89224,482.18869 771.97421,479.10672 775.77664,479.10672   L 820.32516,479.10672   C 824.1276,479.10672 827.16955,482.18869 827.16955,485.99113   L 827.16955,518.05165   C 827.16955,521.85409 824.1276,524.89603 820.32516,524.89603   L 775.77664,524.89603   C 771.97421,524.89603 768.89224,521.85409 768.89224,518.05165   z "
     id="path994" />
</svg>
