<?xml version="1.0" encoding="UTF-8" standalone="no"?>
<svg
   version="1.0"
   width="338.89001mm"
   height="190.57001mm"
   id="svg1158"
   sodipodi:docname="33.svg"
   inkscape:version="1.2.1 (9c6d41e410, 2022-07-14)"
   xmlns:inkscape="http://www.inkscape.org/namespaces/inkscape"
   xmlns:sodipodi="http://sodipodi.sourceforge.net/DTD/sodipodi-0.dtd"
   xmlns="http://www.w3.org/2000/svg"
   xmlns:svg="http://www.w3.org/2000/svg">
  <sodipodi:namedview
     id="namedview1160"
     pagecolor="#505050"
     bordercolor="#eeeeee"
     borderopacity="1"
     inkscape:showpageshadow="0"
     inkscape:pageopacity="0"
     inkscape:pagecheckerboard="0"
     inkscape:deskcolor="#505050"
     inkscape:document-units="mm"
     showgrid="false"
     inkscape:zoom="0.80109329"
     inkscape:cx="700.29297"
     inkscape:cy="374.48822"
     inkscape:window-width="1800"
     inkscape:window-height="1108"
     inkscape:window-x="-12"
     inkscape:window-y="-12"
     inkscape:window-maximized="1"
     inkscape:current-layer="svg1158" />
  <defs
     id="defs1132">
    <pattern
       id="EMFhbasepattern"
       patternUnits="userSpaceOnUse"
       width="6"
       height="6"
       x="0"
       y="0" />
  </defs>
  <path
     style="fill:#550000;fill-opacity:1;fill-rule:evenodd;stroke:none"
     d="m 249.35964,251.8012 c 0,-6.80436 5.61873,-12.36792 12.36792,-12.36792 h 757.56494 c 6.8044,0 12.3279,5.56356 12.3279,12.36792 v 217.21906 c 0,6.80436 -5.5235,12.32789 -12.3279,12.32789 H 261.72756 c -6.80436,0 -12.36792,-5.52353 -12.36792,-12.32789 z"
     id="path1136"
     sodipodi:nodetypes="sssssssss" />
  <path
     style="fill:#ffffff;fill-rule:evenodd;fill-opacity:1;stroke:none;"
     d="  M 336.13519,271.0135   C 336.13519,266.57066 339.7375,262.96835 344.18034,262.96835   L 381.72438,262.96835   C 386.17723,262.96835 389.76953,266.57066 389.76953,271.0135   L 389.76953,308.55754   C 389.76953,313.01039 386.17723,316.60269 381.72438,316.60269   L 344.18034,316.60269   C 339.7375,316.60269 336.13519,313.01039 336.13519,308.55754   z "
     id="path1138" />
  <path
     style="fill:#ffffff;fill-rule:evenodd;fill-opacity:1;stroke:none;"
     d="  M 405.29947,271.0135   C 405.29947,266.57066 408.90177,262.96835 413.34462,262.96835   L 450.88865,262.96835   C 455.34151,262.96835 458.9338,266.57066 458.9338,271.0135   L 458.9338,308.55754   C 458.9338,313.01039 455.34151,316.60269 450.88865,316.60269   L 413.34462,316.60269   C 408.90177,316.60269 405.29947,313.01039 405.29947,308.55754   z "
     id="path1140" />
  <path
     style="fill:#ffffff;fill-rule:evenodd;fill-opacity:1;stroke:none;"
     d="  M 266.97091,305.59564   C 266.97091,301.1528 270.57322,297.55049 275.01606,297.55049   L 312.5601,297.55049   C 317.01295,297.55049 320.60525,301.1528 320.60525,305.59564   L 320.60525,343.13967   C 320.60525,347.59253 317.01295,351.18483 312.5601,351.18483   L 275.01606,351.18483   C 270.57322,351.18483 266.97091,347.59253 266.97091,343.13967   z "
     id="path1142" />
  <path
     style="fill:#ffffff;fill-rule:evenodd;fill-opacity:1;stroke:none;"
     d="  M 474.46375,305.59564   C 474.46375,301.1528 478.06605,297.55049 482.5089,297.55049   L 520.05293,297.55049   C 524.50578,297.55049 528.09808,301.1528 528.09808,305.59564   L 528.09808,343.13967   C 528.09808,347.59253 524.50578,351.18483 520.05293,351.18483   L 482.5089,351.18483   C 478.06605,351.18483 474.46375,347.59253 474.46375,343.13967   z "
     id="path1144" />
  <path
     style="fill:#ffffff;fill-rule:evenodd;fill-opacity:1;stroke:none;"
     d="  M 543.62803,409.16194   C 543.62803,404.73911 547.23033,401.1368 551.65316,401.1368   L 589.25724,401.1368   C 593.68007,401.1368 597.26236,404.73911 597.26236,409.16194   L 597.26236,446.60591   C 597.26236,451.02874 593.68007,454.61104 589.25724,454.61104   L 551.65316,454.61104   C 547.23033,454.61104 543.62803,451.02874 543.62803,446.60591   z "
     id="path1146" />
  <path
     style="fill:#ffffff;fill-rule:evenodd;fill-opacity:1;stroke:none;"
     d="  M 681.95658,409.16194   C 681.95658,404.73911 685.55889,401.1368 689.98172,401.1368   L 727.58579,401.1368   C 732.00862,401.1368 735.59092,404.73911 735.59092,409.16194   L 735.59092,446.60591   C 735.59092,451.02874 732.00862,454.61104 727.58579,454.61104   L 689.98172,454.61104   C 685.55889,454.61104 681.95658,451.02874 681.95658,446.60591   z "
     id="path1148" />
  <path
     style="fill:#ffffff;fill-rule:evenodd;fill-opacity:1;stroke:none;"
     d="  M 751.12086,305.59564   C 751.12086,301.1528 754.72317,297.55049 759.16601,297.55049   L 796.71005,297.55049   C 801.15289,297.55049 804.7552,301.1528 804.7552,305.59564   L 804.7552,343.13967   C 804.7552,347.58252 801.15289,351.18483 796.71005,351.18483   L 759.16601,351.18483   C 754.72317,351.18483 751.12086,347.58252 751.12086,343.13967   z "
     id="path1150" />
  <path
     style="fill:#ffffff;fill-rule:evenodd;fill-opacity:1;stroke:none;"
     d="  M 820.28514,271.0135   C 820.28514,266.57066 823.88744,262.96835 828.33029,262.96835   L 865.87432,262.96835   C 870.31717,262.96835 873.91947,266.57066 873.91947,271.0135   L 873.91947,308.55754   C 873.91947,313.00038 870.31717,316.60269 865.87432,316.60269   L 828.33029,316.60269   C 823.88744,316.60269 820.28514,313.00038 820.28514,308.55754   z "
     id="path1152" />
  <path
     style="fill:#ffffff;fill-rule:evenodd;fill-opacity:1;stroke:none;"
     d="  M 889.44942,271.0135   C 889.44942,266.57066 893.05172,262.96835 897.49457,262.96835   L 935.0386,262.96835   C 939.48145,262.96835 943.08375,266.57066 943.08375,271.0135   L 943.08375,308.55754   C 943.08375,313.00038 939.48145,316.60269 935.0386,316.60269   L 897.49457,316.60269   C 893.05172,316.60269 889.44942,313.00038 889.44942,308.55754   z "
     id="path1154" />
  <path
     style="fill:#ffffff;fill-rule:evenodd;fill-opacity:1;stroke:none;"
     d="  M 958.61369,305.59564   C 958.61369,301.1528 962.216,297.55049 966.65885,297.55049   L 1004.2029,297.55049   C 1008.6457,297.55049 1012.248,301.1528 1012.248,305.59564   L 1012.248,343.13967   C 1012.248,347.58252 1008.6457,351.18483 1004.2029,351.18483   L 966.65885,351.18483   C 962.216,351.18483 958.61369,347.58252 958.61369,343.13967   z "
     id="path1156" />
</svg>
