<?xml version="1.0" encoding="UTF-8" standalone="no"?>
<svg
   version="1.0"
   width="338.89001mm"
   height="190.57001mm"
   id="svg346"
   sodipodi:docname="31.svg"
   inkscape:version="1.2.1 (9c6d41e410, 2022-07-14)"
   xmlns:inkscape="http://www.inkscape.org/namespaces/inkscape"
   xmlns:sodipodi="http://sodipodi.sourceforge.net/DTD/sodipodi-0.dtd"
   xmlns="http://www.w3.org/2000/svg"
   xmlns:svg="http://www.w3.org/2000/svg">
  <sodipodi:namedview
     id="namedview348"
     pagecolor="#505050"
     bordercolor="#eeeeee"
     borderopacity="1"
     inkscape:showpageshadow="0"
     inkscape:pageopacity="0"
     inkscape:pagecheckerboard="0"
     inkscape:deskcolor="#505050"
     inkscape:document-units="mm"
     showgrid="false"
     inkscape:zoom="0.80109329"
     inkscape:cx="858.82632"
     inkscape:cy="404.44728"
     inkscape:window-width="1800"
     inkscape:window-height="1108"
     inkscape:window-x="-12"
     inkscape:window-y="-12"
     inkscape:window-maximized="1"
     inkscape:current-layer="svg346" />
  <defs
     id="defs10">
    <pattern
       id="EMFhbasepattern"
       patternUnits="userSpaceOnUse"
       width="6"
       height="6"
       x="0"
       y="0" />
  </defs>
  <path
     style="fill:#70ad47;fill-rule:evenodd;fill-opacity:1;stroke:none;"
     d="  M 0.1601025,0.1601025   M 227.4256,63.960947   C 227.4256,57.877052 232.38877,52.913875 238.47267,52.913875   L 1042.5474,52.913875   C 1048.6313,52.913875 1053.5545,57.877052 1053.5545,63.960947   L 1053.5545,656.86052   C 1053.5545,662.94441 1048.6313,667.86756 1042.5474,667.86756   L 238.47267,667.86756   C 232.38877,667.86756 227.4256,662.94441 227.4256,656.86052   z "
     id="path14" />
  <path
     style="fill:#ffffff;fill-rule:evenodd;fill-opacity:1;stroke:none;"
     d="  M 256.72435,88.766828   C 256.72435,84.9744 259.80633,81.892427 263.59875,81.892427   L 295.64927,81.892427   C 299.4417,81.892427 302.51367,84.9744 302.51367,88.766828   L 302.51367,120.81735   C 302.51367,124.60977 299.4417,127.68174 295.64927,127.68174   L 263.59875,127.68174   C 259.80633,127.68174 256.72435,124.60977 256.72435,120.81735   z "
     id="path16" />
  <path
     style="fill:#ffffff;fill-rule:evenodd;fill-opacity:1;stroke:none;"
     d="  M 256.72435,140.4299   C 256.72435,136.66749 259.78631,133.60553 263.54872,133.60553   L 295.6993,133.60553   C 299.46171,133.60553 302.51367,136.66749 302.51367,140.4299   L 302.51367,172.26028   C 302.51367,176.02269 299.46171,179.07464 295.6993,179.07464   L 263.54872,179.07464   C 259.78631,179.07464 256.72435,176.02269 256.72435,172.26028   z "
     id="path18" />
  <path
     style="fill:#ffffff;fill-rule:evenodd;fill-opacity:1;stroke:none;"
     d="  M 256.72435,191.87284   C 256.72435,188.08041 259.80633,184.99843 263.59875,184.99843   L 295.64927,184.99843   C 299.4417,184.99843 302.51367,188.08041 302.51367,191.87284   L 302.51367,223.92335   C 302.51367,227.71578 299.4417,230.78775 295.64927,230.78775   L 263.59875,230.78775   C 259.80633,230.78775 256.72435,227.71578 256.72435,223.92335   z "
     id="path20" />
  <path
     style="fill:#ffffff;fill-rule:evenodd;fill-opacity:1;stroke:none;"
     d="  M 256.72435,243.53591   C 256.72435,239.7735 259.78631,236.71154 263.54872,236.71154   L 295.6993,236.71154   C 299.46171,236.71154 302.51367,239.7735 302.51367,243.53591   L 302.51367,275.36629   C 302.51367,279.1287 299.46171,282.18065 295.6993,282.18065   L 263.54872,282.18065   C 259.78631,282.18065 256.72435,279.1287 256.72435,275.36629   z "
     id="path22" />
  <path
     style="fill:#ffffff;fill-rule:evenodd;fill-opacity:1;stroke:none;"
     d="  M 256.72435,294.97884   C 256.72435,291.18641 259.80633,288.10444 263.59875,288.10444   L 295.64927,288.10444   C 299.4417,288.10444 302.51367,291.18641 302.51367,294.97884   L 302.51367,327.02936   C 302.51367,330.82179 299.4417,333.89376 295.64927,333.89376   L 263.59875,333.89376   C 259.80633,333.89376 256.72435,330.82179 256.72435,327.02936   z "
     id="path24" />
  <path
     style="fill:#ffffff;fill-rule:evenodd;fill-opacity:1;stroke:none;"
     d="  M 256.72435,346.6219   C 256.72435,342.87951 259.78631,339.81755 263.52871,339.81755   L 295.72932,339.81755   C 299.47172,339.81755 302.51367,342.87951 302.51367,346.6219   L 302.51367,378.34221   C 302.51367,382.08461 299.47172,385.12655 295.72932,385.12655   L 263.52871,385.12655   C 259.78631,385.12655 256.72435,382.08461 256.72435,378.34221   z "
     id="path26" />
  <path
     style="fill:#ffffff;fill-rule:evenodd;fill-opacity:1;stroke:none;"
     d="  M 256.72435,398.05483   C 256.72435,394.29242 259.80633,391.21045 263.56873,391.21045   L 295.66928,391.21045   C 299.45171,391.21045 302.51367,394.29242 302.51367,398.05483   L 302.51367,429.99528   C 302.51367,433.7777 299.45171,436.83966 295.66928,436.83966   L 263.56873,436.83966   C 259.80633,436.83966 256.72435,433.7777 256.72435,429.99528   z "
     id="path28" />
  <path
     style="fill:#ffffff;fill-rule:evenodd;fill-opacity:1;stroke:none;"
     d="  M 256.72435,449.58782   C 256.72435,445.82541 259.78631,442.76345 263.54872,442.76345   L 295.70931,442.76345   C 299.47172,442.76345 302.51367,445.82541 302.51367,449.58782   L 302.51367,481.42821   C 302.51367,485.19061 299.47172,488.23256 295.70931,488.23256   L 263.54872,488.23256   C 259.78631,488.23256 256.72435,485.19061 256.72435,481.42821   z "
     id="path30" />
  <path
     style="fill:#ffffff;fill-rule:evenodd;fill-opacity:1;stroke:none;"
     d="  M 256.72435,501.04076   C 256.72435,497.23833 259.80633,494.15635 263.60876,494.15635   L 295.64927,494.15635   C 299.45171,494.15635 302.51367,497.23833 302.51367,501.04076   L 302.51367,533.08127   C 302.51367,536.88371 299.45171,539.94567 295.64927,539.94567   L 263.60876,539.94567   C 259.80633,539.94567 256.72435,536.88371 256.72435,533.08127   z "
     id="path32" />
  <path
     style="fill:#ffffff;fill-rule:evenodd;fill-opacity:1;stroke:none;"
     d="  M 256.72435,552.69383   C 256.72435,548.93142 259.78631,545.86946 263.54872,545.86946   L 295.70931,545.86946   C 299.47172,545.86946 302.51367,548.93142 302.51367,552.69383   L 302.51367,584.53421   C 302.51367,588.29662 299.47172,591.33857 295.70931,591.33857   L 263.54872,591.33857   C 259.78631,591.33857 256.72435,588.29662 256.72435,584.53421   z "
     id="path34" />
  <path
     style="fill:#ffffff;fill-rule:evenodd;fill-opacity:1;stroke:none;"
     d="  M 256.72435,604.14677   C 256.72435,600.34433 259.80633,597.26236 263.60876,597.26236   L 295.64927,597.26236   C 299.45171,597.26236 302.51367,600.34433 302.51367,604.14677   L 302.51367,636.18728   C 302.51367,639.98972 299.45171,643.05168 295.64927,643.05168   L 263.60876,643.05168   C 259.80633,643.05168 256.72435,639.98972 256.72435,636.18728   z "
     id="path36" />
  <path
     style="fill:#ffffff;fill-rule:evenodd;fill-opacity:1;stroke:none;"
     d="  M 308.11725,88.766828   C 308.11725,84.9744 311.19923,81.892427 314.99165,81.892427   L 347.04217,81.892427   C 350.8346,81.892427 353.90657,84.9744 353.90657,88.766828   L 353.90657,120.81735   C 353.90657,124.60977 350.8346,127.68174 347.04217,127.68174   L 314.99165,127.68174   C 311.19923,127.68174 308.11725,124.60977 308.11725,120.81735   z "
     id="path38" />
  <path
     style="fill:#ffffff;fill-rule:evenodd;fill-opacity:1;stroke:none;"
     d="  M 308.11725,140.4299   C 308.11725,136.66749 311.17921,133.60553 314.94162,133.60553   L 347.0922,133.60553   C 350.85461,133.60553 353.90657,136.66749 353.90657,140.4299   L 353.90657,172.26028   C 353.90657,176.02269 350.85461,179.07464 347.0922,179.07464   L 314.94162,179.07464   C 311.17921,179.07464 308.11725,176.02269 308.11725,172.26028   z "
     id="path40" />
  <path
     style="fill:#ffffff;fill-rule:evenodd;fill-opacity:1;stroke:none;"
     d="  M 308.11725,191.87284   C 308.11725,188.08041 311.19923,184.99843 314.99165,184.99843   L 347.04217,184.99843   C 350.8346,184.99843 353.90657,188.08041 353.90657,191.87284   L 353.90657,223.92335   C 353.90657,227.71578 350.8346,230.78775 347.04217,230.78775   L 314.99165,230.78775   C 311.19923,230.78775 308.11725,227.71578 308.11725,223.92335   z "
     id="path42" />
  <path
     style="fill:#ffffff;fill-rule:evenodd;fill-opacity:1;stroke:none;"
     d="  M 308.11725,243.53591   C 308.11725,239.7735 311.17921,236.71154 314.94162,236.71154   L 347.0922,236.71154   C 350.85461,236.71154 353.90657,239.7735 353.90657,243.53591   L 353.90657,275.36629   C 353.90657,279.1287 350.85461,282.18065 347.0922,282.18065   L 314.94162,282.18065   C 311.17921,282.18065 308.11725,279.1287 308.11725,275.36629   z "
     id="path44" />
  <path
     style="fill:#ffffff;fill-rule:evenodd;fill-opacity:1;stroke:none;"
     d="  M 308.11725,294.97884   C 308.11725,291.18641 311.19923,288.10444 314.99165,288.10444   L 347.04217,288.10444   C 350.8346,288.10444 353.90657,291.18641 353.90657,294.97884   L 353.90657,327.02936   C 353.90657,330.82179 350.8346,333.89376 347.04217,333.89376   L 314.99165,333.89376   C 311.19923,333.89376 308.11725,330.82179 308.11725,327.02936   z "
     id="path46" />
  <path
     style="fill:#ffffff;fill-rule:evenodd;fill-opacity:1;stroke:none;"
     d="  M 308.11725,346.6219   C 308.11725,342.87951 311.17921,339.81755 314.92161,339.81755   L 347.12222,339.81755   C 350.86462,339.81755 353.90657,342.87951 353.90657,346.6219   L 353.90657,378.34221   C 353.90657,382.08461 350.86462,385.12655 347.12222,385.12655   L 314.92161,385.12655   C 311.17921,385.12655 308.11725,382.08461 308.11725,378.34221   z "
     id="path48" />
  <path
     style="fill:#ffffff;fill-rule:evenodd;fill-opacity:1;stroke:none;"
     d="  M 308.11725,398.05483   C 308.11725,394.29242 311.19923,391.21045 314.96164,391.21045   L 347.06219,391.21045   C 350.84461,391.21045 353.90657,394.29242 353.90657,398.05483   L 353.90657,429.99528   C 353.90657,433.7777 350.84461,436.83966 347.06219,436.83966   L 314.96164,436.83966   C 311.19923,436.83966 308.11725,433.7777 308.11725,429.99528   z "
     id="path50" />
  <path
     style="fill:#ffffff;fill-rule:evenodd;fill-opacity:1;stroke:none;"
     d="  M 308.11725,449.58782   C 308.11725,445.82541 311.17921,442.76345 314.94162,442.76345   L 347.10221,442.76345   C 350.86462,442.76345 353.90657,445.82541 353.90657,449.58782   L 353.90657,481.42821   C 353.90657,485.19061 350.86462,488.23256 347.10221,488.23256   L 314.94162,488.23256   C 311.17921,488.23256 308.11725,485.19061 308.11725,481.42821   z "
     id="path52" />
  <path
     style="fill:#ffffff;fill-rule:evenodd;fill-opacity:1;stroke:none;"
     d="  M 308.11725,501.04076   C 308.11725,497.23833 311.19923,494.15635 315.00166,494.15635   L 347.04217,494.15635   C 350.84461,494.15635 353.90657,497.23833 353.90657,501.04076   L 353.90657,533.08127   C 353.90657,536.88371 350.84461,539.94567 347.04217,539.94567   L 315.00166,539.94567   C 311.19923,539.94567 308.11725,536.88371 308.11725,533.08127   z "
     id="path54" />
  <path
     style="fill:#ffffff;fill-rule:evenodd;fill-opacity:1;stroke:none;"
     d="  M 308.11725,552.69383   C 308.11725,548.93142 311.17921,545.86946 314.94162,545.86946   L 347.10221,545.86946   C 350.86462,545.86946 353.90657,548.93142 353.90657,552.69383   L 353.90657,584.53421   C 353.90657,588.29662 350.86462,591.33857 347.10221,591.33857   L 314.94162,591.33857   C 311.17921,591.33857 308.11725,588.29662 308.11725,584.53421   z "
     id="path56" />
  <path
     style="fill:#ffffff;fill-rule:evenodd;fill-opacity:1;stroke:none;"
     d="  M 308.11725,604.14677   C 308.11725,600.34433 311.19923,597.26236 315.00166,597.26236   L 347.04217,597.26236   C 350.84461,597.26236 353.90657,600.34433 353.90657,604.14677   L 353.90657,636.18728   C 353.90657,639.98972 350.84461,643.05168 347.04217,643.05168   L 315.00166,643.05168   C 311.19923,643.05168 308.11725,639.98972 308.11725,636.18728   z "
     id="path58" />
  <path
     style="fill:#ffffff;fill-rule:evenodd;fill-opacity:1;stroke:none;"
     d="  M 359.83036,88.736808   C 359.83036,84.964393 362.90233,81.892427 366.67474,81.892427   L 398.61519,81.892427   C 402.39761,81.892427 405.45957,84.964393 405.45957,88.736808   L 405.45957,120.83736   C 405.45957,124.61978 402.39761,127.68174 398.61519,127.68174   L 366.67474,127.68174   C 362.90233,127.68174 359.83036,124.61978 359.83036,120.83736   z "
     id="path60" />
  <path
     style="fill:#ffffff;fill-rule:evenodd;fill-opacity:1;stroke:none;"
     d="  M 359.83036,140.4299   C 359.83036,136.66749 362.89232,133.60553 366.65473,133.60553   L 398.64521,133.60553   C 402.40762,133.60553 405.45957,136.66749 405.45957,140.4299   L 405.45957,172.26028   C 405.45957,176.02269 402.40762,179.08465 398.64521,179.08465   L 366.65473,179.08465   C 362.89232,179.08465 359.83036,176.02269 359.83036,172.26028   z "
     id="path62" />
  <path
     style="fill:#ffffff;fill-rule:evenodd;fill-opacity:1;stroke:none;"
     d="  M 359.83036,191.84282   C 359.83036,188.0704 362.90233,184.99843 366.67474,184.99843   L 398.61519,184.99843   C 402.39761,184.99843 405.45957,188.0704 405.45957,191.84282   L 405.45957,223.94337   C 405.45957,227.72579 402.39761,230.78775 398.61519,230.78775   L 366.67474,230.78775   C 362.90233,230.78775 359.83036,227.72579 359.83036,223.94337   z "
     id="path64" />
  <path
     style="fill:#ffffff;fill-rule:evenodd;fill-opacity:1;stroke:none;"
     d="  M 359.83036,243.53591   C 359.83036,239.7735 362.89232,236.71154 366.65473,236.71154   L 398.64521,236.71154   C 402.40762,236.71154 405.45957,239.7735 405.45957,243.53591   L 405.45957,275.36629   C 405.45957,279.1287 402.40762,282.19066 398.64521,282.19066   L 366.65473,282.19066   C 362.89232,282.19066 359.83036,279.1287 359.83036,275.36629   z "
     id="path66" />
  <path
     style="fill:#ffffff;fill-rule:evenodd;fill-opacity:1;stroke:none;"
     d="  M 359.83036,294.94882   C 359.83036,291.17641 362.90233,288.10444 366.67474,288.10444   L 398.61519,288.10444   C 402.39761,288.10444 405.45957,291.17641 405.45957,294.94882   L 405.45957,327.04937   C 405.45957,330.8318 402.39761,333.89376 398.61519,333.89376   L 366.67474,333.89376   C 362.90233,333.89376 359.83036,330.8318 359.83036,327.04937   z "
     id="path68" />
  <path
     style="fill:#ffffff;fill-rule:evenodd;fill-opacity:1;stroke:none;"
     d="  M 359.83036,346.6219   C 359.83036,342.87951 362.89232,339.81755 366.63472,339.81755   L 398.67523,339.81755   C 402.41762,339.81755 405.45957,342.87951 405.45957,346.6219   L 405.45957,378.34221   C 405.45957,382.08461 402.41762,385.14657 398.67523,385.14657   L 366.63472,385.14657   C 362.89232,385.14657 359.83036,382.08461 359.83036,378.34221   z "
     id="path70" />
  <path
     style="fill:#ffffff;fill-rule:evenodd;fill-opacity:1;stroke:none;"
     d="  M 359.83036,398.05483   C 359.83036,394.29242 362.91233,391.21045 366.67474,391.21045   L 398.61519,391.21045   C 402.39761,391.21045 405.45957,394.29242 405.45957,398.05483   L 405.45957,429.99528   C 405.45957,433.7777 402.39761,436.83966 398.61519,436.83966   L 366.67474,436.83966   C 362.91233,436.83966 359.83036,433.7777 359.83036,429.99528   z "
     id="path72" />
  <path
     style="fill:#ffffff;fill-rule:evenodd;fill-opacity:1;stroke:none;"
     d="  M 359.83036,449.58782   C 359.83036,445.82541 362.89232,442.76345 366.65473,442.76345   L 398.65522,442.76345   C 402.41762,442.76345 405.45957,445.82541 405.45957,449.58782   L 405.45957,481.42821   C 405.45957,485.19061 402.41762,488.23256 398.65522,488.23256   L 366.65473,488.23256   C 362.89232,488.23256 359.83036,485.19061 359.83036,481.42821   z "
     id="path74" />
  <path
     style="fill:#ffffff;fill-rule:evenodd;fill-opacity:1;stroke:none;"
     d="  M 359.83036,501.00074   C 359.83036,497.23833 362.91233,494.15635 366.67474,494.15635   L 398.61519,494.15635   C 402.39761,494.15635 405.45957,497.23833 405.45957,501.00074   L 405.45957,533.10129   C 405.45957,536.88371 402.39761,539.94567 398.61519,539.94567   L 366.67474,539.94567   C 362.91233,539.94567 359.83036,536.88371 359.83036,533.10129   z "
     id="path76" />
  <path
     style="fill:#ffffff;fill-rule:evenodd;fill-opacity:1;stroke:none;"
     d="  M 359.83036,552.69383   C 359.83036,548.93142 362.89232,545.86946 366.65473,545.86946   L 398.65522,545.86946   C 402.41762,545.86946 405.45957,548.93142 405.45957,552.69383   L 405.45957,584.53421   C 405.45957,588.29662 402.41762,591.33857 398.65522,591.33857   L 366.65473,591.33857   C 362.89232,591.33857 359.83036,588.29662 359.83036,584.53421   z "
     id="path78" />
  <path
     style="fill:#ffffff;fill-rule:evenodd;fill-opacity:1;stroke:none;"
     d="  M 359.83036,604.10674   C 359.83036,600.34433 362.91233,597.26236 366.67474,597.26236   L 398.61519,597.26236   C 402.39761,597.26236 405.45957,600.34433 405.45957,604.10674   L 405.45957,636.20729   C 405.45957,639.98972 402.39761,643.05168 398.61519,643.05168   L 366.67474,643.05168   C 362.91233,643.05168 359.83036,639.98972 359.83036,636.20729   z "
     id="path80" />
  <path
     style="fill:#ffffff;fill-rule:evenodd;fill-opacity:1;stroke:none;"
     d="  M 411.22326,88.736808   C 411.22326,84.964393 414.29523,81.892427 418.06764,81.892427   L 450.00809,81.892427   C 453.79051,81.892427 456.85247,84.964393 456.85247,88.736808   L 456.85247,120.83736   C 456.85247,124.61978 453.79051,127.68174 450.00809,127.68174   L 418.06764,127.68174   C 414.29523,127.68174 411.22326,124.61978 411.22326,120.83736   z "
     id="path82" />
  <path
     style="fill:#ffffff;fill-rule:evenodd;fill-opacity:1;stroke:none;"
     d="  M 411.22326,140.4299   C 411.22326,136.66749 414.28522,133.60553 418.04763,133.60553   L 450.03811,133.60553   C 453.80052,133.60553 456.85247,136.66749 456.85247,140.4299   L 456.85247,172.26028   C 456.85247,176.02269 453.80052,179.08465 450.03811,179.08465   L 418.04763,179.08465   C 414.28522,179.08465 411.22326,176.02269 411.22326,172.26028   z "
     id="path84" />
  <path
     style="fill:#ffffff;fill-rule:evenodd;fill-opacity:1;stroke:none;"
     d="  M 411.22326,191.84282   C 411.22326,188.0704 414.29523,184.99843 418.06764,184.99843   L 450.00809,184.99843   C 453.79051,184.99843 456.85247,188.0704 456.85247,191.84282   L 456.85247,223.94337   C 456.85247,227.72579 453.79051,230.78775 450.00809,230.78775   L 418.06764,230.78775   C 414.29523,230.78775 411.22326,227.72579 411.22326,223.94337   z "
     id="path86" />
  <path
     style="fill:#ffffff;fill-rule:evenodd;fill-opacity:1;stroke:none;"
     d="  M 411.22326,243.53591   C 411.22326,239.7735 414.28522,236.71154 418.04763,236.71154   L 450.03811,236.71154   C 453.80052,236.71154 456.85247,239.7735 456.85247,243.53591   L 456.85247,275.36629   C 456.85247,279.1287 453.80052,282.19066 450.03811,282.19066   L 418.04763,282.19066   C 414.28522,282.19066 411.22326,279.1287 411.22326,275.36629   z "
     id="path88" />
  <path
     style="fill:#ffffff;fill-rule:evenodd;fill-opacity:1;stroke:none;"
     d="  M 411.22326,294.94882   C 411.22326,291.17641 414.29523,288.10444 418.06764,288.10444   L 450.00809,288.10444   C 453.79051,288.10444 456.85247,291.17641 456.85247,294.94882   L 456.85247,327.04937   C 456.85247,330.8318 453.79051,333.89376 450.00809,333.89376   L 418.06764,333.89376   C 414.29523,333.89376 411.22326,330.8318 411.22326,327.04937   z "
     id="path90" />
  <path
     style="fill:#ffffff;fill-rule:evenodd;fill-opacity:1;stroke:none;"
     d="  M 411.22326,346.6219   C 411.22326,342.87951 414.28522,339.81755 418.02762,339.81755   L 450.06813,339.81755   C 453.81053,339.81755 456.85247,342.87951 456.85247,346.6219   L 456.85247,378.34221   C 456.85247,382.08461 453.81053,385.14657 450.06813,385.14657   L 418.02762,385.14657   C 414.28522,385.14657 411.22326,382.08461 411.22326,378.34221   z "
     id="path92" />
  <path
     style="fill:#ffffff;fill-rule:evenodd;fill-opacity:1;stroke:none;"
     d="  M 411.22326,398.05483   C 411.22326,394.29242 414.30523,391.21045 418.06764,391.21045   L 450.00809,391.21045   C 453.79051,391.21045 456.85247,394.29242 456.85247,398.05483   L 456.85247,429.99528   C 456.85247,433.7777 453.79051,436.83966 450.00809,436.83966   L 418.06764,436.83966   C 414.30523,436.83966 411.22326,433.7777 411.22326,429.99528   z "
     id="path94" />
  <path
     style="fill:#ffffff;fill-rule:evenodd;fill-opacity:1;stroke:none;"
     d="  M 411.22326,449.58782   C 411.22326,445.82541 414.28522,442.76345 418.04763,442.76345   L 450.04812,442.76345   C 453.81053,442.76345 456.85247,445.82541 456.85247,449.58782   L 456.85247,481.42821   C 456.85247,485.19061 453.81053,488.23256 450.04812,488.23256   L 418.04763,488.23256   C 414.28522,488.23256 411.22326,485.19061 411.22326,481.42821   z "
     id="path96" />
  <path
     style="fill:#ffffff;fill-rule:evenodd;fill-opacity:1;stroke:none;"
     d="  M 411.22326,501.00074   C 411.22326,497.23833 414.30523,494.15635 418.06764,494.15635   L 450.00809,494.15635   C 453.79051,494.15635 456.85247,497.23833 456.85247,501.00074   L 456.85247,533.10129   C 456.85247,536.88371 453.79051,539.94567 450.00809,539.94567   L 418.06764,539.94567   C 414.30523,539.94567 411.22326,536.88371 411.22326,533.10129   z "
     id="path98" />
  <path
     style="fill:#ffffff;fill-rule:evenodd;fill-opacity:1;stroke:none;"
     d="  M 411.22326,552.69383   C 411.22326,548.93142 414.28522,545.86946 418.04763,545.86946   L 450.04812,545.86946   C 453.81053,545.86946 456.85247,548.93142 456.85247,552.69383   L 456.85247,584.53421   C 456.85247,588.29662 453.81053,591.33857 450.04812,591.33857   L 418.04763,591.33857   C 414.28522,591.33857 411.22326,588.29662 411.22326,584.53421   z "
     id="path100" />
  <path
     style="fill:#ffffff;fill-rule:evenodd;fill-opacity:1;stroke:none;"
     d="  M 411.22326,604.10674   C 411.22326,600.34433 414.30523,597.26236 418.06764,597.26236   L 450.00809,597.26236   C 453.79051,597.26236 456.85247,600.34433 456.85247,604.10674   L 456.85247,636.20729   C 456.85247,639.98972 453.79051,643.05168 450.00809,643.05168   L 418.06764,643.05168   C 414.30523,643.05168 411.22326,639.98972 411.22326,636.20729   z "
     id="path102" />
  <path
     style="fill:#ffffff;fill-rule:evenodd;fill-opacity:1;stroke:none;"
     d="  M 462.77626,88.766828   C 462.77626,84.9744 465.85824,81.892427 469.65067,81.892427   L 501.70118,81.892427   C 505.49361,81.892427 508.56558,84.9744 508.56558,88.766828   L 508.56558,120.81735   C 508.56558,124.60977 505.49361,127.68174 501.70118,127.68174   L 469.65067,127.68174   C 465.85824,127.68174 462.77626,124.60977 462.77626,120.81735   z "
     id="path104" />
  <path
     style="fill:#ffffff;fill-rule:evenodd;fill-opacity:1;stroke:none;"
     d="  M 462.77626,140.4299   C 462.77626,136.66749 465.83823,133.60553 469.60063,133.60553   L 501.75122,133.60553   C 505.51362,133.60553 508.56558,136.66749 508.56558,140.4299   L 508.56558,172.26028   C 508.56558,176.02269 505.51362,179.07464 501.75122,179.07464   L 469.60063,179.07464   C 465.83823,179.07464 462.77626,176.02269 462.77626,172.26028   z "
     id="path106" />
  <path
     style="fill:#ffffff;fill-rule:evenodd;fill-opacity:1;stroke:none;"
     d="  M 462.77626,191.87284   C 462.77626,188.08041 465.85824,184.99843 469.65067,184.99843   L 501.70118,184.99843   C 505.49361,184.99843 508.56558,188.08041 508.56558,191.87284   L 508.56558,223.92335   C 508.56558,227.71578 505.49361,230.78775 501.70118,230.78775   L 469.65067,230.78775   C 465.85824,230.78775 462.77626,227.71578 462.77626,223.92335   z "
     id="path108" />
  <path
     style="fill:#ffffff;fill-rule:evenodd;fill-opacity:1;stroke:none;"
     d="  M 462.77626,243.53591   C 462.77626,239.7735 465.83823,236.71154 469.60063,236.71154   L 501.75122,236.71154   C 505.51362,236.71154 508.56558,239.7735 508.56558,243.53591   L 508.56558,275.36629   C 508.56558,279.1287 505.51362,282.18065 501.75122,282.18065   L 469.60063,282.18065   C 465.83823,282.18065 462.77626,279.1287 462.77626,275.36629   z "
     id="path110" />
  <path
     style="fill:#ffffff;fill-rule:evenodd;fill-opacity:1;stroke:none;"
     d="  M 462.77626,294.97884   C 462.77626,291.18641 465.85824,288.10444 469.65067,288.10444   L 501.70118,288.10444   C 505.49361,288.10444 508.56558,291.18641 508.56558,294.97884   L 508.56558,327.02936   C 508.56558,330.82179 505.49361,333.89376 501.70118,333.89376   L 469.65067,333.89376   C 465.85824,333.89376 462.77626,330.82179 462.77626,327.02936   z "
     id="path112" />
  <path
     style="fill:#ffffff;fill-rule:evenodd;fill-opacity:1;stroke:none;"
     d="  M 462.77626,346.6219   C 462.77626,342.87951 465.83823,339.81755 469.58062,339.81755   L 501.78124,339.81755   C 505.52363,339.81755 508.56558,342.87951 508.56558,346.6219   L 508.56558,378.34221   C 508.56558,382.08461 505.52363,385.12655 501.78124,385.12655   L 469.58062,385.12655   C 465.83823,385.12655 462.77626,382.08461 462.77626,378.34221   z "
     id="path114" />
  <path
     style="fill:#ffffff;fill-rule:evenodd;fill-opacity:1;stroke:none;"
     d="  M 462.77626,398.05483   C 462.77626,394.29242 465.85824,391.21045 469.62065,391.21045   L 501.7212,391.21045   C 505.50362,391.21045 508.56558,394.29242 508.56558,398.05483   L 508.56558,429.99528   C 508.56558,433.7777 505.50362,436.83966 501.7212,436.83966   L 469.62065,436.83966   C 465.85824,436.83966 462.77626,433.7777 462.77626,429.99528   z "
     id="path116" />
  <path
     style="fill:#ffffff;fill-rule:evenodd;fill-opacity:1;stroke:none;"
     d="  M 462.77626,449.58782   C 462.77626,445.82541 465.83823,442.76345 469.60063,442.76345   L 501.76122,442.76345   C 505.52363,442.76345 508.56558,445.82541 508.56558,449.58782   L 508.56558,481.42821   C 508.56558,485.19061 505.52363,488.23256 501.76122,488.23256   L 469.60063,488.23256   C 465.83823,488.23256 462.77626,485.19061 462.77626,481.42821   z "
     id="path118" />
  <path
     style="fill:#ffffff;fill-rule:evenodd;fill-opacity:1;stroke:none;"
     d="  M 462.77626,501.04076   C 462.77626,497.23833 465.85824,494.15635 469.66067,494.15635   L 501.70118,494.15635   C 505.50362,494.15635 508.56558,497.23833 508.56558,501.04076   L 508.56558,533.08127   C 508.56558,536.88371 505.50362,539.94567 501.70118,539.94567   L 469.66067,539.94567   C 465.85824,539.94567 462.77626,536.88371 462.77626,533.08127   z "
     id="path120" />
  <path
     style="fill:#ffffff;fill-rule:evenodd;fill-opacity:1;stroke:none;"
     d="  M 462.77626,552.69383   C 462.77626,548.93142 465.83823,545.86946 469.60063,545.86946   L 501.76122,545.86946   C 505.52363,545.86946 508.56558,548.93142 508.56558,552.69383   L 508.56558,584.53421   C 508.56558,588.29662 505.52363,591.33857 501.76122,591.33857   L 469.60063,591.33857   C 465.83823,591.33857 462.77626,588.29662 462.77626,584.53421   z "
     id="path122" />
  <path
     style="fill:#ffffff;fill-rule:evenodd;fill-opacity:1;stroke:none;"
     d="  M 462.77626,604.14677   C 462.77626,600.34433 465.85824,597.26236 469.66067,597.26236   L 501.70118,597.26236   C 505.50362,597.26236 508.56558,600.34433 508.56558,604.14677   L 508.56558,636.18728   C 508.56558,639.98972 505.50362,643.05168 501.70118,643.05168   L 469.66067,643.05168   C 465.85824,643.05168 462.77626,639.98972 462.77626,636.18728   z "
     id="path124" />
  <path
     style="fill:#ffffff;fill-rule:evenodd;fill-opacity:1;stroke:none;"
     d="  M 514.16917,88.776834   C 514.16917,84.9744 517.25114,81.892427 521.05357,81.892427   L 553.09409,81.892427   C 556.89652,81.892427 559.95848,84.9744 559.95848,88.776834   L 559.95848,120.81735   C 559.95848,124.61978 556.89652,127.68174 553.09409,127.68174   L 521.05357,127.68174   C 517.25114,127.68174 514.16917,124.61978 514.16917,120.81735   z "
     id="path126" />
  <path
     style="fill:#ffffff;fill-rule:evenodd;fill-opacity:1;stroke:none;"
     d="  M 514.16917,140.4299   C 514.16917,136.66749 517.23113,133.60553 520.99353,133.60553   L 553.15412,133.60553   C 556.91653,133.60553 559.95848,136.66749 559.95848,140.4299   L 559.95848,172.27029   C 559.95848,176.03269 556.91653,179.07464 553.15412,179.07464   L 520.99353,179.07464   C 517.23113,179.07464 514.16917,176.03269 514.16917,172.27029   z "
     id="path128" />
  <path
     style="fill:#ffffff;fill-rule:evenodd;fill-opacity:1;stroke:none;"
     d="  M 514.16917,191.88284   C 514.16917,188.08041 517.25114,184.99843 521.05357,184.99843   L 553.09409,184.99843   C 556.89652,184.99843 559.95848,188.08041 559.95848,191.88284   L 559.95848,223.92335   C 559.95848,227.72579 556.89652,230.78775 553.09409,230.78775   L 521.05357,230.78775   C 517.25114,230.78775 514.16917,227.72579 514.16917,223.92335   z "
     id="path130" />
  <path
     style="fill:#ffffff;fill-rule:evenodd;fill-opacity:1;stroke:none;"
     d="  M 514.16917,243.53591   C 514.16917,239.7735 517.23113,236.71154 520.99353,236.71154   L 553.15412,236.71154   C 556.91653,236.71154 559.95848,239.7735 559.95848,243.53591   L 559.95848,275.37629   C 559.95848,279.1387 556.91653,282.18065 553.15412,282.18065   L 520.99353,282.18065   C 517.23113,282.18065 514.16917,279.1387 514.16917,275.37629   z "
     id="path132" />
  <path
     style="fill:#ffffff;fill-rule:evenodd;fill-opacity:1;stroke:none;"
     d="  M 514.16917,294.98885   C 514.16917,291.18641 517.25114,288.10444 521.05357,288.10444   L 553.09409,288.10444   C 556.89652,288.10444 559.95848,291.18641 559.95848,294.98885   L 559.95848,327.02936   C 559.95848,330.8318 556.89652,333.89376 553.09409,333.89376   L 521.05357,333.89376   C 517.25114,333.89376 514.16917,330.8318 514.16917,327.02936   z "
     id="path134" />
  <path
     style="fill:#ffffff;fill-rule:evenodd;fill-opacity:1;stroke:none;"
     d="  M 514.16917,346.6219   C 514.16917,342.87951 517.23113,339.81755 520.97352,339.81755   L 553.17414,339.81755   C 556.91653,339.81755 559.95848,342.87951 559.95848,346.6219   L 559.95848,378.34221   C 559.95848,382.08461 556.91653,385.12655 553.17414,385.12655   L 520.97352,385.12655   C 517.23113,385.12655 514.16917,382.08461 514.16917,378.34221   z "
     id="path136" />
  <path
     style="fill:#ffffff;fill-rule:evenodd;fill-opacity:1;stroke:none;"
     d="  M 514.16917,398.05483   C 514.16917,394.29242 517.25114,391.21045 521.01355,391.21045   L 553.1141,391.21045   C 556.89652,391.21045 559.95848,394.29242 559.95848,398.05483   L 559.95848,429.99528   C 559.95848,433.7777 556.89652,436.83966 553.1141,436.83966   L 521.01355,436.83966   C 517.25114,436.83966 514.16917,433.7777 514.16917,429.99528   z "
     id="path138" />
  <path
     style="fill:#ffffff;fill-rule:evenodd;fill-opacity:1;stroke:none;"
     d="  M 514.16917,449.58782   C 514.16917,445.82541 517.23113,442.76345 520.99353,442.76345   L 553.15412,442.76345   C 556.91653,442.76345 559.95848,445.82541 559.95848,449.58782   L 559.95848,481.42821   C 559.95848,485.19061 556.91653,488.23256 553.15412,488.23256   L 520.99353,488.23256   C 517.23113,488.23256 514.16917,485.19061 514.16917,481.42821   z "
     id="path140" />
  <path
     style="fill:#ffffff;fill-rule:evenodd;fill-opacity:1;stroke:none;"
     d="  M 514.16917,501.04076   C 514.16917,497.23833 517.25114,494.15635 521.05357,494.15635   L 553.09409,494.15635   C 556.89652,494.15635 559.95848,497.23833 559.95848,501.04076   L 559.95848,533.08127   C 559.95848,536.88371 556.89652,539.94567 553.09409,539.94567   L 521.05357,539.94567   C 517.25114,539.94567 514.16917,536.88371 514.16917,533.08127   z "
     id="path142" />
  <path
     style="fill:#ffffff;fill-rule:evenodd;fill-opacity:1;stroke:none;"
     d="  M 514.16917,552.69383   C 514.16917,548.93142 517.23113,545.86946 520.99353,545.86946   L 553.15412,545.86946   C 556.91653,545.86946 559.95848,548.93142 559.95848,552.69383   L 559.95848,584.53421   C 559.95848,588.29662 556.91653,591.33857 553.15412,591.33857   L 520.99353,591.33857   C 517.23113,591.33857 514.16917,588.29662 514.16917,584.53421   z "
     id="path144" />
  <path
     style="fill:#ffffff;fill-rule:evenodd;fill-opacity:1;stroke:none;"
     d="  M 514.16917,604.14677   C 514.16917,600.34433 517.25114,597.26236 521.05357,597.26236   L 553.09409,597.26236   C 556.89652,597.26236 559.95848,600.34433 559.95848,604.14677   L 559.95848,636.18728   C 559.95848,639.98972 556.89652,643.05168 553.09409,643.05168   L 521.05357,643.05168   C 517.25114,643.05168 514.16917,639.98972 514.16917,636.18728   z "
     id="path146" />
  <path
     style="fill:#ffffff;fill-rule:evenodd;fill-opacity:1;stroke:none;"
     d="  M 565.88227,88.776834   C 565.88227,84.9744 568.96425,81.892427 572.76668,81.892427   L 604.80719,81.892427   C 608.60963,81.892427 611.67159,84.9744 611.67159,88.776834   L 611.67159,120.81735   C 611.67159,124.61978 608.60963,127.68174 604.80719,127.68174   L 572.76668,127.68174   C 568.96425,127.68174 565.88227,124.61978 565.88227,120.81735   z "
     id="path148" />
  <path
     style="fill:#ffffff;fill-rule:evenodd;fill-opacity:1;stroke:none;"
     d="  M 565.88227,140.4299   C 565.88227,136.66749 568.94423,133.60553 572.70664,133.60553   L 604.86723,133.60553   C 608.62964,133.60553 611.67159,136.66749 611.67159,140.4299   L 611.67159,172.27029   C 611.67159,176.03269 608.62964,179.07464 604.86723,179.07464   L 572.70664,179.07464   C 568.94423,179.07464 565.88227,176.03269 565.88227,172.27029   z "
     id="path150" />
  <path
     style="fill:#ffffff;fill-rule:evenodd;fill-opacity:1;stroke:none;"
     d="  M 565.88227,191.88284   C 565.88227,188.08041 568.96425,184.99843 572.76668,184.99843   L 604.80719,184.99843   C 608.60963,184.99843 611.67159,188.08041 611.67159,191.88284   L 611.67159,223.92335   C 611.67159,227.72579 608.60963,230.78775 604.80719,230.78775   L 572.76668,230.78775   C 568.96425,230.78775 565.88227,227.72579 565.88227,223.92335   z "
     id="path152" />
  <path
     style="fill:#ffffff;fill-rule:evenodd;fill-opacity:1;stroke:none;"
     d="  M 565.88227,243.53591   C 565.88227,239.7735 568.94423,236.71154 572.70664,236.71154   L 604.86723,236.71154   C 608.62964,236.71154 611.67159,239.7735 611.67159,243.53591   L 611.67159,275.37629   C 611.67159,279.1387 608.62964,282.18065 604.86723,282.18065   L 572.70664,282.18065   C 568.94423,282.18065 565.88227,279.1387 565.88227,275.37629   z "
     id="path154" />
  <path
     style="fill:#ffffff;fill-rule:evenodd;fill-opacity:1;stroke:none;"
     d="  M 565.88227,294.98885   C 565.88227,291.18641 568.96425,288.10444 572.76668,288.10444   L 604.80719,288.10444   C 608.60963,288.10444 611.67159,291.18641 611.67159,294.98885   L 611.67159,327.02936   C 611.67159,330.8318 608.60963,333.89376 604.80719,333.89376   L 572.76668,333.89376   C 568.96425,333.89376 565.88227,330.8318 565.88227,327.02936   z "
     id="path156" />
  <path
     style="fill:#ffffff;fill-rule:evenodd;fill-opacity:1;stroke:none;"
     d="  M 565.88227,346.6219   C 565.88227,342.87951 568.94423,339.81755 572.68663,339.81755   L 604.88724,339.81755   C 608.62964,339.81755 611.67159,342.87951 611.67159,346.6219   L 611.67159,378.34221   C 611.67159,382.08461 608.62964,385.12655 604.88724,385.12655   L 572.68663,385.12655   C 568.94423,385.12655 565.88227,382.08461 565.88227,378.34221   z "
     id="path158" />
  <path
     style="fill:#ffffff;fill-rule:evenodd;fill-opacity:1;stroke:none;"
     d="  M 565.88227,398.05483   C 565.88227,394.29242 568.96425,391.21045 572.72665,391.21045   L 604.8272,391.21045   C 608.60963,391.21045 611.67159,394.29242 611.67159,398.05483   L 611.67159,429.99528   C 611.67159,433.7777 608.60963,436.83966 604.8272,436.83966   L 572.72665,436.83966   C 568.96425,436.83966 565.88227,433.7777 565.88227,429.99528   z "
     id="path160" />
  <path
     style="fill:#ffffff;fill-rule:evenodd;fill-opacity:1;stroke:none;"
     d="  M 565.88227,449.58782   C 565.88227,445.82541 568.94423,442.76345 572.70664,442.76345   L 604.86723,442.76345   C 608.62964,442.76345 611.67159,445.82541 611.67159,449.58782   L 611.67159,481.42821   C 611.67159,485.19061 608.62964,488.23256 604.86723,488.23256   L 572.70664,488.23256   C 568.94423,488.23256 565.88227,485.19061 565.88227,481.42821   z "
     id="path162" />
  <path
     style="fill:#ffffff;fill-rule:evenodd;fill-opacity:1;stroke:none;"
     d="  M 565.88227,501.04076   C 565.88227,497.23833 568.96425,494.15635 572.76668,494.15635   L 604.80719,494.15635   C 608.60963,494.15635 611.67159,497.23833 611.67159,501.04076   L 611.67159,533.08127   C 611.67159,536.88371 608.60963,539.94567 604.80719,539.94567   L 572.76668,539.94567   C 568.96425,539.94567 565.88227,536.88371 565.88227,533.08127   z "
     id="path164" />
  <path
     style="fill:#ffffff;fill-rule:evenodd;fill-opacity:1;stroke:none;"
     d="  M 565.88227,552.69383   C 565.88227,548.93142 568.94423,545.86946 572.70664,545.86946   L 604.86723,545.86946   C 608.62964,545.86946 611.67159,548.93142 611.67159,552.69383   L 611.67159,584.53421   C 611.67159,588.29662 608.62964,591.33857 604.86723,591.33857   L 572.70664,591.33857   C 568.94423,591.33857 565.88227,588.29662 565.88227,584.53421   z "
     id="path166" />
  <path
     style="fill:#ffffff;fill-rule:evenodd;fill-opacity:1;stroke:none;"
     d="  M 565.88227,604.14677   C 565.88227,600.34433 568.96425,597.26236 572.76668,597.26236   L 604.80719,597.26236   C 608.60963,597.26236 611.67159,600.34433 611.67159,604.14677   L 611.67159,636.18728   C 611.67159,639.98972 608.60963,643.05168 604.80719,643.05168   L 572.76668,643.05168   C 568.96425,643.05168 565.88227,639.98972 565.88227,636.18728   z "
     id="path168" />
  <path
     style="fill:#ffffff;fill-rule:evenodd;fill-opacity:1;stroke:none;"
     d="  M 617.27517,88.776834   C 617.27517,84.9744 620.35715,81.892427 624.15958,81.892427   L 656.20009,81.892427   C 660.00253,81.892427 663.06449,84.9744 663.06449,88.776834   L 663.06449,120.81735   C 663.06449,124.61978 660.00253,127.68174 656.20009,127.68174   L 624.15958,127.68174   C 620.35715,127.68174 617.27517,124.61978 617.27517,120.81735   z "
     id="path170" />
  <path
     style="fill:#ffffff;fill-rule:evenodd;fill-opacity:1;stroke:none;"
     d="  M 617.27517,140.4299   C 617.27517,136.66749 620.33713,133.60553 624.09954,133.60553   L 656.26013,133.60553   C 660.02254,133.60553 663.06449,136.66749 663.06449,140.4299   L 663.06449,172.27029   C 663.06449,176.03269 660.02254,179.07464 656.26013,179.07464   L 624.09954,179.07464   C 620.33713,179.07464 617.27517,176.03269 617.27517,172.27029   z "
     id="path172" />
  <path
     style="fill:#ffffff;fill-rule:evenodd;fill-opacity:1;stroke:none;"
     d="  M 617.27517,191.88284   C 617.27517,188.08041 620.35715,184.99843 624.15958,184.99843   L 656.20009,184.99843   C 660.00253,184.99843 663.06449,188.08041 663.06449,191.88284   L 663.06449,223.92335   C 663.06449,227.72579 660.00253,230.78775 656.20009,230.78775   L 624.15958,230.78775   C 620.35715,230.78775 617.27517,227.72579 617.27517,223.92335   z "
     id="path174" />
  <path
     style="fill:#ffffff;fill-rule:evenodd;fill-opacity:1;stroke:none;"
     d="  M 617.27517,243.53591   C 617.27517,239.7735 620.33713,236.71154 624.09954,236.71154   L 656.26013,236.71154   C 660.02254,236.71154 663.06449,239.7735 663.06449,243.53591   L 663.06449,275.37629   C 663.06449,279.1387 660.02254,282.18065 656.26013,282.18065   L 624.09954,282.18065   C 620.33713,282.18065 617.27517,279.1387 617.27517,275.37629   z "
     id="path176" />
  <path
     style="fill:#ffffff;fill-rule:evenodd;fill-opacity:1;stroke:none;"
     d="  M 617.27517,294.98885   C 617.27517,291.18641 620.35715,288.10444 624.15958,288.10444   L 656.20009,288.10444   C 660.00253,288.10444 663.06449,291.18641 663.06449,294.98885   L 663.06449,327.02936   C 663.06449,330.8318 660.00253,333.89376 656.20009,333.89376   L 624.15958,333.89376   C 620.35715,333.89376 617.27517,330.8318 617.27517,327.02936   z "
     id="path178" />
  <path
     style="fill:#ffffff;fill-rule:evenodd;fill-opacity:1;stroke:none;"
     d="  M 617.27517,346.6219   C 617.27517,342.87951 620.33713,339.81755 624.07953,339.81755   L 656.28014,339.81755   C 660.02254,339.81755 663.06449,342.87951 663.06449,346.6219   L 663.06449,378.34221   C 663.06449,382.08461 660.02254,385.12655 656.28014,385.12655   L 624.07953,385.12655   C 620.33713,385.12655 617.27517,382.08461 617.27517,378.34221   z "
     id="path180" />
  <path
     style="fill:#ffffff;fill-rule:evenodd;fill-opacity:1;stroke:none;"
     d="  M 617.27517,398.05483   C 617.27517,394.29242 620.35715,391.21045 624.11956,391.21045   L 656.22011,391.21045   C 660.00253,391.21045 663.06449,394.29242 663.06449,398.05483   L 663.06449,429.99528   C 663.06449,433.7777 660.00253,436.83966 656.22011,436.83966   L 624.11956,436.83966   C 620.35715,436.83966 617.27517,433.7777 617.27517,429.99528   z "
     id="path182" />
  <path
     style="fill:#ffffff;fill-rule:evenodd;fill-opacity:1;stroke:none;"
     d="  M 617.27517,449.58782   C 617.27517,445.82541 620.33713,442.76345 624.09954,442.76345   L 656.26013,442.76345   C 660.02254,442.76345 663.06449,445.82541 663.06449,449.58782   L 663.06449,481.42821   C 663.06449,485.19061 660.02254,488.23256 656.26013,488.23256   L 624.09954,488.23256   C 620.33713,488.23256 617.27517,485.19061 617.27517,481.42821   z "
     id="path184" />
  <path
     style="fill:#ffffff;fill-rule:evenodd;fill-opacity:1;stroke:none;"
     d="  M 617.27517,501.04076   C 617.27517,497.23833 620.35715,494.15635 624.15958,494.15635   L 656.20009,494.15635   C 660.00253,494.15635 663.06449,497.23833 663.06449,501.04076   L 663.06449,533.08127   C 663.06449,536.88371 660.00253,539.94567 656.20009,539.94567   L 624.15958,539.94567   C 620.35715,539.94567 617.27517,536.88371 617.27517,533.08127   z "
     id="path186" />
  <path
     style="fill:#ffffff;fill-rule:evenodd;fill-opacity:1;stroke:none;"
     d="  M 617.27517,552.69383   C 617.27517,548.93142 620.33713,545.86946 624.09954,545.86946   L 656.26013,545.86946   C 660.02254,545.86946 663.06449,548.93142 663.06449,552.69383   L 663.06449,584.53421   C 663.06449,588.29662 660.02254,591.33857 656.26013,591.33857   L 624.09954,591.33857   C 620.33713,591.33857 617.27517,588.29662 617.27517,584.53421   z "
     id="path188" />
  <path
     style="fill:#ffffff;fill-rule:evenodd;fill-opacity:1;stroke:none;"
     d="  M 617.27517,604.14677   C 617.27517,600.34433 620.35715,597.26236 624.15958,597.26236   L 656.20009,597.26236   C 660.00253,597.26236 663.06449,600.34433 663.06449,604.14677   L 663.06449,636.18728   C 663.06449,639.98972 660.00253,643.05168 656.20009,643.05168   L 624.15958,643.05168   C 620.35715,643.05168 617.27517,639.98972 617.27517,636.18728   z "
     id="path190" />
  <path
     style="fill:#ffffff;fill-rule:evenodd;fill-opacity:1;stroke:none;"
     d="  M 668.98828,88.776834   C 668.98828,84.9744 672.07025,81.892427 675.87269,81.892427   L 707.9132,81.892427   C 711.71563,81.892427 714.77759,84.9744 714.77759,88.776834   L 714.77759,120.81735   C 714.77759,124.61978 711.71563,127.68174 707.9132,127.68174   L 675.87269,127.68174   C 672.07025,127.68174 668.98828,124.61978 668.98828,120.81735   z "
     id="path192" />
  <path
     style="fill:#ffffff;fill-rule:evenodd;fill-opacity:1;stroke:none;"
     d="  M 668.98828,140.4299   C 668.98828,136.66749 672.05024,133.60553 675.81265,133.60553   L 707.97324,133.60553   C 711.73565,133.60553 714.77759,136.66749 714.77759,140.4299   L 714.77759,172.27029   C 714.77759,176.03269 711.73565,179.07464 707.97324,179.07464   L 675.81265,179.07464   C 672.05024,179.07464 668.98828,176.03269 668.98828,172.27029   z "
     id="path194" />
  <path
     style="fill:#ffffff;fill-rule:evenodd;fill-opacity:1;stroke:none;"
     d="  M 668.98828,191.88284   C 668.98828,188.08041 672.07025,184.99843 675.87269,184.99843   L 707.9132,184.99843   C 711.71563,184.99843 714.77759,188.08041 714.77759,191.88284   L 714.77759,223.92335   C 714.77759,227.72579 711.71563,230.78775 707.9132,230.78775   L 675.87269,230.78775   C 672.07025,230.78775 668.98828,227.72579 668.98828,223.92335   z "
     id="path196" />
  <path
     style="fill:#ffffff;fill-rule:evenodd;fill-opacity:1;stroke:none;"
     d="  M 668.98828,243.53591   C 668.98828,239.7735 672.05024,236.71154 675.81265,236.71154   L 707.97324,236.71154   C 711.73565,236.71154 714.77759,239.7735 714.77759,243.53591   L 714.77759,275.37629   C 714.77759,279.1387 711.73565,282.18065 707.97324,282.18065   L 675.81265,282.18065   C 672.05024,282.18065 668.98828,279.1387 668.98828,275.37629   z "
     id="path198" />
  <path
     style="fill:#ffffff;fill-rule:evenodd;fill-opacity:1;stroke:none;"
     d="  M 668.98828,294.98885   C 668.98828,291.18641 672.07025,288.10444 675.87269,288.10444   L 707.9132,288.10444   C 711.71563,288.10444 714.77759,291.18641 714.77759,294.98885   L 714.77759,327.02936   C 714.77759,330.8318 711.71563,333.89376 707.9132,333.89376   L 675.87269,333.89376   C 672.07025,333.89376 668.98828,330.8318 668.98828,327.02936   z "
     id="path200" />
  <path
     style="fill:#ffffff;fill-rule:evenodd;fill-opacity:1;stroke:none;"
     d="  M 668.98828,346.6219   C 668.98828,342.87951 672.05024,339.81755 675.79264,339.81755   L 707.99325,339.81755   C 711.73565,339.81755 714.77759,342.87951 714.77759,346.6219   L 714.77759,378.34221   C 714.77759,382.08461 711.73565,385.12655 707.99325,385.12655   L 675.79264,385.12655   C 672.05024,385.12655 668.98828,382.08461 668.98828,378.34221   z "
     id="path202" />
  <path
     style="fill:#ffffff;fill-rule:evenodd;fill-opacity:1;stroke:none;"
     d="  M 668.98828,398.05483   C 668.98828,394.29242 672.07025,391.21045 675.83266,391.21045   L 707.93321,391.21045   C 711.71563,391.21045 714.77759,394.29242 714.77759,398.05483   L 714.77759,429.99528   C 714.77759,433.7777 711.71563,436.83966 707.93321,436.83966   L 675.83266,436.83966   C 672.07025,436.83966 668.98828,433.7777 668.98828,429.99528   z "
     id="path204" />
  <path
     style="fill:#ffffff;fill-rule:evenodd;fill-opacity:1;stroke:none;"
     d="  M 668.98828,449.58782   C 668.98828,445.82541 672.05024,442.76345 675.81265,442.76345   L 707.97324,442.76345   C 711.73565,442.76345 714.77759,445.82541 714.77759,449.58782   L 714.77759,481.42821   C 714.77759,485.19061 711.73565,488.23256 707.97324,488.23256   L 675.81265,488.23256   C 672.05024,488.23256 668.98828,485.19061 668.98828,481.42821   z "
     id="path206" />
  <path
     style="fill:#ffffff;fill-rule:evenodd;fill-opacity:1;stroke:none;"
     d="  M 668.98828,501.04076   C 668.98828,497.23833 672.07025,494.15635 675.87269,494.15635   L 707.9132,494.15635   C 711.71563,494.15635 714.77759,497.23833 714.77759,501.04076   L 714.77759,533.08127   C 714.77759,536.88371 711.71563,539.94567 707.9132,539.94567   L 675.87269,539.94567   C 672.07025,539.94567 668.98828,536.88371 668.98828,533.08127   z "
     id="path208" />
  <path
     style="fill:#ffffff;fill-rule:evenodd;fill-opacity:1;stroke:none;"
     d="  M 668.98828,552.69383   C 668.98828,548.93142 672.05024,545.86946 675.81265,545.86946   L 707.97324,545.86946   C 711.73565,545.86946 714.77759,548.93142 714.77759,552.69383   L 714.77759,584.53421   C 714.77759,588.29662 711.73565,591.33857 707.97324,591.33857   L 675.81265,591.33857   C 672.05024,591.33857 668.98828,588.29662 668.98828,584.53421   z "
     id="path210" />
  <path
     style="fill:#ffffff;fill-rule:evenodd;fill-opacity:1;stroke:none;"
     d="  M 668.98828,604.14677   C 668.98828,600.34433 672.07025,597.26236 675.87269,597.26236   L 707.9132,597.26236   C 711.71563,597.26236 714.77759,600.34433 714.77759,604.14677   L 714.77759,636.18728   C 714.77759,639.98972 711.71563,643.05168 707.9132,643.05168   L 675.87269,643.05168   C 672.07025,643.05168 668.98828,639.98972 668.98828,636.18728   z "
     id="path212" />
  <path
     style="fill:#ffffff;fill-rule:evenodd;fill-opacity:1;stroke:none;"
     d="  M 720.38118,88.776834   C 720.38118,84.9744 723.46315,81.892427 727.26559,81.892427   L 759.3061,81.892427   C 763.10853,81.892427 766.17049,84.9744 766.17049,88.776834   L 766.17049,120.81735   C 766.17049,124.61978 763.10853,127.68174 759.3061,127.68174   L 727.26559,127.68174   C 723.46315,127.68174 720.38118,124.61978 720.38118,120.81735   z "
     id="path214" />
  <path
     style="fill:#ffffff;fill-rule:evenodd;fill-opacity:1;stroke:none;"
     d="  M 720.38118,140.4299   C 720.38118,136.66749 723.44314,133.60553 727.20555,133.60553   L 759.36614,133.60553   C 763.12855,133.60553 766.17049,136.66749 766.17049,140.4299   L 766.17049,172.27029   C 766.17049,176.03269 763.12855,179.07464 759.36614,179.07464   L 727.20555,179.07464   C 723.44314,179.07464 720.38118,176.03269 720.38118,172.27029   z "
     id="path216" />
  <path
     style="fill:#ffffff;fill-rule:evenodd;fill-opacity:1;stroke:none;"
     d="  M 720.38118,191.88284   C 720.38118,188.08041 723.46315,184.99843 727.26559,184.99843   L 759.3061,184.99843   C 763.10853,184.99843 766.17049,188.08041 766.17049,191.88284   L 766.17049,223.92335   C 766.17049,227.72579 763.10853,230.78775 759.3061,230.78775   L 727.26559,230.78775   C 723.46315,230.78775 720.38118,227.72579 720.38118,223.92335   z "
     id="path218" />
  <path
     style="fill:#ffffff;fill-rule:evenodd;fill-opacity:1;stroke:none;"
     d="  M 720.38118,243.53591   C 720.38118,239.7735 723.44314,236.71154 727.20555,236.71154   L 759.36614,236.71154   C 763.12855,236.71154 766.17049,239.7735 766.17049,243.53591   L 766.17049,275.37629   C 766.17049,279.1387 763.12855,282.18065 759.36614,282.18065   L 727.20555,282.18065   C 723.44314,282.18065 720.38118,279.1387 720.38118,275.37629   z "
     id="path220" />
  <path
     style="fill:#ffffff;fill-rule:evenodd;fill-opacity:1;stroke:none;"
     d="  M 720.38118,294.98885   C 720.38118,291.18641 723.46315,288.10444 727.26559,288.10444   L 759.3061,288.10444   C 763.10853,288.10444 766.17049,291.18641 766.17049,294.98885   L 766.17049,327.02936   C 766.17049,330.8318 763.10853,333.89376 759.3061,333.89376   L 727.26559,333.89376   C 723.46315,333.89376 720.38118,330.8318 720.38118,327.02936   z "
     id="path222" />
  <path
     style="fill:#ffffff;fill-rule:evenodd;fill-opacity:1;stroke:none;"
     d="  M 720.38118,346.6219   C 720.38118,342.87951 723.44314,339.81755 727.18554,339.81755   L 759.38615,339.81755   C 763.12855,339.81755 766.17049,342.87951 766.17049,346.6219   L 766.17049,378.34221   C 766.17049,382.08461 763.12855,385.12655 759.38615,385.12655   L 727.18554,385.12655   C 723.44314,385.12655 720.38118,382.08461 720.38118,378.34221   z "
     id="path224" />
  <path
     style="fill:#ffffff;fill-rule:evenodd;fill-opacity:1;stroke:none;"
     d="  M 720.38118,398.05483   C 720.38118,394.29242 723.46315,391.21045 727.22556,391.21045   L 759.32611,391.21045   C 763.10853,391.21045 766.17049,394.29242 766.17049,398.05483   L 766.17049,429.99528   C 766.17049,433.7777 763.10853,436.83966 759.32611,436.83966   L 727.22556,436.83966   C 723.46315,436.83966 720.38118,433.7777 720.38118,429.99528   z "
     id="path226" />
  <path
     style="fill:#ffffff;fill-rule:evenodd;fill-opacity:1;stroke:none;"
     d="  M 720.38118,449.58782   C 720.38118,445.82541 723.44314,442.76345 727.20555,442.76345   L 759.36614,442.76345   C 763.12855,442.76345 766.17049,445.82541 766.17049,449.58782   L 766.17049,481.42821   C 766.17049,485.19061 763.12855,488.23256 759.36614,488.23256   L 727.20555,488.23256   C 723.44314,488.23256 720.38118,485.19061 720.38118,481.42821   z "
     id="path228" />
  <path
     style="fill:#ffffff;fill-rule:evenodd;fill-opacity:1;stroke:none;"
     d="  M 720.38118,501.04076   C 720.38118,497.23833 723.46315,494.15635 727.26559,494.15635   L 759.3061,494.15635   C 763.10853,494.15635 766.17049,497.23833 766.17049,501.04076   L 766.17049,533.08127   C 766.17049,536.88371 763.10853,539.94567 759.3061,539.94567   L 727.26559,539.94567   C 723.46315,539.94567 720.38118,536.88371 720.38118,533.08127   z "
     id="path230" />
  <path
     style="fill:#ffffff;fill-rule:evenodd;fill-opacity:1;stroke:none;"
     d="  M 720.38118,552.69383   C 720.38118,548.93142 723.44314,545.86946 727.20555,545.86946   L 759.36614,545.86946   C 763.12855,545.86946 766.17049,548.93142 766.17049,552.69383   L 766.17049,584.53421   C 766.17049,588.29662 763.12855,591.33857 759.36614,591.33857   L 727.20555,591.33857   C 723.44314,591.33857 720.38118,588.29662 720.38118,584.53421   z "
     id="path232" />
  <path
     style="fill:#ffffff;fill-rule:evenodd;fill-opacity:1;stroke:none;"
     d="  M 720.38118,604.14677   C 720.38118,600.34433 723.46315,597.26236 727.26559,597.26236   L 759.3061,597.26236   C 763.10853,597.26236 766.17049,600.34433 766.17049,604.14677   L 766.17049,636.18728   C 766.17049,639.98972 763.10853,643.05168 759.3061,643.05168   L 727.26559,643.05168   C 723.46315,643.05168 720.38118,639.98972 720.38118,636.18728   z "
     id="path234" />
  <path
     style="fill:#ffffff;fill-rule:evenodd;fill-opacity:1;stroke:none;"
     d="  M 772.09429,88.736808   C 772.09429,84.9744 775.17626,81.892427 778.93867,81.892427   L 810.87912,81.892427   C 814.66154,81.892427 817.7235,84.9744 817.7235,88.736808   L 817.7235,120.83736   C 817.7235,124.61978 814.66154,127.68174 810.87912,127.68174   L 778.93867,127.68174   C 775.17626,127.68174 772.09429,124.61978 772.09429,120.83736   z "
     id="path236" />
  <path
     style="fill:#ffffff;fill-rule:evenodd;fill-opacity:1;stroke:none;"
     d="  M 772.09429,140.4299   C 772.09429,136.66749 775.15625,133.60553 778.91866,133.60553   L 810.91914,133.60553   C 814.68155,133.60553 817.7235,136.66749 817.7235,140.4299   L 817.7235,172.27029   C 817.7235,176.03269 814.68155,179.07464 810.91914,179.07464   L 778.91866,179.07464   C 775.15625,179.07464 772.09429,176.03269 772.09429,172.27029   z "
     id="path238" />
  <path
     style="fill:#ffffff;fill-rule:evenodd;fill-opacity:1;stroke:none;"
     d="  M 772.09429,191.84282   C 772.09429,188.08041 775.17626,184.99843 778.93867,184.99843   L 810.87912,184.99843   C 814.66154,184.99843 817.7235,188.08041 817.7235,191.84282   L 817.7235,223.94337   C 817.7235,227.72579 814.66154,230.78775 810.87912,230.78775   L 778.93867,230.78775   C 775.17626,230.78775 772.09429,227.72579 772.09429,223.94337   z "
     id="path240" />
  <path
     style="fill:#ffffff;fill-rule:evenodd;fill-opacity:1;stroke:none;"
     d="  M 772.09429,243.53591   C 772.09429,239.7735 775.15625,236.71154 778.91866,236.71154   L 810.91914,236.71154   C 814.68155,236.71154 817.7235,239.7735 817.7235,243.53591   L 817.7235,275.37629   C 817.7235,279.1387 814.68155,282.18065 810.91914,282.18065   L 778.91866,282.18065   C 775.15625,282.18065 772.09429,279.1387 772.09429,275.37629   z "
     id="path242" />
  <path
     style="fill:#ffffff;fill-rule:evenodd;fill-opacity:1;stroke:none;"
     d="  M 772.09429,294.94882   C 772.09429,291.18641 775.17626,288.10444 778.93867,288.10444   L 810.87912,288.10444   C 814.66154,288.10444 817.7235,291.18641 817.7235,294.94882   L 817.7235,327.04937   C 817.7235,330.8318 814.66154,333.89376 810.87912,333.89376   L 778.93867,333.89376   C 775.17626,333.89376 772.09429,330.8318 772.09429,327.04937   z "
     id="path244" />
  <path
     style="fill:#ffffff;fill-rule:evenodd;fill-opacity:1;stroke:none;"
     d="  M 772.09429,346.6219   C 772.09429,342.87951 775.15625,339.81755 778.89864,339.81755   L 810.93916,339.81755   C 814.68155,339.81755 817.7235,342.87951 817.7235,346.6219   L 817.7235,378.34221   C 817.7235,382.08461 814.68155,385.14657 810.93916,385.14657   L 778.89864,385.14657   C 775.15625,385.14657 772.09429,382.08461 772.09429,378.34221   z "
     id="path246" />
  <path
     style="fill:#ffffff;fill-rule:evenodd;fill-opacity:1;stroke:none;"
     d="  M 772.09429,398.05483   C 772.09429,394.29242 775.17626,391.21045 778.93867,391.21045   L 810.87912,391.21045   C 814.66154,391.21045 817.7235,394.29242 817.7235,398.05483   L 817.7235,429.99528   C 817.7235,433.7777 814.66154,436.83966 810.87912,436.83966   L 778.93867,436.83966   C 775.17626,436.83966 772.09429,433.7777 772.09429,429.99528   z "
     id="path248" />
  <path
     style="fill:#ffffff;fill-rule:evenodd;fill-opacity:1;stroke:none;"
     d="  M 772.09429,449.58782   C 772.09429,445.82541 775.15625,442.76345 778.91866,442.76345   L 810.91914,442.76345   C 814.68155,442.76345 817.7235,445.82541 817.7235,449.58782   L 817.7235,481.42821   C 817.7235,485.19061 814.68155,488.23256 810.91914,488.23256   L 778.91866,488.23256   C 775.15625,488.23256 772.09429,485.19061 772.09429,481.42821   z "
     id="path250" />
  <path
     style="fill:#ffffff;fill-rule:evenodd;fill-opacity:1;stroke:none;"
     d="  M 772.09429,501.00074   C 772.09429,497.23833 775.17626,494.15635 778.93867,494.15635   L 810.87912,494.15635   C 814.66154,494.15635 817.7235,497.23833 817.7235,501.00074   L 817.7235,533.10129   C 817.7235,536.88371 814.66154,539.94567 810.87912,539.94567   L 778.93867,539.94567   C 775.17626,539.94567 772.09429,536.88371 772.09429,533.10129   z "
     id="path252" />
  <path
     style="fill:#ffffff;fill-rule:evenodd;fill-opacity:1;stroke:none;"
     d="  M 772.09429,552.69383   C 772.09429,548.93142 775.15625,545.86946 778.91866,545.86946   L 810.91914,545.86946   C 814.68155,545.86946 817.7235,548.93142 817.7235,552.69383   L 817.7235,584.53421   C 817.7235,588.29662 814.68155,591.33857 810.91914,591.33857   L 778.91866,591.33857   C 775.15625,591.33857 772.09429,588.29662 772.09429,584.53421   z "
     id="path254" />
  <path
     style="fill:#ffffff;fill-rule:evenodd;fill-opacity:1;stroke:none;"
     d="  M 772.09429,604.10674   C 772.09429,600.34433 775.17626,597.26236 778.93867,597.26236   L 810.87912,597.26236   C 814.66154,597.26236 817.7235,600.34433 817.7235,604.10674   L 817.7235,636.20729   C 817.7235,639.98972 814.66154,643.05168 810.87912,643.05168   L 778.93867,643.05168   C 775.17626,643.05168 772.09429,639.98972 772.09429,636.20729   z "
     id="path256" />
  <path
     style="fill:#ffffff;fill-rule:evenodd;fill-opacity:1;stroke:none;"
     d="  M 823.48719,88.736808   C 823.48719,84.9744 826.56916,81.892427 830.33157,81.892427   L 862.27202,81.892427   C 866.05444,81.892427 869.1164,84.9744 869.1164,88.736808   L 869.1164,120.83736   C 869.1164,124.61978 866.05444,127.68174 862.27202,127.68174   L 830.33157,127.68174   C 826.56916,127.68174 823.48719,124.61978 823.48719,120.83736   z "
     id="path258" />
  <path
     style="fill:#ffffff;fill-rule:evenodd;fill-opacity:1;stroke:none;"
     d="  M 823.48719,140.4299   C 823.48719,136.66749 826.54915,133.60553 830.31156,133.60553   L 862.31204,133.60553   C 866.07445,133.60553 869.1164,136.66749 869.1164,140.4299   L 869.1164,172.27029   C 869.1164,176.03269 866.07445,179.07464 862.31204,179.07464   L 830.31156,179.07464   C 826.54915,179.07464 823.48719,176.03269 823.48719,172.27029   z "
     id="path260" />
  <path
     style="fill:#ffffff;fill-rule:evenodd;fill-opacity:1;stroke:none;"
     d="  M 823.48719,191.84282   C 823.48719,188.08041 826.56916,184.99843 830.33157,184.99843   L 862.27202,184.99843   C 866.05444,184.99843 869.1164,188.08041 869.1164,191.84282   L 869.1164,223.94337   C 869.1164,227.72579 866.05444,230.78775 862.27202,230.78775   L 830.33157,230.78775   C 826.56916,230.78775 823.48719,227.72579 823.48719,223.94337   z "
     id="path262" />
  <path
     style="fill:#ffffff;fill-rule:evenodd;fill-opacity:1;stroke:none;"
     d="  M 823.48719,243.53591   C 823.48719,239.7735 826.54915,236.71154 830.31156,236.71154   L 862.31204,236.71154   C 866.07445,236.71154 869.1164,239.7735 869.1164,243.53591   L 869.1164,275.37629   C 869.1164,279.1387 866.07445,282.18065 862.31204,282.18065   L 830.31156,282.18065   C 826.54915,282.18065 823.48719,279.1387 823.48719,275.37629   z "
     id="path264" />
  <path
     style="fill:#ffffff;fill-rule:evenodd;fill-opacity:1;stroke:none;"
     d="  M 823.48719,294.94882   C 823.48719,291.18641 826.56916,288.10444 830.33157,288.10444   L 862.27202,288.10444   C 866.05444,288.10444 869.1164,291.18641 869.1164,294.94882   L 869.1164,327.04937   C 869.1164,330.8318 866.05444,333.89376 862.27202,333.89376   L 830.33157,333.89376   C 826.56916,333.89376 823.48719,330.8318 823.48719,327.04937   z "
     id="path266" />
  <path
     style="fill:#ffffff;fill-rule:evenodd;fill-opacity:1;stroke:none;"
     d="  M 823.48719,346.6219   C 823.48719,342.87951 826.54915,339.81755 830.29154,339.81755   L 862.33206,339.81755   C 866.07445,339.81755 869.1164,342.87951 869.1164,346.6219   L 869.1164,378.34221   C 869.1164,382.08461 866.07445,385.14657 862.33206,385.14657   L 830.29154,385.14657   C 826.54915,385.14657 823.48719,382.08461 823.48719,378.34221   z "
     id="path268" />
  <path
     style="fill:#ffffff;fill-rule:evenodd;fill-opacity:1;stroke:none;"
     d="  M 823.48719,398.05483   C 823.48719,394.29242 826.56916,391.21045 830.33157,391.21045   L 862.27202,391.21045   C 866.05444,391.21045 869.1164,394.29242 869.1164,398.05483   L 869.1164,429.99528   C 869.1164,433.7777 866.05444,436.83966 862.27202,436.83966   L 830.33157,436.83966   C 826.56916,436.83966 823.48719,433.7777 823.48719,429.99528   z "
     id="path270" />
  <path
     style="fill:#ffffff;fill-rule:evenodd;fill-opacity:1;stroke:none;"
     d="  M 823.48719,449.58782   C 823.48719,445.82541 826.54915,442.76345 830.31156,442.76345   L 862.31204,442.76345   C 866.07445,442.76345 869.1164,445.82541 869.1164,449.58782   L 869.1164,481.42821   C 869.1164,485.19061 866.07445,488.23256 862.31204,488.23256   L 830.31156,488.23256   C 826.54915,488.23256 823.48719,485.19061 823.48719,481.42821   z "
     id="path272" />
  <path
     style="fill:#ffffff;fill-rule:evenodd;fill-opacity:1;stroke:none;"
     d="  M 823.48719,501.00074   C 823.48719,497.23833 826.56916,494.15635 830.33157,494.15635   L 862.27202,494.15635   C 866.05444,494.15635 869.1164,497.23833 869.1164,501.00074   L 869.1164,533.10129   C 869.1164,536.88371 866.05444,539.94567 862.27202,539.94567   L 830.33157,539.94567   C 826.56916,539.94567 823.48719,536.88371 823.48719,533.10129   z "
     id="path274" />
  <path
     style="fill:#ffffff;fill-rule:evenodd;fill-opacity:1;stroke:none;"
     d="  M 823.48719,552.69383   C 823.48719,548.93142 826.54915,545.86946 830.31156,545.86946   L 862.31204,545.86946   C 866.07445,545.86946 869.1164,548.93142 869.1164,552.69383   L 869.1164,584.53421   C 869.1164,588.29662 866.07445,591.33857 862.31204,591.33857   L 830.31156,591.33857   C 826.54915,591.33857 823.48719,588.29662 823.48719,584.53421   z "
     id="path276" />
  <path
     style="fill:#ffffff;fill-rule:evenodd;fill-opacity:1;stroke:none;"
     d="  M 823.48719,604.10674   C 823.48719,600.34433 826.56916,597.26236 830.33157,597.26236   L 862.27202,597.26236   C 866.05444,597.26236 869.1164,600.34433 869.1164,604.10674   L 869.1164,636.20729   C 869.1164,639.98972 866.05444,643.05168 862.27202,643.05168   L 830.33157,643.05168   C 826.56916,643.05168 823.48719,639.98972 823.48719,636.20729   z "
     id="path278" />
  <path
     style="fill:#ffffff;fill-rule:evenodd;fill-opacity:1;stroke:none;"
     d="  M 875.04019,88.776834   C 875.04019,84.9744 878.12217,81.892427 881.9246,81.892427   L 913.98512,81.892427   C 917.78756,81.892427 920.82951,84.9744 920.82951,88.776834   L 920.82951,120.83736   C 920.82951,124.63979 917.78756,127.68174 913.98512,127.68174   L 881.9246,127.68174   C 878.12217,127.68174 875.04019,124.63979 875.04019,120.83736   z "
     id="path280" />
  <path
     style="fill:#ffffff;fill-rule:evenodd;fill-opacity:1;stroke:none;"
     d="  M 875.04019,140.44991   C 875.04019,136.68751 878.12217,133.60553 881.88457,133.60553   L 914.02515,133.60553   C 917.78756,133.60553 920.82951,136.68751 920.82951,140.44991   L 920.82951,172.27029   C 920.82951,176.03269 917.78756,179.07464 914.02515,179.07464   L 881.88457,179.07464   C 878.12217,179.07464 875.04019,176.03269 875.04019,172.27029   z "
     id="path282" />
  <path
     style="fill:#ffffff;fill-rule:evenodd;fill-opacity:1;stroke:none;"
     d="  M 875.04019,191.88284   C 875.04019,188.08041 878.12217,184.99843 881.9246,184.99843   L 913.98512,184.99843   C 917.78756,184.99843 920.82951,188.08041 920.82951,191.88284   L 920.82951,223.94337   C 920.82951,227.7458 917.78756,230.78775 913.98512,230.78775   L 881.9246,230.78775   C 878.12217,230.78775 875.04019,227.7458 875.04019,223.94337   z "
     id="path284" />
  <path
     style="fill:#ffffff;fill-rule:evenodd;fill-opacity:1;stroke:none;"
     d="  M 875.04019,243.55592   C 875.04019,239.79351 878.12217,236.71154 881.88457,236.71154   L 914.02515,236.71154   C 917.78756,236.71154 920.82951,239.79351 920.82951,243.55592   L 920.82951,275.37629   C 920.82951,279.1387 917.78756,282.18065 914.02515,282.18065   L 881.88457,282.18065   C 878.12217,282.18065 875.04019,279.1387 875.04019,275.37629   z "
     id="path286" />
  <path
     style="fill:#ffffff;fill-rule:evenodd;fill-opacity:1;stroke:none;"
     d="  M 875.04019,294.98885   C 875.04019,291.18641 878.12217,288.10444 881.9246,288.10444   L 913.98512,288.10444   C 917.78756,288.10444 920.82951,291.18641 920.82951,294.98885   L 920.82951,327.04937   C 920.82951,330.85181 917.78756,333.89376 913.98512,333.89376   L 881.9246,333.89376   C 878.12217,333.89376 875.04019,330.85181 875.04019,327.04937   z "
     id="path288" />
  <path
     style="fill:#ffffff;fill-rule:evenodd;fill-opacity:1;stroke:none;"
     d="  M 875.04019,346.6219   C 875.04019,342.8595 878.08214,339.81755 881.84455,339.81755   L 914.06518,339.81755   C 917.78756,339.81755 920.82951,342.8595 920.82951,346.6219   L 920.82951,378.36222   C 920.82951,382.08461 917.78756,385.12655 914.06518,385.12655   L 881.84455,385.12655   C 878.08214,385.12655 875.04019,382.08461 875.04019,378.36222   z "
     id="path290" />
  <path
     style="fill:#ffffff;fill-rule:evenodd;fill-opacity:1;stroke:none;"
     d="  M 875.04019,398.05483   C 875.04019,394.29242 878.12217,391.21045 881.88457,391.21045   L 913.98512,391.21045   C 917.78756,391.21045 920.82951,394.29242 920.82951,398.05483   L 920.82951,429.99528   C 920.82951,433.79771 917.78756,436.83966 913.98512,436.83966   L 881.88457,436.83966   C 878.12217,436.83966 875.04019,433.79771 875.04019,429.99528   z "
     id="path292" />
  <path
     style="fill:#ffffff;fill-rule:evenodd;fill-opacity:1;stroke:none;"
     d="  M 875.04019,449.60783   C 875.04019,445.84543 878.12217,442.76345 881.88457,442.76345   L 914.02515,442.76345   C 917.78756,442.76345 920.82951,445.84543 920.82951,449.60783   L 920.82951,481.42821   C 920.82951,485.19061 917.78756,488.23256 914.02515,488.23256   L 881.88457,488.23256   C 878.12217,488.23256 875.04019,485.19061 875.04019,481.42821   z "
     id="path294" />
  <path
     style="fill:#ffffff;fill-rule:evenodd;fill-opacity:1;stroke:none;"
     d="  M 875.04019,501.04076   C 875.04019,497.23833 878.12217,494.15635 881.9246,494.15635   L 913.98512,494.15635   C 917.78756,494.15635 920.82951,497.23833 920.82951,501.04076   L 920.82951,533.10129   C 920.82951,536.90372 917.78756,539.94567 913.98512,539.94567   L 881.9246,539.94567   C 878.12217,539.94567 875.04019,536.90372 875.04019,533.10129   z "
     id="path296" />
  <path
     style="fill:#ffffff;fill-rule:evenodd;fill-opacity:1;stroke:none;"
     d="  M 875.04019,552.71384   C 875.04019,548.95143 878.12217,545.86946 881.88457,545.86946   L 914.02515,545.86946   C 917.78756,545.86946 920.82951,548.95143 920.82951,552.71384   L 920.82951,584.53421   C 920.82951,588.29662 917.78756,591.33857 914.02515,591.33857   L 881.88457,591.33857   C 878.12217,591.33857 875.04019,588.29662 875.04019,584.53421   z "
     id="path298" />
  <path
     style="fill:#ffffff;fill-rule:evenodd;fill-opacity:1;stroke:none;"
     d="  M 875.04019,604.14677   C 875.04019,600.34433 878.12217,597.26236 881.9246,597.26236   L 913.98512,597.26236   C 917.78756,597.26236 920.82951,600.34433 920.82951,604.14677   L 920.82951,636.20729   C 920.82951,640.00973 917.78756,643.05168 913.98512,643.05168   L 881.9246,643.05168   C 878.12217,643.05168 875.04019,640.00973 875.04019,636.20729   z "
     id="path300" />
  <path
     style="fill:#ffffff;fill-rule:evenodd;fill-opacity:1;stroke:none;"
     d="  M 926.43309,88.776834   C 926.43309,84.9744 929.51507,81.892427 933.3175,81.892427   L 965.37803,81.892427   C 969.18046,81.892427 972.22241,84.9744 972.22241,88.776834   L 972.22241,120.83736   C 972.22241,124.63979 969.18046,127.68174 965.37803,127.68174   L 933.3175,127.68174   C 929.51507,127.68174 926.43309,124.63979 926.43309,120.83736   z "
     id="path302" />
  <path
     style="fill:#ffffff;fill-rule:evenodd;fill-opacity:1;stroke:none;"
     d="  M 926.43309,140.44991   C 926.43309,136.68751 929.51507,133.60553 933.27747,133.60553   L 965.41805,133.60553   C 969.18046,133.60553 972.22241,136.68751 972.22241,140.44991   L 972.22241,172.27029   C 972.22241,176.03269 969.18046,179.07464 965.41805,179.07464   L 933.27747,179.07464   C 929.51507,179.07464 926.43309,176.03269 926.43309,172.27029   z "
     id="path304" />
  <path
     style="fill:#ffffff;fill-rule:evenodd;fill-opacity:1;stroke:none;"
     d="  M 926.43309,191.88284   C 926.43309,188.08041 929.51507,184.99843 933.3175,184.99843   L 965.37803,184.99843   C 969.18046,184.99843 972.22241,188.08041 972.22241,191.88284   L 972.22241,223.94337   C 972.22241,227.7458 969.18046,230.78775 965.37803,230.78775   L 933.3175,230.78775   C 929.51507,230.78775 926.43309,227.7458 926.43309,223.94337   z "
     id="path306" />
  <path
     style="fill:#ffffff;fill-rule:evenodd;fill-opacity:1;stroke:none;"
     d="  M 926.43309,243.55592   C 926.43309,239.79351 929.51507,236.71154 933.27747,236.71154   L 965.41805,236.71154   C 969.18046,236.71154 972.22241,239.79351 972.22241,243.55592   L 972.22241,275.37629   C 972.22241,279.1387 969.18046,282.18065 965.41805,282.18065   L 933.27747,282.18065   C 929.51507,282.18065 926.43309,279.1387 926.43309,275.37629   z "
     id="path308" />
  <path
     style="fill:#ffffff;fill-rule:evenodd;fill-opacity:1;stroke:none;"
     d="  M 926.43309,294.98885   C 926.43309,291.18641 929.51507,288.10444 933.3175,288.10444   L 965.37803,288.10444   C 969.18046,288.10444 972.22241,291.18641 972.22241,294.98885   L 972.22241,327.04937   C 972.22241,330.85181 969.18046,333.89376 965.37803,333.89376   L 933.3175,333.89376   C 929.51507,333.89376 926.43309,330.85181 926.43309,327.04937   z "
     id="path310" />
  <path
     style="fill:#ffffff;fill-rule:evenodd;fill-opacity:1;stroke:none;"
     d="  M 926.43309,346.6219   C 926.43309,342.8595 929.47504,339.81755 933.23745,339.81755   L 965.45808,339.81755   C 969.18046,339.81755 972.22241,342.8595 972.22241,346.6219   L 972.22241,378.36222   C 972.22241,382.08461 969.18046,385.12655 965.45808,385.12655   L 933.23745,385.12655   C 929.47504,385.12655 926.43309,382.08461 926.43309,378.36222   z "
     id="path312" />
  <path
     style="fill:#ffffff;fill-rule:evenodd;fill-opacity:1;stroke:none;"
     d="  M 926.43309,398.05483   C 926.43309,394.29242 929.51507,391.21045 933.27747,391.21045   L 965.37803,391.21045   C 969.18046,391.21045 972.22241,394.29242 972.22241,398.05483   L 972.22241,429.99528   C 972.22241,433.79771 969.18046,436.83966 965.37803,436.83966   L 933.27747,436.83966   C 929.51507,436.83966 926.43309,433.79771 926.43309,429.99528   z "
     id="path314" />
  <path
     style="fill:#ffffff;fill-rule:evenodd;fill-opacity:1;stroke:none;"
     d="  M 926.43309,449.60783   C 926.43309,445.84543 929.51507,442.76345 933.27747,442.76345   L 965.41805,442.76345   C 969.18046,442.76345 972.22241,445.84543 972.22241,449.60783   L 972.22241,481.42821   C 972.22241,485.19061 969.18046,488.23256 965.41805,488.23256   L 933.27747,488.23256   C 929.51507,488.23256 926.43309,485.19061 926.43309,481.42821   z "
     id="path316" />
  <path
     style="fill:#ffffff;fill-rule:evenodd;fill-opacity:1;stroke:none;"
     d="  M 926.43309,501.04076   C 926.43309,497.23833 929.51507,494.15635 933.3175,494.15635   L 965.37803,494.15635   C 969.18046,494.15635 972.22241,497.23833 972.22241,501.04076   L 972.22241,533.10129   C 972.22241,536.90372 969.18046,539.94567 965.37803,539.94567   L 933.3175,539.94567   C 929.51507,539.94567 926.43309,536.90372 926.43309,533.10129   z "
     id="path318" />
  <path
     style="fill:#ffffff;fill-rule:evenodd;fill-opacity:1;stroke:none;"
     d="  M 926.43309,552.71384   C 926.43309,548.95143 929.51507,545.86946 933.27747,545.86946   L 965.41805,545.86946   C 969.18046,545.86946 972.22241,548.95143 972.22241,552.71384   L 972.22241,584.53421   C 972.22241,588.29662 969.18046,591.33857 965.41805,591.33857   L 933.27747,591.33857   C 929.51507,591.33857 926.43309,588.29662 926.43309,584.53421   z "
     id="path320" />
  <path
     style="fill:#ffffff;fill-rule:evenodd;fill-opacity:1;stroke:none;"
     d="  M 926.43309,604.14677   C 926.43309,600.34433 929.51507,597.26236 933.3175,597.26236   L 965.37803,597.26236   C 969.18046,597.26236 972.22241,600.34433 972.22241,604.14677   L 972.22241,636.20729   C 972.22241,640.00973 969.18046,643.05168 965.37803,643.05168   L 933.3175,643.05168   C 929.51507,643.05168 926.43309,640.00973 926.43309,636.20729   z "
     id="path322" />
  <path
     style="fill:#ffffff;fill-rule:evenodd;fill-opacity:1;stroke:none;"
     d="  M 977.82599,88.776834   C 977.82599,84.9744 980.90797,81.892427 984.7104,81.892427   L 1017.0911,81.892427   C 1020.8936,81.892427 1023.9355,84.9744 1023.9355,88.776834   L 1023.9355,120.83736   C 1023.9355,124.63979 1020.8936,127.68174 1017.0911,127.68174   L 984.7104,127.68174   C 980.90797,127.68174 977.82599,124.63979 977.82599,120.83736   z "
     id="path324" />
  <path
     style="fill:#ffffff;fill-rule:evenodd;fill-opacity:1;stroke:none;"
     d="  M 977.82599,140.44991   C 977.82599,136.68751 980.90797,133.60553 984.67038,133.60553   L 1017.1312,133.60553   C 1020.8936,133.60553 1023.9355,136.68751 1023.9355,140.44991   L 1023.9355,172.27029   C 1023.9355,176.03269 1020.8936,179.07464 1017.1312,179.07464   L 984.67038,179.07464   C 980.90797,179.07464 977.82599,176.03269 977.82599,172.27029   z "
     id="path326" />
  <path
     style="fill:#ffffff;fill-rule:evenodd;fill-opacity:1;stroke:none;"
     d="  M 977.82599,191.88284   C 977.82599,188.08041 980.90797,184.99843 984.7104,184.99843   L 1017.0911,184.99843   C 1020.8936,184.99843 1023.9355,188.08041 1023.9355,191.88284   L 1023.9355,223.94337   C 1023.9355,227.7458 1020.8936,230.78775 1017.0911,230.78775   L 984.7104,230.78775   C 980.90797,230.78775 977.82599,227.7458 977.82599,223.94337   z "
     id="path328" />
  <path
     style="fill:#ffffff;fill-rule:evenodd;fill-opacity:1;stroke:none;"
     d="  M 977.82599,243.55592   C 977.82599,239.79351 980.90797,236.71154 984.67038,236.71154   L 1017.1312,236.71154   C 1020.8936,236.71154 1023.9355,239.79351 1023.9355,243.55592   L 1023.9355,275.37629   C 1023.9355,279.1387 1020.8936,282.18065 1017.1312,282.18065   L 984.67038,282.18065   C 980.90797,282.18065 977.82599,279.1387 977.82599,275.37629   z "
     id="path330" />
  <path
     style="fill:#ffffff;fill-rule:evenodd;fill-opacity:1;stroke:none;"
     d="  M 977.82599,294.98885   C 977.82599,291.18641 980.90797,288.10444 984.7104,288.10444   L 1017.0911,288.10444   C 1020.8936,288.10444 1023.9355,291.18641 1023.9355,294.98885   L 1023.9355,327.04937   C 1023.9355,330.85181 1020.8936,333.89376 1017.0911,333.89376   L 984.7104,333.89376   C 980.90797,333.89376 977.82599,330.85181 977.82599,327.04937   z "
     id="path332" />
  <path
     style="fill:#ffffff;fill-rule:evenodd;fill-opacity:1;stroke:none;"
     d="  M 977.82599,346.6219   C 977.82599,342.8595 980.86794,339.81755 984.63035,339.81755   L 1017.1712,339.81755   C 1020.8936,339.81755 1023.9355,342.8595 1023.9355,346.6219   L 1023.9355,378.36222   C 1023.9355,382.08461 1020.8936,385.12655 1017.1712,385.12655   L 984.63035,385.12655   C 980.86794,385.12655 977.82599,382.08461 977.82599,378.36222   z "
     id="path334" />
  <path
     style="fill:#ffffff;fill-rule:evenodd;fill-opacity:1;stroke:none;"
     d="  M 977.82599,398.05483   C 977.82599,394.29242 980.90797,391.21045 984.67038,391.21045   L 1017.0911,391.21045   C 1020.8936,391.21045 1023.9355,394.29242 1023.9355,398.05483   L 1023.9355,429.99528   C 1023.9355,433.79771 1020.8936,436.83966 1017.0911,436.83966   L 984.67038,436.83966   C 980.90797,436.83966 977.82599,433.79771 977.82599,429.99528   z "
     id="path336" />
  <path
     style="fill:#ffffff;fill-rule:evenodd;fill-opacity:1;stroke:none;"
     d="  M 977.82599,449.60783   C 977.82599,445.84543 980.90797,442.76345 984.67038,442.76345   L 1017.1312,442.76345   C 1020.8936,442.76345 1023.9355,445.84543 1023.9355,449.60783   L 1023.9355,481.42821   C 1023.9355,485.19061 1020.8936,488.23256 1017.1312,488.23256   L 984.67038,488.23256   C 980.90797,488.23256 977.82599,485.19061 977.82599,481.42821   z "
     id="path338" />
  <path
     style="fill:#ffffff;fill-rule:evenodd;fill-opacity:1;stroke:none;"
     d="  M 977.82599,501.04076   C 977.82599,497.23833 980.90797,494.15635 984.7104,494.15635   L 1017.0911,494.15635   C 1020.8936,494.15635 1023.9355,497.23833 1023.9355,501.04076   L 1023.9355,533.10129   C 1023.9355,536.90372 1020.8936,539.94567 1017.0911,539.94567   L 984.7104,539.94567   C 980.90797,539.94567 977.82599,536.90372 977.82599,533.10129   z "
     id="path340" />
  <path
     style="fill:#ffffff;fill-rule:evenodd;fill-opacity:1;stroke:none;"
     d="  M 977.82599,552.71384   C 977.82599,548.95143 980.90797,545.86946 984.67038,545.86946   L 1017.1312,545.86946   C 1020.8936,545.86946 1023.9355,548.95143 1023.9355,552.71384   L 1023.9355,584.53421   C 1023.9355,588.29662 1020.8936,591.33857 1017.1312,591.33857   L 984.67038,591.33857   C 980.90797,591.33857 977.82599,588.29662 977.82599,584.53421   z "
     id="path342" />
  <path
     style="fill:#ffffff;fill-rule:evenodd;fill-opacity:1;stroke:none;"
     d="  M 977.82599,604.14677   C 977.82599,600.34433 980.90797,597.26236 984.7104,597.26236   L 1017.0911,597.26236   C 1020.8936,597.26236 1023.9355,600.34433 1023.9355,604.14677   L 1023.9355,636.20729   C 1023.9355,640.00973 1020.8936,643.05168 1017.0911,643.05168   L 984.7104,643.05168   C 980.90797,643.05168 977.82599,640.00973 977.82599,636.20729   z "
     id="path344" />
</svg>
