<?xml version="1.0" encoding="UTF-8" standalone="no"?>
<!DOCTYPE svg PUBLIC "-//W3C//DTD SVG 1.1//EN"
"http://www.w3.org/Graphics/SVG/1.1/DTD/svg11.dtd">


<!-- Page 3 -->
<svg x="0" y="0" width="1466" height="825" viewBox="0 0 1466 825" version="1.1" xmlns="http://www.w3.org/2000/svg" xmlns:xlink="http://www.w3.org/1999/xlink"
style="display: block;margin-left: auto;margin-right: auto;">
<defs>
<clipPath id="c_3"><path d="M0,0H1466V825H0Z"/></clipPath>
<clipPath id="c0"><path d="M0,825V0H1466.6V825Z"/></clipPath>
<clipPath id="c1"><path d="M163.4,639.2V90.4H830.1V639.2Z"/></clipPath>

<style type="text/css"><![CDATA[
text { white-space: pre; }
path, image { pointer-events: none; }

.s1_3{
font-size: 16.80px;
font-family: LiberationSansNarrow-Bold_z;
fill: #404040;
}
.s2_3{
font-size: 16.20px;
font-family: LiberationSansNarrow_13;
fill: #595959;
}
.s3_3{
font-size: 16.80px;
font-family: LiberationSansNarrow-Bold_z;
fill: #595959;
}
.s4_3{
font-size: 16.80px;
font-family: LiberationSansNarrow_13;
fill: #595959;
}

.g0_3{
fill: #FFF;
}
.g1_3{
fill: none;
stroke: #D9D9D9;
stroke-width: 1.1;
stroke-linejoin: bevel;
}
.g2_3{
fill: none;
stroke: #BFBFBF;
stroke-width: 1.1;
stroke-linejoin: bevel;
}
.g3_3{
fill: #C00000;
}
.g4_3{
fill: #2E75B6;
}
.g5_3{
fill: #5EA616;
}
.g6_3{
fill: none;
stroke: #7F7F7F;
stroke-width: 3.464;
stroke-linejoin: round;
}

]]></style>

</defs>
<path d="M0,0
L0,825
L1466,825
L1466,0 Z " 
fill="#FFFFFF" stroke="none"/>
<g clip-path="url(#c_3)">
<g clip-path="url(#c0)">
<path fill-rule="evenodd" d="M0,0H1466.6V825H0V0Z" class="g0_3"/>
<path fill-rule="evenodd" d="M0,0H1466.7V825H0V0Z" class="g0_3"/>
</g>
<path fill-rule="evenodd" d="M164,90.9H829.7V638.8H164V90.9Z" class="g0_3"/>
<path d="M230.5,492.7H800.6M230.5,396.6H800.6M230.5,300.5H800.6M230.5,204.6H800.6M230.5,108.5H800.6m-427.6,0V588.8M515.4,108.5V588.8M658.1,108.5V588.8M800.6,108.5V588.8" class="g1_3"/>
<path d="M230.5,588.8V108.5m0,480.3H800.6" class="g2_3"/>
<path fill-rule="evenodd" d="M522.2,588.5c0,3.8,-3,6.9,-6.8,6.9c-3.9,0,-6.9,-3.1,-6.9,-6.9c0,-3.8,3,-6.9,6.9,-6.9c3.8,0,6.8,3.1,6.8,6.9Z" class="g3_3"/>
<path fill-rule="evenodd" d="M413.8,166c0,3.8,-3,6.9,-6.8,6.9c-3.8,0,-6.9,-3.1,-6.9,-6.9c0,-3.8,3.1,-6.8,6.9,-6.8c3.8,0,6.8,3,6.8,6.8Z" class="g4_3"/>
<path fill-rule="evenodd" d="M359.8,242.9c0,3.7,-3.1,6.9,-6.9,6.9c-3.8,0,-6.9,-3.2,-6.9,-6.9c0,-3.8,3.1,-6.9,6.9,-6.9c3.8,0,6.9,3.1,6.9,6.9Z" class="g5_3"/>
<g clip-path="url(#c1)">
<text x="531.5" y="594.9" dx="0,.1,0,0,-.2,.2" class="s1_3">100 мс </text>
<text x="423.2" y="172.2" dx="0,0,.1,0,-.2,0" class="s1_3">282 мс </text>
<text x="369.1" y="249" dx="0,0,.1,0,-.2,0" class="s1_3">223 мс </text>
<text x="209.2" y="594" class="s2_3">0 </text>
<text x="201.8" y="497.9" class="s2_3">50 </text>
<text x="194.5" y="402" class="s2_3">100 </text>
<text x="194.5" y="305.9" class="s2_3">150 </text>
<text x="194.5" y="209.8" class="s2_3">200 </text>
<text x="194.5" y="113.8" class="s2_3">250 </text>
<text x="226.9" y="613.6" class="s2_3">0 </text>
<text x="365.8" y="613.6" dx="0,-.2" class="s2_3">50 </text>
<text x="504.6" y="613.6" class="s2_3">100 </text>
<text x="647" y="613.6" class="s2_3">150 </text>
<text x="789.6" y="613.6" dx="0,0,.1" class="s2_3">200 </text>
<text transform="matrix(0,-1,1,0,183.3,475.6)" dx="0,0,0,0,0,.1,-.2,.2,0,-.2,.1,.1,0,0,0,.1,.2,0,.1,0,.1,-.5,.1,0,.1,0,.1,-.1,0,0,.2" class="s3_3">Время на перемещения паальцев, </text>
<text transform="matrix(0,-1,1,0,183.3,236.7)" dx="0,0,.1,0,.1,-.1,.1,.1" class="s4_3">мс/слово </text>
<text x="407.2" y="632" dx="0,0,0,0,0,.1,-.2,.1,.1,-.2,0,0,.1,0,.2,-.1,-.1,.1,.1,-.1" class="s3_3">Время на обдумывания</text>
<text x="572.2" y="632" class="s4_3">, </text>
<text x="583.3" y="632" dx="0,.2,0,0,.1,.1,0,0" class="s4_3">мс/слово </text>
</g>
<path d="M164,90.9H829.7V638.8H164V90.9Z" class="g1_3"/>
<path d="M353.3,245.8l1.4,3.1m1.5,3.2l1.5,3.2m1.4,3.1l1.5,3.2m1.4,3.1l1.5,3.2m1.5,3.2l1.5,3.1m1.4,3.2l1.5,3.1m1.5,3.2l1.4,3.2m1.5,3.1l1.5,3.2m1.4,3.2l1.5,3.1m1.5,3.2l1.4,3.1m1.5,3.2l1.4,3.2m1.5,3.1l1.5,3.2m1.5,3.1l1.4,3.2m1.5,3.2l1.5,3.1m1.4,3.2l1.5,3.1m1.5,3.2l1.4,3.2m1.5,3.1l1.5,3.2m1.4,3.2l1.5,3.1m1.4,3.1l1.5,3.2m1.5,3.2l1.5,3.1m1.4,3.2l1.5,3.1m1.5,3.2l1.4,3.2m1.5,3.1l1.5,3.2m1.4,3.1l1.5,3.2m1.5,3.2l1.4,3.1m1.5,3.2L428,407m1.5,3.1l1.5,3.2m1.5,3.1l1.4,3.2m1.5,3.2l1.5,3.1m1.5,3.2l1.4,3.1m1.5,3.2l1.4,3.2m1.5,3.1l1.5,3.2m1.4,3.2l1.5,3.1m1.4,3.2l1.5,3.1m1.5,3.2l1.5,3.2m1.4,3.1l1.5,3.2m1.5,3.1l1.5,3.2m1.4,3.1l1.5,3.2m1.4,3.1l1.5,3.2m1.5,3.2l1.4,3.1m1.5,3.2l1.4,3.2m1.5,3.1l1.5,3.2m1.5,3.1l1.4,3.2m1.5,3.2l1.5,3.1m1.5,3.2l1.4,3.1m1.5,3.2l1.4,3.2m1.5,3.1l1.5,3.2m1.4,3.2l1.5,3.1m1.5,3.2l1.4,3.1m1.5,3.2l1.5,3.2m1.4,3.1l1.5,3.2m1.5,3.1l1.5,3.2m1.4,3.2l1.5,3.1m1.4,3.2l.4,.8" class="g6_3"/>
<g clip-path="url(#c1)">
<image preserveAspectRatio="none" x="237" y="203" width="105" height="78" xlink:href="3/img/1.png"/>
<image preserveAspectRatio="none" x="244" y="138" width="154" height="47" xlink:href="3/img/2.png"/>
<image preserveAspectRatio="none" x="401" y="570" width="97" height="30" xlink:href="3/img/3.png"/>
</g>

</g>

<!-- Any embedded fonts defined here -->
<style type="text/css" ><![CDATA[

@font-face {
	font-family: LiberationSansNarrow-Bold_z;
	src: url("fonts/LiberationSansNarrow-Bold_z.woff") format("woff");
}

@font-face {
	font-family: LiberationSansNarrow_13;
	src: url("fonts/LiberationSansNarrow_13.woff") format("woff");
}

]]></style>

</svg>
