<?xml version="1.0" encoding="utf-8"?>
<!-- Generator: Adobe Illustrator 24.1.1, SVG Export Plug-In . SVG Version: 6.00 Build 0)  -->
<svg version="1.1" xmlns="http://www.w3.org/2000/svg" xmlns:xlink="http://www.w3.org/1999/xlink" x="0px" y="0px"
	 viewBox="0 0 595.28 841.89" enable-background="new 0 0 595.28 841.89" xml:space="preserve">
<g id="Слой_2">
	<g>
		<polygon fill="#E2E2D7" points="339.06,550.98 328.49,550.98 321.02,558.45 321.02,569.02 328.49,576.49 339.06,576.49 
			346.53,569.02 346.53,558.45 		"/>
	</g>
	<g>
		<polygon fill="#E2E2D7" points="305.04,550.98 294.48,550.98 287.01,558.45 287.01,569.02 294.48,576.49 305.04,576.49 
			312.52,569.02 312.52,558.45 		"/>
	</g>
	<g>
		<polygon fill="#E2E2D7" points="271.03,550.98 260.46,550.98 252.99,558.45 252.99,569.02 260.46,576.49 271.03,576.49 
			278.5,569.02 278.5,558.45 		"/>
	</g>
	<g>
		<polygon fill="#E2E2D7" points="237.01,550.98 226.45,550.98 218.97,558.45 218.97,569.02 226.45,576.49 237.01,576.49 
			244.49,569.02 244.49,558.45 		"/>
	</g>
	<g>
		<polygon fill="#1D1D1B" points="475.12,516.96 464.56,516.96 457.08,524.43 457.08,535 464.56,542.47 475.12,542.47 482.6,535 
			482.6,524.43 		"/>
	</g>
	<g>
		<polygon fill="#E2E2D7" points="441.11,516.96 430.54,516.96 423.07,524.43 423.07,535 430.54,542.47 441.11,542.47 448.58,535 
			448.58,524.43 		"/>
	</g>
	<g>
		<polygon fill="#E2E2D7" points="407.09,516.96 396.52,516.96 389.05,524.43 389.05,535 396.52,542.47 407.09,542.47 414.56,535 
			414.56,524.43 		"/>
	</g>
	<g>
		<polygon fill="#E2E2D7" points="373.08,516.96 362.51,516.96 355.04,524.43 355.04,535 362.51,542.47 373.08,542.47 380.55,535 
			380.55,524.43 		"/>
	</g>
	<g>
		<polygon fill="#E2E2D7" points="339.06,516.96 328.49,516.96 321.02,524.43 321.02,535 328.49,542.47 339.06,542.47 346.53,535 
			346.53,524.43 		"/>
	</g>
	<g>
		<polygon fill="#E2E2D7" points="305.04,516.96 294.48,516.96 287.01,524.43 287.01,535 294.48,542.47 305.04,542.47 312.52,535 
			312.52,524.43 		"/>
	</g>
	<g>
		<polygon fill="#E2E2D7" points="271.03,516.96 260.46,516.96 252.99,524.43 252.99,535 260.46,542.47 271.03,542.47 278.5,535 
			278.5,524.43 		"/>
	</g>
	<g>
		<polygon fill="#E2E2D7" points="237.01,516.96 226.45,516.96 218.97,524.43 218.97,535 226.45,542.47 237.01,542.47 244.49,535 
			244.49,524.43 		"/>
	</g>
	<g>
		<polygon fill="#E2E2D7" points="203,516.96 192.43,516.96 184.96,524.43 184.96,535 192.43,542.47 203,542.47 210.47,535 
			210.47,524.43 		"/>
	</g>
	<g>
		<polygon fill="#E2E2D7" points="168.98,516.96 158.41,516.96 150.94,524.43 150.94,535 158.41,542.47 168.98,542.47 176.45,535 
			176.45,524.43 		"/>
	</g>
	<g>
		<polygon fill="#E2E2D7" points="134.97,516.96 124.4,516.96 116.93,524.43 116.93,535 124.4,542.47 134.97,542.47 142.44,535 
			142.44,524.43 		"/>
	</g>
	<g>
		<polygon fill="#1D1D1B" points="100.95,516.96 90.38,516.96 82.91,524.43 82.91,535 90.38,542.47 100.95,542.47 108.42,535 
			108.42,524.43 		"/>
	</g>
	<g>
		<polygon fill="#1D1D1B" points="475.12,482.95 464.56,482.95 457.08,490.42 457.08,500.98 464.56,508.46 475.12,508.46 
			482.6,500.98 482.6,490.42 		"/>
	</g>
	<g>
		<polygon fill="#E2E2D7" points="441.11,482.95 430.54,482.95 423.07,490.42 423.07,500.98 430.54,508.46 441.11,508.46 
			448.58,500.98 448.58,490.42 		"/>
	</g>
	<g>
		<polygon fill="#E2E2D7" points="407.09,482.95 396.52,482.95 389.05,490.42 389.05,500.98 396.52,508.46 407.09,508.46 
			414.56,500.98 414.56,490.42 		"/>
	</g>
	<g>
		<polygon fill="#E2E2D7" points="373.08,482.95 362.51,482.95 355.04,490.42 355.04,500.98 362.51,508.46 373.08,508.46 
			380.55,500.98 380.55,490.42 		"/>
	</g>
	<g>
		<polygon fill="#E2E2D7" points="339.06,482.95 328.49,482.95 321.02,490.42 321.02,500.98 328.49,508.46 339.06,508.46 
			346.53,500.98 346.53,490.42 		"/>
	</g>
	<g>
		<polygon fill="#E2E2D7" points="305.04,482.95 294.48,482.95 287.01,490.42 287.01,500.98 294.48,508.46 305.04,508.46 
			312.52,500.98 312.52,490.42 		"/>
	</g>
	<g>
		<polygon fill="#E2E2D7" points="271.03,482.95 260.46,482.95 252.99,490.42 252.99,500.98 260.46,508.46 271.03,508.46 
			278.5,500.98 278.5,490.42 		"/>
	</g>
	<g>
		<polygon fill="#E2E2D7" points="237.01,482.95 226.45,482.95 218.97,490.42 218.97,500.98 226.45,508.46 237.01,508.46 
			244.49,500.98 244.49,490.42 		"/>
	</g>
	<g>
		<polygon fill="#E2E2D7" points="203,482.95 192.43,482.95 184.96,490.42 184.96,500.98 192.43,508.46 203,508.46 210.47,500.98 
			210.47,490.42 		"/>
	</g>
	<g>
		<polygon fill="#E2E2D7" points="168.98,482.95 158.41,482.95 150.94,490.42 150.94,500.98 158.41,508.46 168.98,508.46 
			176.45,500.98 176.45,490.42 		"/>
	</g>
	<g>
		<polygon fill="#E2E2D7" points="134.97,482.95 124.4,482.95 116.93,490.42 116.93,500.98 124.4,508.46 134.97,508.46 
			142.44,500.98 142.44,490.42 		"/>
	</g>
	<g>
		<polygon fill="#1D1D1B" points="100.95,482.95 90.38,482.95 82.91,490.42 82.91,500.98 90.38,508.46 100.95,508.46 108.42,500.98 
			108.42,490.42 		"/>
	</g>
	<g>
		<polygon fill="#1D1D1B" points="475.12,448.93 464.56,448.93 457.08,456.4 457.08,466.97 464.56,474.44 475.12,474.44 
			482.6,466.97 482.6,456.4 		"/>
	</g>
	<g>
		<polygon fill="#E2E2D7" points="441.11,448.93 430.54,448.93 423.07,456.4 423.07,466.97 430.54,474.44 441.11,474.44 
			448.58,466.97 448.58,456.4 		"/>
	</g>
	<g>
		<polygon fill="#E2E2D7" points="407.09,448.93 396.52,448.93 389.05,456.4 389.05,466.97 396.52,474.44 407.09,474.44 
			414.56,466.97 414.56,456.4 		"/>
	</g>
	<g>
		<polygon fill="#E2E2D7" points="373.08,448.93 362.51,448.93 355.04,456.4 355.04,466.97 362.51,474.44 373.08,474.44 
			380.55,466.97 380.55,456.4 		"/>
	</g>
	<g>
		<polygon fill="#E2E2D7" points="339.06,448.93 328.49,448.93 321.02,456.4 321.02,466.97 328.49,474.44 339.06,474.44 
			346.53,466.97 346.53,456.4 		"/>
	</g>
	<g>
		<polygon fill="#E2E2D7" points="305.04,448.93 294.48,448.93 287.01,456.4 287.01,466.97 294.48,474.44 305.04,474.44 
			312.52,466.97 312.52,456.4 		"/>
	</g>
	<g>
		<polygon fill="#E2E2D7" points="271.03,448.93 260.46,448.93 252.99,456.4 252.99,466.97 260.46,474.44 271.03,474.44 
			278.5,466.97 278.5,456.4 		"/>
	</g>
	<g>
		<polygon fill="#E2E2D7" points="237.01,448.93 226.45,448.93 218.97,456.4 218.97,466.97 226.45,474.44 237.01,474.44 
			244.49,466.97 244.49,456.4 		"/>
	</g>
	<g>
		<polygon fill="#E2E2D7" points="203,448.93 192.43,448.93 184.96,456.4 184.96,466.97 192.43,474.44 203,474.44 210.47,466.97 
			210.47,456.4 		"/>
	</g>
	<g>
		<polygon fill="#E2E2D7" points="168.98,448.93 158.41,448.93 150.94,456.4 150.94,466.97 158.41,474.44 168.98,474.44 
			176.45,466.97 176.45,456.4 		"/>
	</g>
	<g>
		<polygon fill="#E2E2D7" points="134.97,448.93 124.4,448.93 116.93,456.4 116.93,466.97 124.4,474.44 134.97,474.44 
			142.44,466.97 142.44,456.4 		"/>
	</g>
	<g>
		<polygon fill="#1D1D1B" points="100.95,448.93 90.38,448.93 82.91,456.4 82.91,466.97 90.38,474.44 100.95,474.44 108.42,466.97 
			108.42,456.4 		"/>
	</g>
	<g>
		<polygon fill="#1D1D1B" points="475.12,414.91 464.56,414.91 457.08,422.39 457.08,432.95 464.56,440.43 475.12,440.43 
			482.6,432.95 482.6,422.39 		"/>
	</g>
	<g>
		<polygon fill="#1D1D1B" points="441.11,414.91 430.54,414.91 423.07,422.39 423.07,432.95 430.54,440.43 441.11,440.43 
			448.58,432.95 448.58,422.39 		"/>
	</g>
	<g>
		<polygon fill="#1D1D1B" points="407.09,414.91 396.52,414.91 389.05,422.39 389.05,432.95 396.52,440.43 407.09,440.43 
			414.56,432.95 414.56,422.39 		"/>
	</g>
	<g>
		<polygon fill="#1D1D1B" points="373.08,414.91 362.51,414.91 355.04,422.39 355.04,432.95 362.51,440.43 373.08,440.43 
			380.55,432.95 380.55,422.39 		"/>
	</g>
	<g>
		<polygon fill="#1D1D1B" points="339.06,414.91 328.49,414.91 321.02,422.39 321.02,432.95 328.49,440.43 339.06,440.43 
			346.53,432.95 346.53,422.39 		"/>
	</g>
	<g>
		<polygon fill="#1D1D1B" points="305.04,414.91 294.48,414.91 287.01,422.39 287.01,432.95 294.48,440.43 305.04,440.43 
			312.52,432.95 312.52,422.39 		"/>
	</g>
	<g>
		<polygon fill="#1D1D1B" points="271.03,414.91 260.46,414.91 252.99,422.39 252.99,432.95 260.46,440.43 271.03,440.43 
			278.5,432.95 278.5,422.39 		"/>
	</g>
	<g>
		<polygon fill="#1D1D1B" points="237.01,414.91 226.45,414.91 218.97,422.39 218.97,432.95 226.45,440.43 237.01,440.43 
			244.49,432.95 244.49,422.39 		"/>
	</g>
	<g>
		<polygon fill="#1D1D1B" points="203,414.91 192.43,414.91 184.96,422.39 184.96,432.95 192.43,440.43 203,440.43 210.47,432.95 
			210.47,422.39 		"/>
	</g>
	<g>
		<polygon fill="#1D1D1B" points="168.98,414.91 158.41,414.91 150.94,422.39 150.94,432.95 158.41,440.43 168.98,440.43 
			176.45,432.95 176.45,422.39 		"/>
	</g>
	<g>
		<polygon fill="#1D1D1B" points="134.97,414.91 124.4,414.91 116.93,422.39 116.93,432.95 124.4,440.43 134.97,440.43 
			142.44,432.95 142.44,422.39 		"/>
	</g>
	<g>
		<polygon fill="#1D1D1B" points="100.95,414.91 90.38,414.91 82.91,422.39 82.91,432.95 90.38,440.43 100.95,440.43 108.42,432.95 
			108.42,422.39 		"/>
	</g>
	<g>
		<polygon fill="#1D1D1B" points="475.12,380.9 464.56,380.9 457.08,388.37 457.08,398.94 464.56,406.41 475.12,406.41 
			482.6,398.94 482.6,388.37 		"/>
	</g>
	<g>
		<polygon fill="#1D1D1B" points="441.11,380.9 430.54,380.9 423.07,388.37 423.07,398.94 430.54,406.41 441.11,406.41 
			448.58,398.94 448.58,388.37 		"/>
	</g>
	<g>
		<polygon fill="#1D1D1B" points="407.09,380.9 396.52,380.9 389.05,388.37 389.05,398.94 396.52,406.41 407.09,406.41 
			414.56,398.94 414.56,388.37 		"/>
	</g>
	<g>
		<polygon fill="#1D1D1B" points="373.08,380.9 362.51,380.9 355.04,388.37 355.04,398.94 362.51,406.41 373.08,406.41 
			380.55,398.94 380.55,388.37 		"/>
	</g>
	<g>
		<polygon fill="#1D1D1B" points="339.06,380.9 328.49,380.9 321.02,388.37 321.02,398.94 328.49,406.41 339.06,406.41 
			346.53,398.94 346.53,388.37 		"/>
	</g>
	<g>
		<polygon fill="#1D1D1B" points="305.04,380.9 294.48,380.9 287.01,388.37 287.01,398.94 294.48,406.41 305.04,406.41 
			312.52,398.94 312.52,388.37 		"/>
	</g>
	<g>
		<polygon fill="#1D1D1B" points="271.03,380.9 260.46,380.9 252.99,388.37 252.99,398.94 260.46,406.41 271.03,406.41 
			278.5,398.94 278.5,388.37 		"/>
	</g>
	<g>
		<polygon fill="#1D1D1B" points="237.01,380.9 226.45,380.9 218.97,388.37 218.97,398.94 226.45,406.41 237.01,406.41 
			244.49,398.94 244.49,388.37 		"/>
	</g>
	<g>
		<polygon fill="#1D1D1B" points="203,380.9 192.43,380.9 184.96,388.37 184.96,398.94 192.43,406.41 203,406.41 210.47,398.94 
			210.47,388.37 		"/>
	</g>
	<g>
		<polygon fill="#1D1D1B" points="168.98,380.9 158.41,380.9 150.94,388.37 150.94,398.94 158.41,406.41 168.98,406.41 
			176.45,398.94 176.45,388.37 		"/>
	</g>
	<g>
		<polygon fill="#1D1D1B" points="134.97,380.9 124.4,380.9 116.93,388.37 116.93,398.94 124.4,406.41 134.97,406.41 142.44,398.94 
			142.44,388.37 		"/>
	</g>
	<g>
		<polygon fill="#1D1D1B" points="100.95,380.9 90.38,380.9 82.91,388.37 82.91,398.94 90.38,406.41 100.95,406.41 108.42,398.94 
			108.42,388.37 		"/>
	</g>
	<g>
		<polygon fill="#1D1D1B" points="475.12,346.88 464.56,346.88 457.08,354.35 457.08,364.92 464.56,372.39 475.12,372.39 
			482.6,364.92 482.6,354.35 		"/>
	</g>
	<g>
		<polygon fill="#1D1D1B" points="441.11,346.88 430.54,346.88 423.07,354.35 423.07,364.92 430.54,372.39 441.11,372.39 
			448.58,364.92 448.58,354.35 		"/>
	</g>
	<g>
		<polygon fill="#1D1D1B" points="407.09,346.88 396.52,346.88 389.05,354.35 389.05,364.92 396.52,372.39 407.09,372.39 
			414.56,364.92 414.56,354.35 		"/>
	</g>
	<g>
		<polygon fill="#1D1D1B" points="373.08,346.88 362.51,346.88 355.04,354.35 355.04,364.92 362.51,372.39 373.08,372.39 
			380.55,364.92 380.55,354.35 		"/>
	</g>
	<g>
		<polygon fill="#1D1D1B" points="339.06,346.88 328.49,346.88 321.02,354.35 321.02,364.92 328.49,372.39 339.06,372.39 
			346.53,364.92 346.53,354.35 		"/>
	</g>
	<g>
		<polygon fill="#1D1D1B" points="305.04,346.88 294.48,346.88 287.01,354.35 287.01,364.92 294.48,372.39 305.04,372.39 
			312.52,364.92 312.52,354.35 		"/>
	</g>
	<g>
		<polygon fill="#1D1D1B" points="271.03,346.88 260.46,346.88 252.99,354.35 252.99,364.92 260.46,372.39 271.03,372.39 
			278.5,364.92 278.5,354.35 		"/>
	</g>
	<g>
		<polygon fill="#1D1D1B" points="237.01,346.88 226.45,346.88 218.97,354.35 218.97,364.92 226.45,372.39 237.01,372.39 
			244.49,364.92 244.49,354.35 		"/>
	</g>
	<g>
		<polygon fill="#1D1D1B" points="203,346.88 192.43,346.88 184.96,354.35 184.96,364.92 192.43,372.39 203,372.39 210.47,364.92 
			210.47,354.35 		"/>
	</g>
	<g>
		<polygon fill="#1D1D1B" points="168.98,346.88 158.41,346.88 150.94,354.35 150.94,364.92 158.41,372.39 168.98,372.39 
			176.45,364.92 176.45,354.35 		"/>
	</g>
	<g>
		<polygon fill="#1D1D1B" points="134.97,346.88 124.4,346.88 116.93,354.35 116.93,364.92 124.4,372.39 134.97,372.39 
			142.44,364.92 142.44,354.35 		"/>
	</g>
	<g>
		<polygon fill="#1D1D1B" points="100.95,346.88 90.38,346.88 82.91,354.35 82.91,364.92 90.38,372.39 100.95,372.39 108.42,364.92 
			108.42,354.35 		"/>
	</g>
</g>
<g id="Слой_3">
	<g>
		<rect x="116.93" y="450.22" fill="none" width="25.51" height="24.22"/>
		<path d="M131.79,469.49v-5.21c-0.36,0.46-0.8,0.83-1.34,1.1s-1.11,0.41-1.73,0.41c-1.18,0-2.15-0.44-2.91-1.33
			c-0.9-1.04-1.35-2.44-1.35-4.21c0-1.67,0.42-2.97,1.26-3.9c0.84-0.93,1.89-1.4,3.14-1.4c0.69,0,1.29,0.15,1.79,0.44
			s0.95,0.74,1.34,1.33v-1.53h2.53v14.32H131.79z M131.88,460.23c0-1.06-0.22-1.85-0.65-2.37s-0.98-0.78-1.63-0.78
			c-0.66,0-1.22,0.26-1.67,0.79s-0.67,1.36-0.67,2.51c0,1.14,0.21,1.96,0.64,2.47s0.96,0.76,1.59,0.76s1.19-0.28,1.66-0.85
			S131.88,461.35,131.88,460.23z"/>
	</g>
	<g>
		<rect x="150.94" y="449.58" fill="none" width="25.51" height="24.22"/>
		<path d="M159.29,465.9l-3.28-10.37h2.67l1.94,6.8l1.79-6.8h2.65l1.73,6.8l1.98-6.8h2.71l-3.33,10.37h-2.64l-1.79-6.67l-1.76,6.67
			H159.29z"/>
	</g>
	<g>
		<rect x="184.91" y="449.58" fill="none" width="25.51" height="24.22"/>
		<path d="M199.55,462.59l2.73,0.46c-0.35,1-0.91,1.77-1.67,2.29s-1.71,0.79-2.85,0.79c-1.8,0-3.14-0.59-4-1.77
			c-0.68-0.94-1.03-2.14-1.03-3.57c0-1.72,0.45-3.07,1.35-4.04s2.03-1.46,3.41-1.46c1.54,0,2.76,0.51,3.65,1.53
			c0.89,1.02,1.32,2.58,1.28,4.68h-6.88c0.02,0.81,0.24,1.45,0.66,1.9s0.95,0.68,1.58,0.68c0.43,0,0.79-0.12,1.08-0.35
			S199.4,463.12,199.55,462.59z M199.7,459.82c-0.02-0.79-0.22-1.4-0.62-1.81c-0.39-0.41-0.87-0.62-1.43-0.62
			c-0.6,0-1.09,0.22-1.48,0.65s-0.58,1.03-0.58,1.78H199.7z"/>
	</g>
	<g>
		<rect x="218.91" y="449.58" fill="none" width="25.51" height="24.22"/>
		<path d="M231.84,465.9h-2.74v-10.37h2.55V457c0.44-0.7,0.83-1.16,1.18-1.38c0.35-0.22,0.74-0.33,1.19-0.33
			c0.63,0,1.23,0.17,1.81,0.52l-0.85,2.39c-0.46-0.3-0.89-0.45-1.29-0.45c-0.38,0-0.71,0.11-0.98,0.32
			c-0.27,0.21-0.48,0.59-0.63,1.15s-0.23,1.71-0.23,3.48V465.9z"/>
	</g>
	<g>
		<rect x="253.24" y="449.58" fill="none" width="25.51" height="24.22"/>
		<path d="M268.86,456.52v2.19h-1.88v4.18c0,0.85,0.02,1.34,0.05,1.48s0.12,0.26,0.24,0.35s0.28,0.14,0.46,0.14
			c0.25,0,0.62-0.09,1.1-0.26l0.23,2.13c-0.64,0.27-1.36,0.41-2.17,0.41c-0.49,0-0.94-0.08-1.34-0.25s-0.69-0.38-0.87-0.64
			s-0.31-0.62-0.39-1.07c-0.06-0.32-0.09-0.96-0.09-1.93v-4.52h-1.26v-2.19h1.26v-2.06l2.75-1.6v3.66H268.86z"/>
	</g>
	<g>
		<rect x="287.01" y="449.58" fill="none" width="25.51" height="24.22"/>
		<path d="M294.34,455.52h2.92l2.48,7.36l2.42-7.36H305l-3.66,9.98l-0.65,1.81c-0.24,0.61-0.47,1.07-0.69,1.39
			c-0.22,0.32-0.47,0.58-0.75,0.78s-0.63,0.35-1.04,0.46c-0.41,0.11-0.88,0.17-1.4,0.17c-0.53,0-1.04-0.06-1.55-0.17l-0.24-2.15
			c0.43,0.08,0.82,0.13,1.16,0.13c0.64,0,1.11-0.19,1.42-0.56s0.54-0.85,0.7-1.43L294.34,455.52z"/>
	</g>
	<g>
		<rect x="321.02" y="449.58" fill="none" width="25.51" height="24.22"/>
		<path d="M335.93,465.9v-1.55c-0.38,0.55-0.87,0.99-1.49,1.31s-1.26,0.48-1.95,0.48c-0.7,0-1.32-0.15-1.88-0.46
			s-0.95-0.74-1.2-1.29s-0.37-1.32-0.37-2.29v-6.56h2.74v4.77c0,1.46,0.05,2.35,0.15,2.68s0.29,0.59,0.55,0.78s0.61,0.29,1.02,0.29
			c0.47,0,0.89-0.13,1.26-0.39s0.63-0.58,0.76-0.96s0.21-1.31,0.21-2.8v-4.38h2.74v10.37H335.93z"/>
	</g>
	<g>
		<rect x="355.04" y="449.58" fill="none" width="25.51" height="24.22"/>
		<path d="M366.45,454.12v-2.54h2.74v2.54H366.45z M366.45,465.9v-10.37h2.74v10.37H366.45z"/>
	</g>
	<g>
		<rect x="389.05" y="449.58" fill="none" width="25.51" height="24.22"/>
		<path d="M396.5,460.56c0-0.91,0.22-1.79,0.67-2.65s1.09-1.5,1.91-1.95c0.82-0.45,1.74-0.67,2.76-0.67c1.57,0,2.86,0.51,3.86,1.53
			c1,1.02,1.5,2.31,1.5,3.86c0,1.57-0.51,2.87-1.52,3.9c-1.01,1.03-2.29,1.55-3.82,1.55c-0.95,0-1.86-0.21-2.72-0.64
			c-0.86-0.43-1.52-1.06-1.97-1.89S396.5,461.76,396.5,460.56z M399.31,460.71c0,1.03,0.24,1.82,0.73,2.36s1.09,0.82,1.81,0.82
			c0.72,0,1.32-0.27,1.8-0.82c0.49-0.55,0.73-1.34,0.73-2.38c0-1.02-0.24-1.8-0.73-2.34c-0.48-0.55-1.08-0.82-1.8-0.82
			c-0.72,0-1.32,0.27-1.81,0.82S399.31,459.68,399.31,460.71z"/>
	</g>
	<g>
		<rect x="423.07" y="449.58" fill="none" width="25.51" height="24.22"/>
		<path d="M431.07,455.52h2.56v1.52c0.33-0.52,0.78-0.94,1.35-1.27c0.57-0.33,1.2-0.49,1.88-0.49c1.21,0,2.23,0.47,3.07,1.42
			c0.84,0.94,1.26,2.26,1.26,3.95c0,1.73-0.42,3.08-1.27,4.04c-0.85,0.96-1.87,1.44-3.08,1.44c-0.57,0-1.09-0.11-1.56-0.34
			c-0.46-0.23-0.96-0.62-1.47-1.17v5.22h-2.74V455.52z M433.79,460.53c0,1.17,0.23,2.03,0.69,2.58c0.46,0.56,1.03,0.83,1.69,0.83
			c0.64,0,1.17-0.26,1.59-0.77c0.42-0.51,0.63-1.35,0.63-2.51c0-1.09-0.22-1.89-0.65-2.42c-0.44-0.53-0.98-0.79-1.62-0.79
			c-0.67,0-1.23,0.26-1.67,0.78C434.01,458.75,433.79,459.52,433.79,460.53z"/>
	</g>
	<g>
		<rect x="457.49" y="448.93" fill="none" width="25.51" height="25.51"/>
		<path fill="#FFFFFF" d="M465.53,456.68v-2.55h9.38v1.99c-0.78,0.76-1.56,1.86-2.36,3.28s-1.41,2.94-1.83,4.55s-0.63,3.04-0.62,4.3
			h-2.65c0.04-1.98,0.45-4,1.23-6.05s1.8-3.9,3.09-5.52H465.53z"/>
	</g>
	<g>
		<rect x="82.91" y="448.93" fill="none" width="25.51" height="25.51"/>
		<path fill="#FFFFFF" d="M90.86,464.45l2.66-0.32c0.08,0.68,0.31,1.19,0.68,1.55s0.82,0.54,1.35,0.54c0.57,0,1.04-0.21,1.43-0.64
			s0.58-1.01,0.58-1.74c0-0.69-0.19-1.24-0.56-1.64s-0.82-0.61-1.36-0.61c-0.35,0-0.77,0.07-1.26,0.21l0.3-2.24
			c0.74,0.02,1.31-0.14,1.7-0.48s0.59-0.8,0.59-1.36c0-0.48-0.14-0.87-0.43-1.15c-0.29-0.29-0.67-0.43-1.14-0.43
			c-0.47,0-0.87,0.16-1.2,0.49c-0.33,0.33-0.53,0.8-0.61,1.43l-2.53-0.43c0.18-0.87,0.44-1.56,0.8-2.08s0.85-0.92,1.48-1.22
			c0.63-0.3,1.35-0.44,2.13-0.44c1.35,0,2.43,0.43,3.24,1.29c0.67,0.7,1.01,1.5,1.01,2.38c0,1.26-0.69,2.26-2.06,3.01
			c0.82,0.18,1.48,0.57,1.97,1.18s0.74,1.35,0.74,2.22c0,1.26-0.46,2.33-1.38,3.21s-2.06,1.33-3.43,1.33c-1.3,0-2.37-0.37-3.22-1.12
			S90.99,465.65,90.86,464.45z"/>
	</g>
	<g>
		<rect x="116.93" y="416.21" fill="none" width="25.51" height="24.22"/>
		<path fill="#FFFFFF" d="M124.08,434.81v-2.48l7.14-8.82h-6.34v-2.3h9.95v2.13l-7.45,9.18h7.74v2.29H124.08z"/>
	</g>
	<g>
		<rect x="150.94" y="415.56" fill="none" width="25.51" height="24.22"/>
		<path fill="#FFFFFF" d="M157.36,434.16l4.65-7.1l-4.21-6.5h3.21l2.73,4.37l2.67-4.37h3.18l-4.23,6.61l4.65,7h-3.31l-3.02-4.7
			l-3.02,4.7H157.36z"/>
	</g>
	<g>
		<rect x="184.91" y="415.56" fill="none" width="25.51" height="24.22"/>
		<path fill="#FFFFFF" d="M200.89,429.16l2.66,0.84c-0.41,1.48-1.09,2.59-2.04,3.31c-0.95,0.72-2.15,1.08-3.61,1.08
			c-1.81,0-3.29-0.62-4.45-1.85c-1.16-1.23-1.74-2.92-1.74-5.06c0-2.26,0.58-4.02,1.75-5.27c1.17-1.25,2.71-1.88,4.61-1.88
			c1.66,0,3.02,0.49,4.05,1.48c0.62,0.58,1.08,1.42,1.39,2.5l-2.72,0.65c-0.16-0.71-0.5-1.26-1.01-1.67
			c-0.51-0.41-1.13-0.61-1.86-0.61c-1.01,0-1.83,0.36-2.45,1.08c-0.63,0.72-0.94,1.9-0.94,3.52c0,1.72,0.31,2.94,0.93,3.67
			c0.62,0.73,1.42,1.09,2.41,1.09c0.73,0,1.36-0.23,1.88-0.7C200.28,430.89,200.66,430.16,200.89,429.16z"/>
	</g>
	<g>
		<rect x="218.91" y="415.56" fill="none" width="25.51" height="24.22"/>
		<path fill="#FFFFFF" d="M230.18,434.16l-4.86-13.6h2.98l3.44,10.07l3.33-10.07h2.91l-4.87,13.6H230.18z"/>
	</g>
	<g>
		<rect x="253.24" y="415.56" fill="none" width="25.51" height="24.22"/>
		<path fill="#FFFFFF" d="M260.53,420.56h5.44c1.08,0,1.88,0.04,2.41,0.13c0.53,0.09,1,0.28,1.42,0.56
			c0.42,0.28,0.77,0.66,1.04,1.14c0.28,0.47,0.42,1,0.42,1.59c0,0.64-0.17,1.22-0.51,1.75c-0.34,0.53-0.81,0.93-1.4,1.2
			c0.83,0.24,1.47,0.65,1.91,1.23s0.67,1.26,0.67,2.05c0,0.62-0.14,1.22-0.43,1.8c-0.29,0.58-0.68,1.05-1.18,1.4
			c-0.5,0.35-1.11,0.56-1.84,0.64c-0.46,0.05-1.56,0.08-3.31,0.09h-4.63V420.56z M263.28,422.83v3.15h1.8
			c1.07,0,1.73-0.02,1.99-0.05c0.47-0.06,0.84-0.22,1.11-0.49c0.27-0.27,0.4-0.62,0.4-1.06c0-0.42-0.12-0.76-0.35-1.03
			c-0.23-0.26-0.58-0.42-1.03-0.48c-0.27-0.03-1.05-0.05-2.35-0.05H263.28z M263.28,428.24v3.64h2.54c0.99,0,1.62-0.03,1.88-0.08
			c0.41-0.07,0.74-0.25,1-0.54c0.26-0.29,0.38-0.67,0.38-1.15c0-0.41-0.1-0.75-0.3-1.04c-0.2-0.29-0.48-0.49-0.86-0.62
			c-0.37-0.13-1.19-0.19-2.44-0.19H263.28z"/>
	</g>
	<g>
		<rect x="287.01" y="415.56" fill="none" width="25.51" height="24.22"/>
		<path fill="#FFFFFF" d="M294.31,434.16v-13.6h2.67l5.57,9.08v-9.08h2.55v13.6h-2.75l-5.48-8.87v8.87H294.31z"/>
	</g>
	<g>
		<rect x="321.02" y="415.56" fill="none" width="25.51" height="24.22"/>
		<path fill="#FFFFFF" d="M327.21,434.16v-13.6h4.11l2.47,9.28l2.44-9.28h4.12v13.6h-2.55v-10.71l-2.7,10.71h-2.64l-2.69-10.71
			v10.71H327.21z"/>
	</g>
	<g>
		<rect x="355.04" y="415.56" fill="none" width="25.51" height="24.22"/>
		<path fill="#FFFFFF" d="M368.96,430.66h-2.37c-0.01-0.34-0.01-0.55-0.01-0.62c0-0.77,0.13-1.4,0.38-1.89
			c0.25-0.49,0.76-1.05,1.52-1.67c0.76-0.62,1.21-1.02,1.36-1.21c0.23-0.3,0.34-0.64,0.34-1c0-0.51-0.2-0.94-0.61-1.3
			c-0.41-0.36-0.95-0.54-1.64-0.54c-0.66,0-1.22,0.19-1.66,0.57s-0.75,0.95-0.92,1.73l-2.39-0.3c0.07-1.11,0.54-2.05,1.42-2.82
			c0.88-0.77,2.02-1.16,3.45-1.16c1.5,0,2.69,0.39,3.57,1.17s1.33,1.69,1.33,2.73c0,0.58-0.16,1.12-0.49,1.63
			c-0.32,0.51-1.02,1.21-2.08,2.1c-0.55,0.46-0.89,0.83-1.02,1.1C369,429.44,368.94,429.94,368.96,430.66z M366.59,434.16v-2.61
			h2.61v2.61H366.59z"/>
	</g>
	<g>
		<rect x="389.05" y="415.56" fill="none" width="25.51" height="24.22"/>
		<path fill="#FFFFFF" d="M396.35,433.92v-1.69h10.84v1.69H396.35z"/>
	</g>
	<g>
		<rect x="423.07" y="415.56" fill="none" width="25.51" height="24.22"/>
		<path fill="#FFFFFF" d="M433.73,430.54v-2.61h5.12v2.61H433.73z"/>
	</g>
	<g>
		<rect x="457.49" y="414.91" fill="none" width="25.51" height="25.51"/>
		<path fill="#FFFFFF" d="M474.83,423.42l-2.66,0.29c-0.07-0.55-0.23-0.95-0.51-1.21c-0.27-0.26-0.63-0.39-1.06-0.39
			c-0.58,0-1.07,0.26-1.47,0.78c-0.4,0.52-0.65,1.6-0.76,3.25c0.68-0.81,1.53-1.21,2.55-1.21c1.15,0,2.13,0.44,2.94,1.31
			c0.82,0.87,1.23,2,1.23,3.38c0,1.46-0.43,2.64-1.29,3.53s-1.96,1.33-3.31,1.33c-1.45,0-2.63-0.56-3.56-1.68
			c-0.93-1.12-1.4-2.96-1.4-5.52c0-2.62,0.48-4.51,1.46-5.67c0.97-1.16,2.23-1.74,3.78-1.74c1.09,0,1.99,0.3,2.7,0.91
			S474.63,422.26,474.83,423.42z M468.61,429.41c0,0.89,0.21,1.58,0.62,2.07s0.88,0.73,1.41,0.73c0.51,0,0.93-0.2,1.27-0.6
			c0.34-0.4,0.51-1.05,0.51-1.95c0-0.93-0.18-1.61-0.55-2.05c-0.37-0.43-0.82-0.65-1.37-0.65c-0.53,0-0.97,0.21-1.34,0.62
			C468.79,427.99,468.61,428.6,468.61,429.41z"/>
	</g>
	<g>
		<rect x="82.91" y="414.91" fill="none" width="25.51" height="25.51"/>
		<path fill="#FFFFFF" d="M100.22,431.68v2.55H90.6c0.1-0.96,0.42-1.88,0.94-2.74s1.55-2.01,3.09-3.43c1.24-1.15,2-1.93,2.28-2.34
			c0.38-0.57,0.57-1.13,0.57-1.68c0-0.61-0.16-1.08-0.49-1.41c-0.33-0.33-0.78-0.49-1.36-0.49c-0.57,0-1.03,0.17-1.37,0.52
			c-0.34,0.34-0.53,0.92-0.59,1.72l-2.73-0.27c0.16-1.51,0.67-2.59,1.53-3.25s1.93-0.99,3.22-0.99c1.41,0,2.52,0.38,3.33,1.14
			s1.21,1.71,1.21,2.84c0,0.64-0.12,1.26-0.35,1.84s-0.6,1.19-1.1,1.83c-0.33,0.42-0.93,1.03-1.8,1.83s-1.41,1.32-1.65,1.58
			s-0.42,0.51-0.56,0.76H100.22z"/>
	</g>
	<g>
		<rect x="116.93" y="382.19" fill="none" width="25.51" height="24.22"/>
		<path fill="#FFFFFF" d="M136.82,400.8h-2.99l-1.19-3.09h-5.44l-1.12,3.09h-2.91l5.3-13.6h2.9L136.82,400.8z M131.77,395.41
			l-1.87-5.05l-1.84,5.05H131.77z"/>
	</g>
	<g>
		<rect x="150.94" y="381.54" fill="none" width="25.51" height="24.22"/>
		<path fill="#FFFFFF" d="M158.05,395.72l2.67-0.26c0.16,0.9,0.49,1.56,0.98,1.98c0.49,0.42,1.16,0.63,1.99,0.63
			c0.88,0,1.55-0.19,2-0.56c0.45-0.37,0.67-0.81,0.67-1.31c0-0.32-0.09-0.59-0.28-0.82c-0.19-0.23-0.52-0.42-0.99-0.59
			c-0.32-0.11-1.05-0.31-2.2-0.59c-1.47-0.37-2.5-0.81-3.1-1.34c-0.83-0.75-1.25-1.66-1.25-2.74c0-0.69,0.2-1.34,0.59-1.94
			c0.39-0.6,0.96-1.06,1.7-1.38c0.74-0.32,1.63-0.47,2.68-0.47c1.71,0,2.99,0.38,3.85,1.12c0.86,0.75,1.32,1.75,1.36,3l-2.75,0.12
			c-0.12-0.7-0.37-1.2-0.76-1.51c-0.39-0.31-0.97-0.46-1.74-0.46c-0.8,0-1.42,0.16-1.87,0.49c-0.29,0.21-0.44,0.49-0.44,0.84
			c0,0.32,0.14,0.6,0.41,0.83c0.35,0.29,1.19,0.59,2.52,0.91c1.34,0.31,2.32,0.64,2.96,0.98c0.64,0.34,1.14,0.8,1.5,1.38
			c0.36,0.58,0.54,1.31,0.54,2.17c0,0.78-0.22,1.51-0.65,2.19c-0.43,0.68-1.05,1.19-1.84,1.52c-0.79,0.33-1.78,0.5-2.96,0.5
			c-1.72,0-3.04-0.4-3.96-1.19C158.78,398.4,158.23,397.24,158.05,395.72z"/>
	</g>
	<g>
		<rect x="184.91" y="381.54" fill="none" width="25.51" height="24.22"/>
		<path fill="#FFFFFF" d="M192.18,386.55h5.02c1.13,0,1.99,0.09,2.59,0.26c0.8,0.24,1.48,0.65,2.05,1.25c0.57,0.6,1,1.33,1.3,2.2
			s0.45,1.94,0.45,3.21c0,1.12-0.14,2.08-0.42,2.89c-0.34,0.99-0.83,1.79-1.46,2.4c-0.48,0.46-1.12,0.83-1.93,1.09
			c-0.61,0.19-1.42,0.29-2.43,0.29h-5.17V386.55z M194.92,388.85v9.01h2.05c0.77,0,1.32-0.04,1.66-0.13
			c0.45-0.11,0.81-0.3,1.11-0.57c0.29-0.27,0.53-0.7,0.72-1.31s0.28-1.44,0.28-2.49s-0.09-1.86-0.28-2.42
			c-0.19-0.56-0.45-1-0.78-1.32c-0.33-0.32-0.76-0.53-1.27-0.64c-0.38-0.09-1.14-0.13-2.25-0.13H194.92z"/>
	</g>
	<g>
		<rect x="218.91" y="381.54" fill="none" width="25.51" height="24.22"/>
		<path fill="#FFFFFF" d="M227.26,400.15v-13.6h9.32v2.3h-6.58v3.22h5.68v2.3h-5.68v5.78H227.26z"/>
	</g>
	<g>
		<rect x="253.24" y="381.54" fill="none" width="25.51" height="24.22"/>
		<path fill="#FFFFFF" d="M266.32,395.15v-2.29h5.92v5.42c-0.58,0.56-1.41,1.05-2.5,1.47c-1.09,0.42-2.2,0.64-3.32,0.64
			c-1.42,0-2.66-0.3-3.72-0.9s-1.85-1.45-2.38-2.56c-0.53-1.11-0.8-2.32-0.8-3.62c0-1.42,0.3-2.67,0.89-3.78
			c0.59-1.1,1.46-1.94,2.61-2.53c0.87-0.45,1.96-0.68,3.26-0.68c1.69,0,3.01,0.35,3.96,1.06c0.95,0.71,1.56,1.69,1.83,2.94
			l-2.73,0.51c-0.19-0.67-0.55-1.2-1.08-1.58c-0.53-0.39-1.19-0.58-1.98-0.58c-1.2,0-2.15,0.38-2.86,1.14
			c-0.71,0.76-1.06,1.89-1.06,3.39c0,1.61,0.36,2.83,1.08,3.63c0.72,0.81,1.66,1.21,2.82,1.21c0.58,0,1.15-0.11,1.73-0.34
			c0.58-0.23,1.07-0.5,1.49-0.82v-1.72H266.32z"/>
	</g>
	<g>
		<rect x="287.01" y="381.54" fill="none" width="25.51" height="24.22"/>
		<path fill="#FFFFFF" d="M294.29,400.15v-13.6h2.75v5.35h5.38v-5.35h2.75v13.6h-2.75v-5.95h-5.38v5.95H294.29z"/>
	</g>
	<g>
		<rect x="321.02" y="381.54" fill="none" width="25.51" height="24.22"/>
		<path fill="#FFFFFF" d="M334.78,386.55h2.74v8.61c0,1.13-0.1,1.99-0.3,2.6c-0.27,0.79-0.75,1.43-1.45,1.91
			c-0.7,0.48-1.62,0.72-2.77,0.72c-1.34,0-2.38-0.38-3.1-1.13c-0.72-0.75-1.09-1.85-1.1-3.31l2.59-0.3
			c0.03,0.78,0.15,1.33,0.34,1.65c0.3,0.49,0.75,0.73,1.36,0.73c0.61,0,1.04-0.17,1.3-0.52c0.25-0.35,0.38-1.07,0.38-2.17V386.55z"
			/>
	</g>
	<g>
		<rect x="355.04" y="381.54" fill="none" width="25.51" height="24.22"/>
		<path fill="#FFFFFF" d="M362.35,400.15v-13.6h2.75v6.04l5.55-6.04h3.69l-5.12,5.3l5.4,8.3h-3.55l-3.74-6.38l-2.23,2.27v4.11
			H362.35z"/>
	</g>
	<g>
		<rect x="389.05" y="381.54" fill="none" width="25.51" height="24.22"/>
		<path fill="#FFFFFF" d="M397.63,400.15v-13.49h2.75v11.2h6.83v2.29H397.63z"/>
	</g>
	<g>
		<rect x="423.07" y="381.54" fill="none" width="25.51" height="24.22"/>
		<path fill="#FFFFFF" d="M434.53,392.9v-2.61h2.61v2.61H434.53z M434.53,400.15v-2.61h2.61v2.61H434.53z"/>
	</g>
	<g>
		<rect x="457.49" y="380.9" fill="none" width="25.51" height="25.51"/>
		<path fill="#FFFFFF" d="M469.46,398.1v-4.09c-1.28-0.36-2.21-0.92-2.81-1.66s-0.89-1.64-0.89-2.69c0-1.07,0.34-1.96,1.01-2.69
			s1.57-1.14,2.69-1.25v-0.97h1.42v0.97c1.04,0.12,1.86,0.48,2.47,1.06c0.61,0.58,1,1.36,1.17,2.34l-2.47,0.32
			c-0.15-0.77-0.54-1.29-1.17-1.56v3.82c1.56,0.42,2.63,0.97,3.19,1.65s0.85,1.54,0.85,2.59c0,1.18-0.36,2.17-1.07,2.98
			s-1.7,1.3-2.97,1.48v1.83h-1.42v-1.78c-1.13-0.14-2.04-0.56-2.74-1.26s-1.15-1.7-1.35-2.98l2.55-0.27c0.1,0.52,0.3,0.97,0.59,1.35
			C468.79,397.66,469.11,397.93,469.46,398.1z M469.46,387.84c-0.38,0.13-0.69,0.35-0.92,0.66c-0.23,0.31-0.34,0.66-0.34,1.04
			c0,0.35,0.1,0.67,0.31,0.96c0.21,0.3,0.52,0.54,0.95,0.72V387.84z M470.87,398.24c0.49-0.09,0.88-0.32,1.19-0.68
			c0.31-0.36,0.46-0.79,0.46-1.27c0-0.44-0.13-0.81-0.39-1.13c-0.26-0.32-0.68-0.56-1.26-0.73V398.24z"/>
	</g>
	<g>
		<rect x="82.91" y="380.9" fill="none" width="25.51" height="25.51"/>
		<path fill="#FFFFFF" d="M102.57,398.47l-1.66,2.12c-0.81-0.4-1.6-0.94-2.34-1.64c-0.58,0.52-1.19,0.91-1.85,1.15
			s-1.43,0.37-2.32,0.37c-1.78,0-3.13-0.5-4.02-1.5c-0.7-0.77-1.04-1.67-1.04-2.68c0-0.92,0.27-1.74,0.82-2.48s1.36-1.37,2.45-1.91
			c-0.49-0.58-0.86-1.13-1.1-1.66c-0.25-0.52-0.37-1.02-0.37-1.49c0-0.87,0.35-1.6,1.04-2.2c0.69-0.6,1.68-0.9,2.96-0.9
			c1.24,0,2.2,0.32,2.9,0.95c0.7,0.63,1.04,1.4,1.04,2.31c0,0.58-0.17,1.13-0.52,1.65s-1.04,1.11-2.09,1.77l1.99,2.63
			c0.23-0.42,0.44-0.96,0.61-1.63l2.48,0.57c-0.25,0.88-0.46,1.52-0.64,1.93s-0.38,0.75-0.59,1.02c0.31,0.29,0.7,0.6,1.19,0.94
			S102.34,398.36,102.57,398.47z M94.02,393.67c-0.63,0.32-1.1,0.7-1.42,1.15s-0.47,0.91-0.47,1.38c0,0.59,0.19,1.08,0.58,1.45
			s0.91,0.56,1.56,0.56c0.43,0,0.84-0.08,1.24-0.25s0.83-0.45,1.3-0.84L94.02,393.67z M95.1,390.69l0.74-0.57
			c0.55-0.42,0.82-0.84,0.82-1.26c0-0.35-0.13-0.65-0.4-0.9c-0.26-0.25-0.62-0.37-1.07-0.37c-0.44,0-0.78,0.11-1.03,0.33
			c-0.25,0.22-0.37,0.47-0.37,0.76c0,0.34,0.21,0.75,0.63,1.23L95.1,390.69z"/>
	</g>
	<g>
		<rect x="116.93" y="348.18" fill="none" width="25.51" height="24.22"/>
		<path fill="#FFFFFF" d="M134.62,365.05c0.67,0.48,1.41,0.87,2.2,1.15l-1.01,1.94c-0.41-0.12-0.82-0.29-1.22-0.51
			c-0.09-0.04-0.7-0.45-1.83-1.21c-0.89,0.39-1.88,0.58-2.96,0.58c-2.09,0-3.73-0.62-4.91-1.85c-1.18-1.23-1.78-2.96-1.78-5.19
			c0-2.22,0.59-3.95,1.78-5.18c1.19-1.23,2.8-1.85,4.83-1.85c2.02,0,3.61,0.62,4.8,1.85c1.18,1.23,1.77,2.96,1.77,5.18
			c0,1.18-0.16,2.21-0.49,3.1C135.56,363.76,135.17,364.42,134.62,365.05z M132.41,363.5c0.35-0.41,0.62-0.92,0.79-1.5
			c0.18-0.59,0.26-1.26,0.26-2.02c0-1.57-0.35-2.74-1.04-3.52c-0.69-0.78-1.6-1.16-2.72-1.16c-1.12,0-2.03,0.39-2.72,1.17
			c-0.7,0.78-1.04,1.95-1.04,3.52c0,1.59,0.35,2.78,1.04,3.57c0.7,0.79,1.58,1.18,2.64,1.18c0.4,0,0.77-0.06,1.12-0.19
			c-0.56-0.37-1.12-0.65-1.7-0.85l0.77-1.57C130.73,362.42,131.59,362.89,132.41,363.5z"/>
	</g>
	<g>
		<rect x="150.94" y="347.53" fill="none" width="25.51" height="24.22"/>
		<path fill="#FFFFFF" d="M158.04,366.13l-3.25-13.6h2.81l2.05,9.34l2.49-9.34h3.27l2.38,9.5l2.09-9.5h2.76l-3.3,13.6h-2.91
			l-2.71-10.17l-2.7,10.17H158.04z"/>
	</g>
	<g>
		<rect x="184.91" y="347.53" fill="none" width="25.51" height="24.22"/>
		<path fill="#FFFFFF" d="M192.71,366.13v-13.6h10.08v2.3h-7.34v3.01h6.83v2.29h-6.83v3.7h7.6v2.29H192.71z"/>
	</g>
	<g>
		<rect x="218.91" y="347.53" fill="none" width="25.51" height="24.22"/>
		<path fill="#FFFFFF" d="M226.2,366.13v-13.6h5.78c1.45,0,2.51,0.12,3.17,0.37c0.66,0.24,1.19,0.68,1.58,1.3
			c0.4,0.63,0.59,1.34,0.59,2.14c0,1.02-0.3,1.86-0.9,2.53c-0.6,0.67-1.5,1.08-2.69,1.26c0.59,0.35,1.08,0.73,1.47,1.14
			c0.39,0.41,0.91,1.15,1.56,2.21l1.66,2.65h-3.28l-1.99-2.96c-0.71-1.06-1.19-1.72-1.45-2c-0.26-0.27-0.54-0.46-0.83-0.57
			c-0.29-0.1-0.75-0.15-1.38-0.15h-0.56v5.68H226.2z M228.94,358.28h2.03c1.32,0,2.14-0.06,2.47-0.17c0.33-0.11,0.58-0.3,0.77-0.58
			s0.28-0.61,0.28-1.02c0-0.46-0.12-0.83-0.37-1.11c-0.24-0.28-0.59-0.46-1.03-0.53c-0.22-0.03-0.89-0.05-2-0.05h-2.14V358.28z"/>
	</g>
	<g>
		<rect x="253.24" y="347.53" fill="none" width="25.51" height="24.22"/>
		<path fill="#FFFFFF" d="M264.64,366.13v-11.3h-4.04v-2.3h10.81v2.3h-4.03v11.3H264.64z"/>
	</g>
	<g>
		<rect x="287.01" y="347.53" fill="none" width="25.51" height="24.22"/>
		<path fill="#FFFFFF" d="M298.55,366.13v-5.72l-4.98-7.88h3.22l3.2,5.38l3.14-5.38h3.16l-5,7.9v5.71H298.55z"/>
	</g>
	<g>
		<rect x="321.02" y="347.53" fill="none" width="25.51" height="24.22"/>
		<path fill="#FFFFFF" d="M328.13,352.52h2.75v8.29c0,0.63,0.07,1.14,0.21,1.55c0.14,0.41,0.33,0.74,0.57,0.98s0.52,0.41,0.84,0.51
			c0.32,0.1,0.67,0.15,1.04,0.15c0.57,0,1.05-0.09,1.43-0.28c0.39-0.19,0.7-0.44,0.94-0.78c0.24-0.33,0.41-0.72,0.51-1.18
			c0.11-0.46,0.16-0.95,0.16-1.5v-7.76h2.75v13.61h-2.54v-1.96c-0.19,0.33-0.41,0.63-0.67,0.9c-0.25,0.27-0.54,0.5-0.88,0.69
			s-0.7,0.33-1.11,0.44c-0.41,0.1-0.87,0.15-1.38,0.15c-0.34,0-0.69-0.03-1.05-0.09c-0.36-0.06-0.71-0.17-1.05-0.32
			c-0.34-0.15-0.67-0.35-0.97-0.61c-0.3-0.25-0.57-0.57-0.8-0.95c-0.23-0.38-0.41-0.83-0.55-1.36c-0.13-0.53-0.2-1.14-0.2-1.83
			V352.52z"/>
	</g>
	<g>
		<rect x="355.04" y="347.53" fill="none" width="25.51" height="24.22"/>
		<path fill="#FFFFFF" d="M366.45,366.13v-13.6h2.75v13.6H366.45z"/>
	</g>
	<g>
		<rect x="389.05" y="347.53" fill="none" width="25.51" height="24.22"/>
		<path fill="#FFFFFF" d="M395.25,359.42c0-1.39,0.21-2.55,0.62-3.49c0.31-0.69,0.73-1.31,1.27-1.86c0.53-0.55,1.12-0.96,1.76-1.22
			c0.85-0.36,1.82-0.54,2.93-0.54c2,0,3.61,0.62,4.81,1.86c1.2,1.24,1.8,2.97,1.8,5.19c0,2.2-0.6,3.91-1.79,5.15
			c-1.19,1.24-2.79,1.86-4.79,1.86c-2.02,0-3.63-0.62-4.82-1.85C395.84,363.28,395.25,361.58,395.25,359.42z M398.08,359.32
			c0,1.54,0.36,2.71,1.07,3.5c0.71,0.79,1.61,1.19,2.71,1.19s1.99-0.39,2.7-1.18c0.7-0.79,1.05-1.97,1.05-3.55
			c0-1.56-0.34-2.72-1.02-3.49c-0.68-0.77-1.59-1.15-2.72-1.15s-2.04,0.39-2.74,1.16C398.42,356.59,398.08,357.76,398.08,359.32z"/>
	</g>
	<g>
		<rect x="423.07" y="347.53" fill="none" width="25.51" height="24.22"/>
		<path fill="#FFFFFF" d="M431.04,366.13v-13.6h4.41c1.67,0,2.76,0.07,3.27,0.2c0.78,0.2,1.43,0.65,1.96,1.33
			c0.53,0.68,0.79,1.57,0.79,2.65c0,0.83-0.15,1.54-0.46,2.11s-0.69,1.02-1.15,1.34c-0.47,0.32-0.94,0.54-1.42,0.64
			c-0.66,0.13-1.6,0.19-2.85,0.19h-1.79v5.13H431.04z M433.79,354.83v3.86h1.5c1.08,0,1.81-0.07,2.17-0.21
			c0.37-0.14,0.65-0.36,0.86-0.67c0.21-0.3,0.31-0.66,0.31-1.06c0-0.5-0.15-0.9-0.44-1.23c-0.29-0.32-0.66-0.52-1.1-0.6
			c-0.33-0.06-0.99-0.09-1.98-0.09H433.79z"/>
	</g>
	<g>
		<rect x="457.49" y="346.88" fill="none" width="25.51" height="25.51"/>
		<path fill="#FFFFFF" d="M466.19,362.64h-1.33v-2.15h1.76l0.59-2.88h-2.34v-2.16h2.78l0.77-3.81h2.19l-0.77,3.81h2.16l0.75-3.81
			H475l-0.78,3.81h1.35v2.16h-1.79l-0.59,2.88h2.37v2.15h-2.81l-0.77,3.81h-2.18l0.75-3.81h-2.17l-0.77,3.81h-2.21L466.19,362.64z
			 M469.4,357.61l-0.58,2.88h2.17l0.57-2.88H469.4z"/>
	</g>
	<g>
		<rect x="82.91" y="346.88" fill="none" width="25.51" height="25.51"/>
		<path fill="#FFFFFF" d="M92.54,356.97l-0.52-2.67v-2.42h2.99v2.42l-0.45,2.67H92.54z M96.94,356.97l-0.52-2.67v-2.42h2.99v2.42
			l-0.45,2.67H96.94z"/>
	</g>
	<g>
		<rect x="116.93" y="484.24" fill="none" width="25.51" height="24.22"/>
		<path d="M127.61,494.35l-2.49-0.45c0.28-1,0.76-1.74,1.45-2.23c0.68-0.48,1.7-0.72,3.05-0.72c1.22,0,2.14,0.15,2.73,0.43
			c0.6,0.29,1.02,0.66,1.26,1.1c0.24,0.45,0.37,1.26,0.37,2.46l-0.03,3.2c0,0.91,0.04,1.58,0.13,2.02s0.25,0.9,0.49,1.39h-2.71
			c-0.07-0.18-0.16-0.45-0.26-0.81c-0.05-0.16-0.08-0.27-0.1-0.32c-0.47,0.46-0.97,0.8-1.5,1.03s-1.1,0.34-1.71,0.34
			c-1.07,0-1.91-0.29-2.52-0.87s-0.92-1.31-0.92-2.2c0-0.59,0.14-1.11,0.42-1.57s0.67-0.81,1.18-1.05s1.23-0.46,2.18-0.64
			c1.28-0.24,2.17-0.47,2.67-0.67v-0.27c0-0.53-0.13-0.9-0.39-1.13s-0.75-0.34-1.47-0.34c-0.49,0-0.87,0.1-1.14,0.29
			S127.78,493.87,127.61,494.35z M131.28,496.58c-0.35,0.12-0.91,0.26-1.67,0.42s-1.26,0.32-1.49,0.48
			c-0.36,0.25-0.54,0.58-0.54,0.97c0,0.38,0.14,0.72,0.43,1s0.65,0.42,1.09,0.42c0.49,0,0.97-0.16,1.42-0.49
			c0.33-0.25,0.55-0.55,0.65-0.91c0.07-0.23,0.11-0.68,0.11-1.34V496.58z"/>
	</g>
	<g>
		<rect x="150.94" y="483.59" fill="none" width="25.51" height="24.22"/>
		<path d="M158.61,497.95l2.75-0.42c0.12,0.53,0.35,0.94,0.71,1.22s0.86,0.42,1.5,0.42c0.71,0,1.24-0.13,1.6-0.39
			c0.24-0.18,0.36-0.43,0.36-0.73c0-0.21-0.06-0.38-0.2-0.52c-0.14-0.13-0.44-0.25-0.92-0.36c-2.21-0.49-3.62-0.93-4.21-1.34
			c-0.82-0.56-1.23-1.34-1.23-2.33c0-0.9,0.35-1.65,1.06-2.27c0.71-0.61,1.81-0.92,3.3-0.92c1.42,0,2.47,0.23,3.16,0.69
			c0.69,0.46,1.17,1.15,1.43,2.05l-2.59,0.48c-0.11-0.4-0.32-0.71-0.63-0.93s-0.75-0.32-1.32-0.32c-0.72,0-1.24,0.1-1.55,0.3
			c-0.21,0.14-0.31,0.33-0.31,0.56c0,0.2,0.09,0.36,0.27,0.5c0.25,0.18,1.1,0.44,2.56,0.77s2.48,0.74,3.06,1.22
			c0.57,0.49,0.86,1.17,0.86,2.04c0,0.95-0.4,1.77-1.19,2.45s-1.97,1.03-3.53,1.03c-1.41,0-2.53-0.29-3.35-0.86
			S158.86,498.94,158.61,497.95z"/>
	</g>
	<g>
		<rect x="184.91" y="483.59" fill="none" width="25.51" height="24.22"/>
		<path d="M202.51,500.91h-2.55v-1.52c-0.42,0.59-0.92,1.03-1.5,1.32s-1.16,0.43-1.74,0.43c-1.19,0-2.21-0.48-3.06-1.44
			s-1.27-2.3-1.27-4.02c0-1.76,0.41-3.09,1.24-4.01c0.83-0.91,1.87-1.37,3.13-1.37c1.16,0,2.16,0.48,3.01,1.45v-5.16h2.74V500.91z
			 M195.18,495.5c0,1.11,0.15,1.91,0.46,2.4c0.44,0.72,1.06,1.07,1.86,1.07c0.63,0,1.17-0.27,1.61-0.81s0.66-1.34,0.66-2.41
			c0-1.19-0.21-2.05-0.64-2.57s-0.98-0.79-1.65-0.79c-0.65,0-1.2,0.26-1.64,0.78S195.18,494.47,195.18,495.5z"/>
	</g>
	<g>
		<rect x="218.91" y="483.59" fill="none" width="25.51" height="24.22"/>
		<path d="M228.57,490.54h1.52v-0.78c0-0.87,0.09-1.52,0.28-1.95s0.53-0.78,1.03-1.05c0.5-0.27,1.13-0.41,1.89-0.41
			c0.78,0,1.55,0.12,2.29,0.35l-0.37,1.91c-0.44-0.1-0.86-0.16-1.26-0.16c-0.4,0-0.68,0.09-0.85,0.28s-0.26,0.54-0.26,1.07v0.73
			h2.05v2.16h-2.05v8.21h-2.74v-8.21h-1.52V490.54z"/>
	</g>
	<g>
		<rect x="253.24" y="483.59" fill="none" width="25.51" height="24.22"/>
		<path d="M261.07,499.59l3.13,0.38c0.05,0.36,0.17,0.62,0.36,0.75c0.26,0.2,0.67,0.29,1.23,0.29c0.72,0,1.25-0.11,1.61-0.32
			c0.24-0.14,0.42-0.37,0.55-0.69c0.08-0.23,0.13-0.65,0.13-1.26v-1.51c-0.82,1.12-1.86,1.68-3.11,1.68c-1.39,0-2.5-0.59-3.31-1.77
			c-0.64-0.93-0.96-2.09-0.96-3.48c0-1.74,0.42-3.07,1.25-3.98s1.88-1.38,3.12-1.38c1.28,0,2.34,0.56,3.17,1.69v-1.46h2.57v9.31
			c0,1.22-0.1,2.14-0.3,2.74s-0.48,1.08-0.85,1.43s-0.85,0.62-1.46,0.81s-1.38,0.29-2.31,0.29c-1.76,0-3-0.3-3.74-0.9
			s-1.1-1.37-1.1-2.29C261.06,499.84,261.07,499.72,261.07,499.59z M263.52,493.51c0,1.1,0.21,1.91,0.64,2.42s0.95,0.77,1.58,0.77
			c0.67,0,1.24-0.26,1.7-0.79s0.69-1.3,0.69-2.33c0-1.07-0.22-1.87-0.66-2.39s-1-0.78-1.68-0.78c-0.66,0-1.2,0.26-1.63,0.77
			C263.74,491.68,263.52,492.46,263.52,493.51z"/>
	</g>
	<g>
		<rect x="287.01" y="483.59" fill="none" width="25.51" height="24.22"/>
		<path d="M297.82,486.59v5.26c0.89-1.04,1.94-1.55,3.17-1.55c0.63,0,1.2,0.12,1.71,0.35s0.89,0.53,1.15,0.9
			c0.26,0.36,0.43,0.77,0.53,1.21c0.09,0.44,0.14,1.13,0.14,2.06v6.08h-2.74v-5.48c0-1.09-0.05-1.78-0.16-2.07
			c-0.1-0.29-0.29-0.53-0.55-0.7s-0.59-0.26-0.99-0.26c-0.46,0-0.86,0.11-1.22,0.33c-0.36,0.22-0.62,0.55-0.79,1
			c-0.17,0.45-0.25,1.11-0.25,1.98v5.2h-2.74v-14.32H297.82z"/>
	</g>
	<g>
		<rect x="321.02" y="483.59" fill="none" width="25.51" height="24.22"/>
		<path d="M335.12,490.54v10.05c0,1.32-0.09,2.25-0.26,2.8s-0.5,0.97-1,1.27s-1.12,0.46-1.88,0.46c-0.27,0-0.57-0.02-0.88-0.07
			s-0.66-0.12-1.02-0.22l0.48-2.34c0.13,0.03,0.25,0.05,0.37,0.06s0.22,0.02,0.32,0.02c0.28,0,0.51-0.06,0.69-0.18
			s0.3-0.27,0.36-0.43s0.09-0.68,0.09-1.52v-9.89H335.12z M332.38,489.13v-2.54h2.74v2.54H332.38z"/>
	</g>
	<g>
		<rect x="355.04" y="483.59" fill="none" width="25.51" height="24.22"/>
		<path d="M363.57,500.91v-14.32h2.74v7.6l3.21-3.65h3.38l-3.54,3.79l3.8,6.58h-2.96l-2.61-4.66l-1.28,1.34v3.32H363.57z"/>
	</g>
	<g>
		<rect x="389.05" y="483.59" fill="none" width="25.51" height="24.22"/>
		<path d="M400.47,500.91v-14.32h2.74v14.32H400.47z"/>
	</g>
	<g>
		<rect x="423.07" y="483.59" fill="none" width="25.51" height="24.22"/>
		<path d="M434.38,497.17h2.74v1.96c0,0.79-0.07,1.42-0.21,1.88s-0.4,0.87-0.78,1.24s-0.86,0.65-1.45,0.86l-0.54-1.13
			c0.55-0.18,0.95-0.44,1.18-0.76s0.36-0.76,0.37-1.3h-1.33V497.17z M434.38,492.28v-2.74h2.74v2.74H434.38z"/>
	</g>
	<g>
		<rect x="457.49" y="482.95" fill="none" width="25.51" height="25.51"/>
		<path fill="#FFFFFF" d="M467.89,494.54c-0.71-0.3-1.23-0.71-1.55-1.24s-0.48-1.1-0.48-1.72c0-1.07,0.37-1.95,1.12-2.65
			c0.75-0.7,1.8-1.04,3.18-1.04c1.36,0,2.42,0.35,3.17,1.04c0.75,0.7,1.13,1.58,1.13,2.65c0,0.66-0.17,1.25-0.52,1.77
			c-0.35,0.52-0.83,0.91-1.46,1.19c0.79,0.32,1.4,0.78,1.81,1.4c0.41,0.61,0.62,1.32,0.62,2.12c0,1.32-0.42,2.4-1.26,3.22
			c-0.84,0.83-1.96,1.24-3.36,1.24c-1.3,0-2.39-0.34-3.25-1.03c-1.02-0.81-1.53-1.91-1.53-3.32c0-0.77,0.19-1.49,0.58-2.13
			C466.45,495.39,467.06,494.89,467.89,494.54z M468.2,497.91c0,0.75,0.19,1.34,0.58,1.77c0.39,0.42,0.87,0.63,1.45,0.63
			c0.57,0,1.04-0.2,1.41-0.61s0.56-0.99,0.56-1.76c0-0.67-0.19-1.21-0.57-1.62c-0.38-0.41-0.86-0.61-1.44-0.61
			c-0.67,0-1.17,0.23-1.5,0.69C468.36,496.87,468.2,497.37,468.2,497.91z M468.45,491.78c0,0.55,0.15,0.97,0.46,1.28
			c0.31,0.31,0.72,0.46,1.24,0.46c0.52,0,0.94-0.15,1.25-0.46s0.47-0.74,0.47-1.28c0-0.51-0.16-0.93-0.46-1.24
			c-0.31-0.31-0.72-0.46-1.23-0.46c-0.53,0-0.95,0.16-1.26,0.47S468.45,491.26,468.45,491.78z"/>
	</g>
	<g>
		<rect x="82.91" y="482.95" fill="none" width="25.51" height="25.51"/>
		<path fill="#FFFFFF" d="M96.34,502.26v-2.88h-5.86v-2.4l6.21-9.09h2.3v9.08h1.78v2.41h-1.78v2.88H96.34z M96.34,496.97v-4.89
			l-3.29,4.89H96.34z"/>
	</g>
	<g>
		<rect x="116.93" y="518.25" fill="none" width="25.51" height="24.22"/>
		<path d="M125.01,535.57v-2.14l3.89-4.46c0.64-0.73,1.11-1.25,1.42-1.55c-0.32,0.02-0.74,0.03-1.26,0.04l-3.66,0.02v-2.28h8.57
			v1.94l-3.96,4.57l-1.4,1.51c0.76-0.05,1.23-0.07,1.42-0.07h4.25v2.41H125.01z"/>
	</g>
	<g>
		<rect x="150.94" y="517.61" fill="none" width="25.51" height="24.22"/>
		<path d="M158.25,534.93l3.74-5.34l-3.58-5.03h3.35l1.84,2.85l1.93-2.85h3.22l-3.52,4.91l3.84,5.46h-3.37l-2.11-3.21l-2.13,3.21
			H158.25z"/>
	</g>
	<g>
		<rect x="184.91" y="517.61" fill="none" width="25.51" height="24.22"/>
		<path d="M202.58,527.62l-2.71,0.49c-0.09-0.54-0.3-0.95-0.62-1.22s-0.74-0.41-1.25-0.41c-0.68,0-1.23,0.24-1.64,0.71
			s-0.61,1.26-0.61,2.37c0,1.23,0.21,2.1,0.62,2.61s0.97,0.76,1.67,0.76c0.52,0,0.95-0.15,1.28-0.44s0.57-0.81,0.7-1.53l2.7,0.46
			c-0.28,1.24-0.82,2.17-1.61,2.8s-1.86,0.95-3.19,0.95c-1.52,0-2.73-0.48-3.63-1.44s-1.35-2.28-1.35-3.97c0-1.71,0.45-3.04,1.36-4
			c0.9-0.95,2.13-1.43,3.67-1.43c1.26,0,2.27,0.27,3.01,0.82S202.26,526.51,202.58,527.62z"/>
	</g>
	<g>
		<rect x="218.91" y="517.61" fill="none" width="25.51" height="24.22"/>
		<path d="M230.39,534.93l-4.18-10.37h2.88l1.95,5.29l0.57,1.77c0.15-0.45,0.24-0.75,0.28-0.89c0.09-0.29,0.19-0.59,0.29-0.88
			l1.97-5.29h2.82l-4.12,10.37H230.39z"/>
	</g>
	<g>
		<rect x="253.24" y="517.61" fill="none" width="25.51" height="24.22"/>
		<path d="M261.21,534.93v-14.32h2.74v5.16c0.85-0.96,1.85-1.45,3.01-1.45c1.26,0,2.31,0.46,3.13,1.37
			c0.83,0.92,1.24,2.23,1.24,3.94c0,1.77-0.42,3.13-1.26,4.09s-1.87,1.44-3.07,1.44c-0.59,0-1.18-0.15-1.75-0.44
			s-1.07-0.73-1.49-1.31v1.52H261.21z M263.93,529.52c0,1.07,0.17,1.87,0.51,2.38c0.48,0.73,1.11,1.09,1.89,1.09
			c0.61,0,1.12-0.26,1.55-0.78s0.64-1.33,0.64-2.45c0-1.18-0.21-2.04-0.64-2.56s-0.98-0.79-1.65-0.79c-0.66,0-1.2,0.26-1.64,0.77
			S263.93,528.47,263.93,529.52z"/>
	</g>
	<g>
		<rect x="287.01" y="517.61" fill="none" width="25.51" height="24.22"/>
		<path d="M304.52,534.93h-2.74v-5.29c0-1.12-0.06-1.84-0.18-2.17s-0.31-0.58-0.57-0.77s-0.58-0.27-0.95-0.27
			c-0.47,0-0.9,0.13-1.28,0.39c-0.38,0.26-0.64,0.61-0.78,1.04c-0.14,0.43-0.21,1.22-0.21,2.38v4.7h-2.74v-10.37h2.55v1.52
			c0.9-1.17,2.04-1.76,3.42-1.76c0.61,0,1.16,0.11,1.66,0.33c0.5,0.22,0.88,0.5,1.14,0.83c0.26,0.34,0.44,0.72,0.54,1.15
			c0.1,0.43,0.15,1.04,0.15,1.85V534.93z"/>
	</g>
	<g>
		<rect x="321.02" y="517.61" fill="none" width="25.51" height="24.22"/>
		<path d="M326.12,524.56h2.53v1.42c0.91-1.1,1.98-1.65,3.23-1.65c0.66,0,1.24,0.14,1.73,0.41s0.89,0.69,1.2,1.24
			c0.46-0.55,0.95-0.97,1.47-1.24s1.09-0.41,1.69-0.41c0.76,0,1.41,0.16,1.93,0.46c0.53,0.31,0.92,0.76,1.18,1.36
			c0.19,0.44,0.28,1.16,0.28,2.15v6.63h-2.74V529c0-1.03-0.09-1.69-0.28-1.99c-0.25-0.39-0.64-0.59-1.17-0.59
			c-0.38,0-0.75,0.12-1.08,0.35s-0.58,0.58-0.73,1.03s-0.22,1.17-0.22,2.14v4.98h-2.74v-5.68c0-1.01-0.05-1.66-0.15-1.95
			s-0.25-0.51-0.45-0.65s-0.48-0.21-0.83-0.21c-0.42,0-0.8,0.11-1.14,0.34s-0.58,0.56-0.73,0.99s-0.22,1.14-0.22,2.14v5.04h-2.74
			V524.56z"/>
	</g>
	<g>
		<rect x="355.04" y="517.61" fill="none" width="25.51" height="24.22"/>
		<path d="M366.38,531.18h2.74v1.96c0,0.79-0.07,1.42-0.21,1.88s-0.4,0.87-0.78,1.24s-0.86,0.65-1.45,0.86l-0.54-1.13
			c0.55-0.18,0.95-0.43,1.18-0.75s0.36-0.75,0.37-1.31h-1.33V531.18z"/>
	</g>
	<g>
		<rect x="389.05" y="517.61" fill="none" width="25.51" height="24.22"/>
		<path d="M400.47,533.93v-2.74h2.74v2.74H400.47z"/>
	</g>
	<g>
		<rect x="423.07" y="519.61" fill="none" width="25.51" height="24.22"/>
		<path d="M437.33,524.29h-1.73l-2.7-2.92h3.08L437.33,524.29z"/>
	</g>
	<g>
		<rect x="457.49" y="516.96" fill="none" width="25.51" height="25.51"/>
		<path fill="#FFFFFF" d="M465.59,532.97l2.66-0.29c0.06,0.54,0.23,0.94,0.51,1.2s0.63,0.39,1.08,0.39c0.57,0,1.05-0.26,1.45-0.78
			c0.4-0.52,0.65-1.6,0.76-3.24c-0.69,0.8-1.55,1.2-2.59,1.2c-1.13,0-2.1-0.43-2.92-1.3c-0.82-0.87-1.23-2-1.23-3.39
			c0-1.45,0.43-2.62,1.29-3.51c0.86-0.89,1.96-1.33,3.3-1.33c1.45,0,2.64,0.56,3.57,1.68c0.93,1.12,1.4,2.97,1.4,5.54
			c0,2.62-0.49,4.5-1.46,5.66c-0.97,1.16-2.23,1.74-3.79,1.74c-1.12,0-2.03-0.3-2.71-0.89
			C466.23,535.05,465.79,534.16,465.59,532.97z M471.8,526.97c0-0.89-0.2-1.57-0.61-2.06c-0.41-0.49-0.88-0.73-1.41-0.73
			c-0.51,0-0.93,0.2-1.26,0.6c-0.34,0.4-0.5,1.06-0.5,1.97c0,0.92,0.18,1.6,0.55,2.04c0.36,0.43,0.82,0.65,1.37,0.65
			c0.53,0,0.97-0.21,1.33-0.63S471.8,527.78,471.8,526.97z"/>
	</g>
	<g>
		<rect x="82.91" y="516.96" fill="none" width="25.51" height="25.51"/>
		<path fill="#FFFFFF" d="M90.99,532.6l2.73-0.28c0.08,0.62,0.31,1.11,0.69,1.47s0.83,0.54,1.33,0.54c0.57,0,1.06-0.23,1.46-0.7
			s0.6-1.17,0.6-2.1c0-0.88-0.2-1.54-0.59-1.98s-0.91-0.66-1.54-0.66c-0.79,0-1.49,0.35-2.12,1.04l-2.23-0.32l1.41-7.45h7.26v2.57
			h-5.18l-0.43,2.43c0.61-0.31,1.24-0.46,1.88-0.46c1.22,0,2.25,0.44,3.1,1.33s1.27,2.03,1.27,3.45c0,1.18-0.34,2.23-1.03,3.15
			c-0.93,1.26-2.22,1.89-3.88,1.89c-1.32,0-2.4-0.35-3.23-1.06S91.16,533.8,90.99,532.6z"/>
	</g>
	<g>
		<rect x="218.91" y="553.62" fill="none" width="25.51" height="24.22"/>
		<path d="M228.86,570.19l3.54-14.8h2.06l-3.58,14.8H228.86z"/>
	</g>
	<g>
		<rect x="253.24" y="551.62" fill="none" width="25.51" height="24.22"/>
		<path d="M268.66,572.15h-1.88c-1-1.5-1.75-3.07-2.28-4.69s-0.78-3.19-0.78-4.71c0-1.88,0.32-3.66,0.97-5.34
			c0.56-1.46,1.27-2.8,2.13-4.03h1.88c-0.89,1.97-1.51,3.65-1.84,5.03s-0.5,2.85-0.5,4.4c0,1.07,0.1,2.16,0.3,3.28
			s0.47,2.18,0.82,3.19C267.68,569.95,268.08,570.91,268.66,572.15z"/>
	</g>
	<g>
		<rect x="287.01" y="551.62" fill="none" width="25.51" height="24.22"/>
		<path d="M297.1,572.15c0.54-1.16,0.92-2.05,1.14-2.67c0.22-0.62,0.43-1.33,0.62-2.14c0.19-0.81,0.33-1.57,0.42-2.3
			c0.09-0.73,0.14-1.47,0.14-2.23c0-1.55-0.17-3.02-0.5-4.4s-0.94-3.06-1.84-5.03h1.86c0.98,1.4,1.75,2.88,2.29,4.45
			c0.54,1.57,0.82,3.16,0.82,4.78c0,1.36-0.21,2.82-0.64,4.38c-0.49,1.75-1.29,3.47-2.41,5.17H297.1z"/>
	</g>
	<g>
		<rect x="321.02" y="553.62" fill="none" width="25.51" height="24.22"/>
		<path d="M325.75,559.16c0-1.28,0.28-2.23,0.84-2.85c0.56-0.62,1.33-0.93,2.29-0.93c1,0,1.78,0.31,2.34,0.92s0.84,1.57,0.84,2.86
			c0,1.28-0.28,2.23-0.84,2.85c-0.56,0.62-1.33,0.93-2.29,0.93c-1,0-1.78-0.31-2.34-0.92S325.75,560.45,325.75,559.16z
			 M327.89,559.14c0,0.93,0.11,1.56,0.32,1.88c0.16,0.23,0.39,0.35,0.67,0.35c0.29,0,0.52-0.12,0.68-0.35
			c0.21-0.32,0.31-0.94,0.31-1.88c0-0.93-0.1-1.55-0.31-1.87c-0.16-0.24-0.39-0.36-0.68-0.36c-0.29,0-0.51,0.12-0.67,0.35
			C328,557.59,327.89,558.21,327.89,559.14z M330.98,570.49h-2.03l7.63-15.11h1.97L330.98,570.49z M335.41,566.73
			c0-1.28,0.28-2.23,0.84-2.85s1.33-0.93,2.31-0.93c0.98,0,1.76,0.31,2.32,0.93s0.84,1.57,0.84,2.85c0,1.29-0.28,2.24-0.84,2.86
			s-1.33,0.93-2.29,0.93c-1,0-1.78-0.31-2.34-0.93S335.41,568.02,335.41,566.73z M337.55,566.72c0,0.93,0.11,1.55,0.32,1.87
			c0.16,0.24,0.39,0.36,0.67,0.36c0.29,0,0.52-0.12,0.67-0.35c0.21-0.32,0.32-0.94,0.32-1.88s-0.1-1.56-0.31-1.88
			c-0.16-0.23-0.39-0.35-0.68-0.35s-0.52,0.12-0.67,0.35C337.66,565.17,337.55,565.79,337.55,566.72z"/>
	</g>
	<path fill="#1D1D1B" d="M95.67,550.98h102.05c7.04,0,12.76,5.71,12.76,12.76v0c0,7.04-5.71,12.76-12.76,12.76H95.67
		c-7.04,0-12.76-5.71-12.76-12.76v0C82.91,556.69,88.62,550.98,95.67,550.98z"/>
	<path fill="#1D1D1B" d="M367.79,550.98h102.05c7.04,0,12.76,5.71,12.76,12.76v0c0,7.04-5.71,12.76-12.76,12.76H367.79
		c-7.04,0-12.76-5.71-12.76-12.76v0C355.04,556.69,360.75,550.98,367.79,550.98z"/>
</g>
</svg>
