<svg xmlns="http://www.w3.org/2000/svg" viewBox="0 0 280 220.67"><defs><style>.a{fill:#ffecbb;}.b,.c,.d{fill:none;stroke-miterlimit:10;}.b{stroke:#7c7c7c;}.c{stroke:#e6321f;}.c,.d{stroke-linecap:round;stroke-width:2px;}.d{stroke:#6e6e6d;}.e{fill:#1e1e1e;}.f{fill:#7c7c7c;}</style></defs><rect class="a" width="174.42" height="56"/><path class="b" d="M400.14,455S291,284.17,276.64,284.25" transform="translate(-134.33 -278.67)"/><path class="b" d="M153.33,455s104-170.83,123.5-170.75" transform="translate(-134.33 -278.67)"/><line class="b" x1="142.5" y1="214" x2="142.5" y2="53.11"/><path class="b" d="M369.85,445s-78.74-149.25-93.17-149.25" transform="translate(-134.33 -278.67)"/><path class="b" d="M183.67,445S263,295.75,276.83,295.75" transform="translate(-134.33 -278.67)"/><path class="b" d="M337.91,443S293,306.83,276.74,306.92" transform="translate(-134.33 -278.67)"/><path class="b" d="M215.67,443s44.66-136.17,61.16-136.08" transform="translate(-134.33 -278.67)"/><path class="b" d="M306,449.67s-16.35-131.51-29.16-131.42" transform="translate(-134.33 -278.67)"/><path class="b" d="M247.67,449.67s18.23-131.51,29.16-131.42" transform="translate(-134.33 -278.67)"/><line class="c" x1="142.5" y1="8.49" x2="142.5" y2="2.82"/><line class="c" x1="142.5" y1="19.83" x2="142.5" y2="14.16"/><line class="c" x1="142.5" y1="31.17" x2="142.5" y2="25.5"/><line class="c" x1="142.5" y1="42.51" x2="142.5" y2="36.84"/><line class="c" x1="142.5" y1="53.85" x2="142.5" y2="48.18"/><line class="d" x1="82.97" y1="31.17" x2="82.97" y2="25.5"/><line class="d" x1="74.47" y1="8.49" x2="74.47" y2="2.82"/><line class="d" x1="74.47" y1="53.85" x2="74.47" y2="48.18"/><line class="d" x1="65.96" y1="8.49" x2="65.96" y2="2.82"/><line class="d" x1="65.96" y1="19.83" x2="65.96" y2="14.16"/><line class="d" x1="65.96" y1="31.17" x2="65.96" y2="25.5"/><line class="d" x1="65.96" y1="53.85" x2="65.96" y2="48.18"/><line class="d" x1="57.46" y1="19.83" x2="57.46" y2="14.16"/><line class="d" x1="57.46" y1="53.85" x2="57.46" y2="48.18"/><line class="d" x1="40.45" y1="8.49" x2="40.45" y2="2.82"/><line class="d" x1="40.45" y1="19.83" x2="40.45" y2="14.16"/><line class="d" x1="40.45" y1="53.85" x2="40.45" y2="48.18"/><line class="d" x1="31.95" y1="42.51" x2="31.95" y2="36.84"/><line class="d" x1="31.95" y1="53.85" x2="31.95" y2="48.18"/><line class="d" x1="23.44" y1="42.51" x2="23.44" y2="36.84"/><line class="d" x1="23.44" y1="53.85" x2="23.44" y2="48.18"/><line class="d" x1="14.94" y1="19.83" x2="14.94" y2="14.16"/><line class="d" x1="14.94" y1="42.51" x2="14.94" y2="36.84"/><line class="d" x1="14.94" y1="53.85" x2="14.94" y2="48.18"/><line class="d" x1="6.44" y1="19.83" x2="6.44" y2="14.16"/><line class="d" x1="6.44" y1="53.85" x2="6.44" y2="48.18"/><rect class="e" x="113.33" y="195.67" width="60.33" height="25" rx="8.67"/><circle class="e" cx="266" cy="176.33" r="14"/><circle class="e" cx="235.66" cy="166.33" r="14"/><circle class="e" cx="203.66" cy="164.33" r="14"/><circle class="e" cx="171.66" cy="171" r="14"/><circle class="e" cx="19" cy="176.33" r="14"/><circle class="e" cx="49.33" cy="166.33" r="14"/><circle class="e" cx="81.33" cy="164.33" r="14"/><circle class="e" cx="113.33" cy="171" r="14"/><path d="M276.83,430.17c9.29,0,54.55-9.76,63.84-9.76,0-8.81-5.26-17.74-17.2-17.74-9.28,0-32.15,8.11-46.64,1.05" transform="translate(-134.33 -278.67)"/><path d="M276.83,430.17c-9.28,0-54.55-9.76-63.83-9.76,0-8.81,5.25-17.74,17.19-17.74,9.29,0,32.16,8.11,46.64,1.05" transform="translate(-134.33 -278.67)"/><path class="f" d="M150.34,460.34a1.62,1.62,0,0,1-.45.42.76.76,0,0,1-.41.1,1,1,0,0,1-.77-.33,1.54,1.54,0,0,1-.3-1.07v-1.41a1.6,1.6,0,0,1,.3-1.09,1,1,0,0,1,.77-.32,1,1,0,0,1,.62.2,1.14,1.14,0,0,1,.38.65,1.92,1.92,0,0,0,.28.62,3.14,3.14,0,0,0,1.06.64,4.1,4.1,0,0,0,1.66.33,3.92,3.92,0,0,0,2.31-.65,1.19,1.19,0,0,0,.57-1,1.12,1.12,0,0,0-.28-.73,1.94,1.94,0,0,0-.9-.57,15,15,0,0,0-1.84-.42,10,10,0,0,1-2.6-.77,3.48,3.48,0,0,1-1.39-1.27,3.24,3.24,0,0,1-.52-1.78,3.47,3.47,0,0,1,1.26-2.64,4.78,4.78,0,0,1,3.29-1.13,5.93,5.93,0,0,1,1.5.18,4,4,0,0,1,1.25.55,1.2,1.2,0,0,1,.82-.4,1,1,0,0,1,.76.32,1.61,1.61,0,0,1,.29,1.07v1.58a1.61,1.61,0,0,1-.29,1.08,1,1,0,0,1-.76.33,1,1,0,0,1-.67-.24,1.14,1.14,0,0,1-.34-.7,2,2,0,0,0-.29-.74,2.25,2.25,0,0,0-.89-.66,3.28,3.28,0,0,0-1.37-.27,2.82,2.82,0,0,0-1.8.53,1.47,1.47,0,0,0-.67,1.1,1.3,1.3,0,0,0,.28.76,1.78,1.78,0,0,0,.79.57,16.07,16.07,0,0,0,2,.46,12.8,12.8,0,0,1,2.48.69,3.58,3.58,0,0,1,1.44,1.19,3.28,3.28,0,0,1,.57,1.93,3.07,3.07,0,0,1-1.1,2.49,5.54,5.54,0,0,1-3.71,1.23A6.8,6.8,0,0,1,152,461,6.9,6.9,0,0,1,150.34,460.34Z" transform="translate(-134.33 -278.67)"/><path class="f" d="M397,460.34a2,2,0,0,1-.45.42.76.76,0,0,1-.41.1,1,1,0,0,1-.78-.33,1.59,1.59,0,0,1-.29-1.07v-1.41a1.65,1.65,0,0,1,.29-1.09,1,1,0,0,1,.78-.32,1,1,0,0,1,.62.2,1.26,1.26,0,0,1,.38.65,1.72,1.72,0,0,0,.28.62,3.18,3.18,0,0,0,1.05.64,4.13,4.13,0,0,0,1.66.33,3.87,3.87,0,0,0,2.31-.65,1.2,1.2,0,0,0,.58-1,1.17,1.17,0,0,0-.28-.73,2.06,2.06,0,0,0-.9-.57,15.53,15.53,0,0,0-1.84-.42,9.84,9.84,0,0,1-2.6-.77,3.51,3.51,0,0,1-1.4-1.27,3.32,3.32,0,0,1-.51-1.78,3.47,3.47,0,0,1,1.26-2.64,4.75,4.75,0,0,1,3.28-1.13,5.93,5.93,0,0,1,1.5.18,4.09,4.09,0,0,1,1.26.55,1.18,1.18,0,0,1,.82-.4,1,1,0,0,1,.76.32,1.61,1.61,0,0,1,.29,1.07v1.58a1.61,1.61,0,0,1-.29,1.08,1,1,0,0,1-.76.33,1,1,0,0,1-.68-.24,1.14,1.14,0,0,1-.33-.7,2.13,2.13,0,0,0-.29-.74,2.33,2.33,0,0,0-.89-.66,3.33,3.33,0,0,0-1.38-.27,2.82,2.82,0,0,0-1.8.53,1.45,1.45,0,0,0-.66,1.1,1.28,1.28,0,0,0,.27.76,1.81,1.81,0,0,0,.8.57,15.71,15.71,0,0,0,2,.46,12.39,12.39,0,0,1,2.48.69,3.45,3.45,0,0,1,1.44,1.19,3.22,3.22,0,0,1,.58,1.93A3.1,3.1,0,0,1,404,460a5.55,5.55,0,0,1-3.71,1.23,6.88,6.88,0,0,1-1.7-.21A7,7,0,0,1,397,460.34Z" transform="translate(-134.33 -278.67)"/><path class="f" d="M184.28,440.8V449h1.42a1.55,1.55,0,0,1,1.08.3,1,1,0,0,1,.32.76.93.93,0,0,1-.32.75,1.55,1.55,0,0,1-1.08.3h-4.92a1.55,1.55,0,0,1-1.08-.3,1,1,0,0,1-.33-.76.94.94,0,0,1,.33-.75,1.55,1.55,0,0,1,1.08-.3h1.4V440.8h-2.27v2a1.55,1.55,0,0,1-.3,1.08,1,1,0,0,1-.76.32.93.93,0,0,1-.75-.32,1.55,1.55,0,0,1-.3-1.08v-4.1h10.89v4.09a1.55,1.55,0,0,1-.29,1.08,1,1,0,0,1-.76.32,1,1,0,0,1-.76-.32,1.61,1.61,0,0,1-.29-1.08v-2Z" transform="translate(-134.33 -278.67)"/><path class="f" d="M370.62,440.8V449H372a1.55,1.55,0,0,1,1.08.3,1,1,0,0,1,.33.76.94.94,0,0,1-.33.75,1.55,1.55,0,0,1-1.08.3h-4.92a1.55,1.55,0,0,1-1.08-.3,1,1,0,0,1-.33-.76.94.94,0,0,1,.33-.75,1.55,1.55,0,0,1,1.08-.3h1.4V440.8h-2.27v2a1.61,1.61,0,0,1-.29,1.08,1,1,0,0,1-.77.32.93.93,0,0,1-.75-.32,1.55,1.55,0,0,1-.29-1.08v-4.1H375v4.09a1.55,1.55,0,0,1-.3,1.08,1,1,0,0,1-.76.32.93.93,0,0,1-.75-.32,1.55,1.55,0,0,1-.3-1.08v-2Z" transform="translate(-134.33 -278.67)"/><path class="f" d="M213.93,443.21v2.65h.76a1.61,1.61,0,0,1,1.08.29,1,1,0,0,1,.33.76,1,1,0,0,1-.33.76,1.61,1.61,0,0,1-1.08.29H211.5a1.64,1.64,0,0,1-1.08-.29,1,1,0,0,1-.32-.77,1,1,0,0,1,.33-.75,1.61,1.61,0,0,1,1.07-.29h.33v-8.23h-.33a1.59,1.59,0,0,1-1.08-.29,1,1,0,0,1-.32-.76,1,1,0,0,1,.32-.77,1.64,1.64,0,0,1,1.08-.29h4.76a5,5,0,0,1,3.45,1.1,3.48,3.48,0,0,1,1.23,2.69,3,3,0,0,1-.58,1.79,5.07,5.07,0,0,1-1.73,1.43,12.21,12.21,0,0,1,1.42,1.49c.32.39.74,1,1.28,1.83a2.21,2.21,0,0,1,1,.16,1,1,0,0,1,.46.89,1,1,0,0,1-.31.76,1.62,1.62,0,0,1-1.08.29h-1.2Q217.7,444,216,443.21Zm0-2.1h1.64a4.35,4.35,0,0,0,1.63-.28,3,3,0,0,0,1.3-.78,1.28,1.28,0,0,0,.33-.81,1.44,1.44,0,0,0-.63-1.1,2.92,2.92,0,0,0-1.86-.51h-2.41Z" transform="translate(-134.33 -278.67)"/><path class="f" d="M335.6,443.21v2.65h.76a1.64,1.64,0,0,1,1.08.29,1,1,0,0,1,.32.76,1,1,0,0,1-.32.76,1.64,1.64,0,0,1-1.08.29h-3.19a1.65,1.65,0,0,1-1.09-.29,1,1,0,0,1-.32-.77,1,1,0,0,1,.33-.75,1.64,1.64,0,0,1,1.08-.29h.33v-8.23h-.33a1.6,1.6,0,0,1-1.09-.29,1,1,0,0,1-.32-.76,1,1,0,0,1,.32-.77,1.65,1.65,0,0,1,1.09-.29h4.75a5,5,0,0,1,3.46,1.1,3.51,3.51,0,0,1,1.22,2.69,3,3,0,0,1-.57,1.79,5.12,5.12,0,0,1-1.74,1.43,12.21,12.21,0,0,1,1.43,1.49c.31.39.74,1,1.27,1.83a2.26,2.26,0,0,1,1.06.16,1,1,0,0,1,.46.89,1,1,0,0,1-.32.76,1.61,1.61,0,0,1-1.08.29h-1.2q-2.55-3.94-4.23-4.75Zm0-2.1h1.64a4.39,4.39,0,0,0,1.63-.28,3.09,3.09,0,0,0,1.3-.78,1.28,1.28,0,0,0,.33-.81,1.42,1.42,0,0,0-.64-1.1,2.89,2.89,0,0,0-1.85-.51H335.6Z" transform="translate(-134.33 -278.67)"/><path class="f" d="M245.39,446.75v6.36h.76a1.61,1.61,0,0,1,1.08.29,1,1,0,0,1,.33.76,1,1,0,0,1-.33.76,1.61,1.61,0,0,1-1.08.29h-2.76a1.64,1.64,0,0,1-1.08-.29,1,1,0,0,1-.32-.77.93.93,0,0,1,.32-.74,1.39,1.39,0,0,1,1-.3v-8.23H243a1.59,1.59,0,0,1-1.08-.29,1,1,0,0,1-.32-.76,1,1,0,0,1,.32-.77,1.64,1.64,0,0,1,1.08-.29h2.43l5.38,8.43v-6.33H250a1.6,1.6,0,0,1-1.09-.29,1,1,0,0,1-.32-.76,1,1,0,0,1,.32-.77,1.65,1.65,0,0,1,1.09-.29h2.76a1.64,1.64,0,0,1,1.08.29,1,1,0,0,1,.32.76,1,1,0,0,1-.32.76,1.36,1.36,0,0,1-1,.29v10.33H250.8Z" transform="translate(-134.33 -278.67)"/><path class="f" d="M303.53,446.75v6.36h.76a1.62,1.62,0,0,1,1.08.29,1,1,0,0,1,.32.76,1,1,0,0,1-.32.76,1.62,1.62,0,0,1-1.08.29h-2.76a1.62,1.62,0,0,1-1.08-.29,1,1,0,0,1-.32-.77,1,1,0,0,1,.31-.74,1.41,1.41,0,0,1,1-.3v-8.23h-.33a1.55,1.55,0,0,1-1.08-.29,1,1,0,0,1-.32-.76,1,1,0,0,1,.32-.77,1.61,1.61,0,0,1,1.08-.29h2.43l5.37,8.43v-6.33h-.76a1.59,1.59,0,0,1-1.08-.29,1,1,0,0,1-.32-.76,1,1,0,0,1,.32-.77,1.64,1.64,0,0,1,1.08-.29h2.76a1.61,1.61,0,0,1,1.08.29,1,1,0,0,1,.33.76,1,1,0,0,1-.32.76,1.37,1.37,0,0,1-1,.29v10.33h-2.09Z" transform="translate(-134.33 -278.67)"/><path class="f" d="M273.82,490.44v-8.22a1.49,1.49,0,0,1-1-.3,1,1,0,0,1-.32-.76,1,1,0,0,1,.32-.76,1.59,1.59,0,0,1,1.08-.29h4.4a5.43,5.43,0,0,1,2,.38,4.55,4.55,0,0,1,1.57,1,7,7,0,0,1,.94,1.21,6.65,6.65,0,0,1,.73,1.53,5.83,5.83,0,0,1,.25,1.85v1a5.84,5.84,0,0,1-.45,2.36,4.68,4.68,0,0,1-1.19,1.68,5.78,5.78,0,0,1-1.38,1,6.28,6.28,0,0,1-2.65.48h-4.23a1.59,1.59,0,0,1-1.08-.29,1,1,0,0,1-.32-.76,1,1,0,0,1,.32-.76A1.35,1.35,0,0,1,273.82,490.44Zm2.1,0h2.24a3.89,3.89,0,0,0,1.88-.36,3.15,3.15,0,0,0,1.25-1.2,3.61,3.61,0,0,0,.43-1.88v-1a4.08,4.08,0,0,0-1.72-3.35,3.66,3.66,0,0,0-1.86-.43h-2.22Z" transform="translate(-134.33 -278.67)"/></svg>