<svg xmlns="http://www.w3.org/2000/svg" viewBox="0 0 285.5 157.67"><defs><style>.a{fill:#fff;}</style></defs><path d="M301.72,64.89V113c0,4.35-5.37,7.89-12,7.89s-12-3.54-12-7.89V64.89Z" transform="translate(-16.22 -15.33)"/><rect x="261.5" width="24" height="46.44"/><path d="M272.66,64.89V113c0,4.35-5.37,7.89-12,7.89s-12-3.54-12-7.89V64.89Z" transform="translate(-16.22 -15.33)"/><rect x="232.44" width="24" height="46.44"/><path d="M243.61,64.89V113c0,4.35-5.37,7.89-12,7.89s-12-3.54-12-7.89V64.89Z" transform="translate(-16.22 -15.33)"/><rect x="203.39" width="24" height="46.44"/><path d="M214.55,64.89V113c0,4.35-5.37,7.89-12,7.89s-12-3.54-12-7.89V64.89Z" transform="translate(-16.22 -15.33)"/><rect x="174.33" width="24" height="46.44"/><path d="M185.5,64.89V113c0,4.35-5.37,7.89-12,7.89s-12-3.54-12-7.89V64.89Z" transform="translate(-16.22 -15.33)"/><rect x="145.28" width="24" height="46.44"/><path d="M156.44,64.89V113c0,4.35-5.37,7.89-12,7.89s-12-3.54-12-7.89V64.89Z" transform="translate(-16.22 -15.33)"/><rect x="116.22" width="24" height="46.44"/><path d="M127.39,64.89V113c0,4.35-5.37,7.89-12,7.89s-12-3.54-12-7.89V64.89Z" transform="translate(-16.22 -15.33)"/><rect x="87.17" width="24" height="46.44"/><path d="M98.33,64.89V113c0,4.35-5.37,7.89-12,7.89s-12-3.54-12-7.89V64.89Z" transform="translate(-16.22 -15.33)"/><rect x="58.11" width="24" height="46.44"/><path d="M69.28,64.89V113c0,4.35-5.37,7.89-12,7.89s-12-3.54-12-7.89V64.89Z" transform="translate(-16.22 -15.33)"/><rect x="29.06" width="24" height="46.44"/><path d="M40.22,64.89V113c0,4.35-5.37,7.89-12,7.89s-12-3.54-12-7.89V64.89Z" transform="translate(-16.22 -15.33)"/><path d="M200,123v42.11c0,4.35-5.37,7.89-12,7.89s-12-3.54-12-7.89V123Z" transform="translate(-16.22 -15.33)"/><path d="M171,123v42.11c0,4.35-5.37,7.89-12,7.89s-12-3.54-12-7.89V123Z" transform="translate(-16.22 -15.33)"/><path d="M141.91,123v42.11c0,4.35-5.37,7.89-12,7.89s-12-3.54-12-7.89V123Z" transform="translate(-16.22 -15.33)"/><path d="M112.86,123v42.11c0,4.35-5.37,7.89-12,7.89s-12-3.54-12-7.89V123Z" transform="translate(-16.22 -15.33)"/><rect width="24" height="46.44"/><path class="a" d="M50,27.58H64.56V33h-5V52.75H55V33H50Z" transform="translate(-16.22 -15.33)"/><path class="a" d="M79.05,27.58H93.62V37.65l-2.7,2.52,2.7,2.51V52.75H79.05ZM89,33H83.7v4.68h3.59L89,35.81ZM83.7,42.68v4.68H89V44.52l-1.68-1.84Z" transform="translate(-16.22 -15.33)"/><path class="a" d="M176.56,27.58h4.65V52.75h-4.65v-15l-6.13,15h-4.65V27.58h4.65v15Z" transform="translate(-16.22 -15.33)"/><path class="a" d="M292.79,27.58h4.65V52.75h-4.65v-15l-6.14,15H282V27.58h4.65v15Z" transform="translate(-16.22 -15.33)"/><path class="a" d="M195.27,27.58h14.57V33h-5V52.75h-4.65V33h-5Z" transform="translate(-16.22 -15.33)"/><path class="a" d="M224.32,27.58h14.57V37.65l-2.7,2.52,2.7,2.51V52.75H224.32ZM234.24,33H229v4.68h3.6l1.67-1.84ZM229,42.68v4.68h5.27V44.52l-1.67-1.84Z" transform="translate(-16.22 -15.33)"/><path class="a" d="M253.12,27.58H257l3.68,9.2,3.68-9.2h3.86V52.75h-3.86V36.43l-3.68,9.06L257,36.43V52.75h-3.86V27.58Z" transform="translate(-16.22 -15.33)"/><path class="a" d="M107.85,27.58h3.86l3.68,9.2,3.67-9.2h3.86V52.75h-3.86V36.43l-3.67,9.06-3.68-9.06V52.75h-3.86V27.58Z" transform="translate(-16.22 -15.33)"/><path class="a" d="M50,77.58H64.56v25.17H59.91V83H54.64v19.78H50Z" transform="translate(-16.22 -15.33)"/><path class="a" d="M21.09,27.58H35.66v7.84H31V33H25.74V47.36H31V44.91h4.65v7.84H21.09Z" transform="translate(-16.22 -15.33)"/><path class="a" d="M21.09,77.58H35.66v7.84H31V83H25.74V97.36H31V94.91h4.65v7.84H21.09Z" transform="translate(-16.22 -15.33)"/><path class="a" d="M83.57,92.75v10H78.92V77.58h4.65v9.78h2.14l4.06-9.78h4.9L89.43,89.73l5.55,13H89.86l-4.15-10Z" transform="translate(-16.22 -15.33)"/><path class="a" d="M166.37,77.58h14.57v7.84h-4.65V83H171V97.36h5.27V94.91h4.65v7.84H166.37Z" transform="translate(-16.22 -15.33)"/><path class="a" d="M282.43,77.58h4.65v9.78h5.27V77.58H297v25.17h-4.65v-10h-5.27v10h-4.65V77.58Z" transform="translate(-16.22 -15.33)"/><path class="a" d="M197.73,77.58h12v25.17h-4.65V83h-3.29l-2.11,19.78h-5.55V97.36h1.68Z" transform="translate(-16.22 -15.33)"/><path class="a" d="M228.85,92.75v10H224.2V77.58h4.65v9.78H231l4.06-9.78H240l-5.24,12.15,5.54,13h-5.11l-4.15-10Z" transform="translate(-16.22 -15.33)"/><path class="a" d="M254.68,77.58h12.09V95.2h-8.23v7.55h-3.86ZM258.54,83v6.84h4.37V83Z" transform="translate(-16.22 -15.33)"/><path class="a" d="M182.46,133.83h11.12L195.69,159H191l-.46-5.93h-5.12L185,159h-4.65Zm3.41,13.85h4.3l-.68-8.46h-2.94Z" transform="translate(-16.22 -15.33)"/><path class="a" d="M93.58,133.83h4.65v9.78h5.27v-9.78h4.65V159H103.5V149H98.23v10H93.58V133.83Z" transform="translate(-16.22 -15.33)"/><path class="a" d="M123,133.83h14.26v5.39h-9.61v4.5h4.9v5.39h-4.9v4.5h9.61V159H123Z" transform="translate(-16.22 -15.33)"/><path class="a" d="M152.92,133.83H165V159h-12.1Zm3.86,5.39v14.39h4.38V139.22Z" transform="translate(-16.22 -15.33)"/><path class="a" d="M109.4,77.58h12.1V95.2h-8.24v7.55H109.4ZM113.26,83v6.84h4.38V83Z" transform="translate(-16.22 -15.33)"/><path class="a" d="M143.54,35.87l-.15-5.54h2.11l-.13,5.54L149.1,34l.64,2.8-3.81,1.55,2.45,4.39-1.7,1.72-2.24-4.6-2.21,4.6-1.7-1.72L143,38.31l-3.83-1.51.64-2.8Z" transform="translate(-16.22 -15.33)"/><path class="a" d="M143.54,88.2l-.15-5.54h2.11l-.13,5.54,3.73-1.91.64,2.81-3.81,1.54L148.38,95l-1.7,1.73-2.24-4.61-2.21,4.61L140.53,95,143,90.64l-3.83-1.51.64-2.8Z" transform="translate(-16.22 -15.33)"/></svg>